<svg width="77" height="77" viewBox="0 0 77 77" fill="none" xmlns="http://www.w3.org/2000/svg">
  <path d="M74.3682 38.5014C74.3682 59.1414 59.1401 75.723 38.5 75.723C37.231 75.723 35.9767 75.8101 34.7401 75.6866C15.8658 73.801 1.12793 57.8723 1.12793 38.5014C1.12793 19.1514 15.8339 3.23612 34.6789 1.32225C35.9352 1.19471 37.2099 1.27968 38.5 1.27968C59.1401 1.27968 74.3682 17.8613 74.3682 38.5014Z" fill="#FFF0AF"/>
  <path d="M38.5 1.12891C37.2309 1.12891 35.9767 1.19282 34.7402 1.31644C53.6147 3.20204 68.3525 19.1301 68.3525 38.501C68.3525 57.8719 53.6147 73.7999 34.7402 75.6855C35.9767 75.8091 37.2309 75.873 38.5 75.873C59.1401 75.873 75.8721 59.141 75.8721 38.501C75.8721 17.8609 59.1401 1.12891 38.5 1.12891Z" fill="#FFE07D"/>
  <path d="M44.5545 63.0929C43.1487 63.0929 42.009 61.9532 42.009 60.5474V53.5605H48.604L47.1001 60.5474C47.1001 61.9532 45.9604 63.0929 44.5545 63.0929Z" fill="#F3F0F3"/>
  <path d="M49.6456 67.6046C48.2398 67.6046 47.1001 66.465 47.1001 65.0591V52.8086H52.1911V65.0591C52.1913 66.465 51.0515 67.6046 49.6456 67.6046Z" fill="#E2DEE2"/>
  <path d="M24.2081 50.7383C23.3944 50.7383 23.0324 51.7579 23.6607 52.2751C27.1412 55.1405 31.2562 56.8464 35.4922 57.3929C41.7244 58.1969 46.7157 56.2241 51.8365 52.0083C52.4647 51.4911 49.2065 50.7383 48.3926 50.7383H24.2081Z" fill="#FD8087"/>
  <path d="M52.7919 50.7383H46.7763C47.5901 50.7383 47.9521 51.7579 47.3237 52.2751C43.8432 55.1405 39.7281 56.8459 35.4922 57.3925C41.7244 58.1964 48.2185 56.491 53.3394 52.2751C53.9677 51.7579 53.6057 50.7383 52.7919 50.7383Z" fill="#EE6161"/>
  <path d="M18.9268 33.3808C19.4664 33.6923 20.1563 33.5073 20.4676 32.968C21.1288 31.8226 22.3132 31.1387 23.6359 31.1387C24.9585 31.1387 26.1429 31.8225 26.8041 32.968C27.013 33.3299 27.3922 33.5321 27.782 33.5321C27.9733 33.532 28.1673 33.4834 28.3449 33.3808C28.8843 33.0694 29.0692 32.3795 28.7577 31.8401C27.6887 29.9885 25.7738 28.8828 23.6357 28.8828C21.4976 28.8828 19.5828 29.9883 18.5137 31.8401C18.2024 32.3797 18.3874 33.0695 18.9268 33.3808Z" fill="black"/>
  <path d="M56.5326 32.968C56.7415 33.3299 57.1206 33.5321 57.5104 33.5321C57.7017 33.532 57.8957 33.4834 58.0733 33.3808C58.6128 33.0694 58.7976 32.3795 58.4861 31.8401C57.4172 29.9885 55.5022 28.8828 53.3641 28.8828C51.226 28.8828 49.3112 29.9883 48.2421 31.8401C47.9307 32.3795 48.1155 33.0694 48.6549 33.3808C49.1944 33.6923 49.8842 33.5073 50.1957 32.968C50.857 31.8226 52.0413 31.1387 53.364 31.1387C54.687 31.1388 55.8713 31.8226 56.5326 32.968Z" fill="black"/>
  <path d="M67.0111 12.6275C66.5923 12.1663 65.879 12.132 65.4177 12.5507C64.9566 12.9695 64.9222 13.6828 65.3409 14.1439C71.4046 20.8222 74.7441 29.472 74.7441 38.5C74.7441 48.1812 70.9741 57.2829 64.1284 64.1285C57.2829 70.9741 48.1812 74.7441 38.4999 74.7441C29.4638 74.7441 20.8081 71.3994 14.1275 65.3262C13.6668 64.9072 12.9532 64.9409 12.5341 65.402C12.1151 65.863 12.1489 66.5763 12.61 66.9954C19.7068 73.447 28.9014 77 38.4999 77C48.7836 77 58.4519 72.9954 65.7236 65.7235C72.9952 58.452 76.9999 48.7837 76.9999 38.5C76.9999 28.91 73.4525 19.7218 67.0111 12.6275Z" fill="black"/>
  <path d="M2.25586 38.5C2.25586 28.8188 6.02585 19.7171 12.8715 12.8715C19.7171 6.02585 28.8188 2.25586 38.5 2.25586C47.0658 2.25586 55.378 5.29916 61.9054 10.8254C62.3807 11.2279 63.0925 11.1688 63.4949 10.6934C63.8975 10.2178 63.8384 9.50619 63.3629 9.10375C56.4288 3.2331 47.5989 0 38.5 0C28.2163 0 18.548 4.0046 11.2763 11.2763C4.00475 18.548 0 28.2163 0 38.5C0 47.5675 3.21325 56.3739 9.04765 63.2967C9.27083 63.5614 9.58966 63.6978 9.91074 63.6978C10.1673 63.6978 10.4255 63.6107 10.637 63.4324C11.1134 63.031 11.174 62.3193 10.7726 61.843C5.28052 55.3263 2.25586 47.0363 2.25586 38.5Z" fill="black"/>
  <path d="M19.1919 26.7783C19.1572 25.8904 19.7136 24.761 20.6438 23.8307C21.5741 22.9004 22.7017 22.3438 23.5917 22.3785C24.2153 22.4027 24.7385 21.9179 24.7627 21.2954C24.787 20.6729 24.3022 20.1485 23.6796 20.1243C22.166 20.064 20.4298 20.8543 19.0486 22.2355C17.6674 23.6167 16.8783 25.3477 16.9377 26.8662C16.9613 27.4737 17.4612 27.9502 18.064 27.9502C18.0789 27.9502 18.0938 27.9499 18.1088 27.9493C18.7314 27.9251 19.2163 27.4007 19.1919 26.7783Z" fill="black"/>
  <path d="M58.9359 27.9501C59.5385 27.9501 60.0386 27.4737 60.0622 26.8661C60.1216 25.3476 59.3325 23.6166 57.9513 22.2354C56.5701 20.8541 54.8348 20.0647 53.3203 20.1242C52.6977 20.1485 52.2128 20.6727 52.2372 21.2953C52.2614 21.9178 52.7875 22.4025 53.4081 22.3784C54.2997 22.3446 55.4258 22.9003 56.3563 23.8306C57.2866 24.7609 57.8429 25.8904 57.8081 26.7783C57.7838 27.4007 58.2686 27.925 58.8911 27.9494C58.9063 27.9498 58.921 27.9501 58.9359 27.9501Z" fill="black"/>
  <path d="M49.6455 68.7315C51.6711 68.7315 53.319 67.0836 53.319 65.0581V53.7268C53.5673 53.5377 53.8135 53.3445 54.056 53.1448C54.7155 52.602 54.9552 51.732 54.6672 50.9286C54.3798 50.1272 53.6437 49.6094 52.7919 49.6094H24.208C23.3562 49.6094 22.62 50.1272 22.3326 50.9286C22.0445 51.732 22.2844 52.602 22.9437 53.1448C27.4506 56.8552 32.9752 58.7104 38.4999 58.7104C39.2947 58.7104 40.0894 58.6707 40.8811 58.5939V60.5464C40.8811 62.572 42.5289 64.2198 44.5545 64.2198C45.0568 64.2198 45.5357 64.1183 45.9722 63.935V65.0581C45.9721 67.0836 47.6201 68.7315 49.6455 68.7315ZM51.0631 65.058C51.0631 65.8397 50.4271 66.4755 49.6455 66.4755C48.864 66.4755 48.228 65.8395 48.228 65.058V56.7041C49.1968 56.2857 50.1441 55.8019 51.0631 55.2526V65.058ZM24.958 51.8651H52.0419C44.0803 57.9867 32.9195 57.9867 24.958 51.8651ZM44.5545 61.964C43.7729 61.964 43.1369 61.328 43.1369 60.5464V58.2705C44.0928 58.0873 45.0395 57.8458 45.9721 57.5482V60.5464C45.9721 61.328 45.3362 61.964 44.5545 61.964Z" fill="black"/>
  </svg>
  