<svg width="77" height="77" viewBox="0 0 77 77" fill="none" xmlns="http://www.w3.org/2000/svg">
  <path d="M74.3682 38.5014C74.3682 59.1414 59.1401 75.723 38.5 75.723C37.231 75.723 35.9767 75.8101 34.7401 75.6866C15.8658 73.801 1.12793 57.8723 1.12793 38.5014C1.12793 19.1514 15.8339 3.23612 34.6789 1.32225C35.9352 1.19471 37.2099 1.27968 38.5 1.27968C59.1401 1.27968 74.3682 17.8613 74.3682 38.5014Z" fill="#FFF0AF"/>
  <path d="M51.1795 45.4395L25.2325 46.3349C24.3507 46.3349 23.6359 47.0497 23.6359 47.9314V48.0006C23.6359 48.9918 22.8116 49.0663 22.9865 50.0068C24.2136 56.609 29.5514 61.7669 36.2441 62.7251C36.9808 62.8305 37.7341 62.7347 38.5001 62.7347C47.215 62.7347 52.776 55.8202 52.776 47.1052V47.036C52.776 46.1543 52.0612 45.4395 51.1795 45.4395Z" fill="#FD8087"/>
  <path d="M51.1794 45.5898H48.1716C49.0534 45.5898 49.7682 46.1543 49.7682 47.036V47.1052C49.7682 55.0541 43.8903 61.6292 36.2441 62.7237C36.9811 62.8291 37.7339 62.8849 38.5 62.8849C46.2238 62.8849 52.6514 57.3357 54.0135 50.0067C54.1883 49.0661 52.7758 48.0963 52.7758 47.105V47.0359C52.776 46.1543 52.0612 45.5898 51.1794 45.5898Z" fill="#EE6161"/>
  <path d="M51.1795 45.4395H24.3168C23.435 45.4395 22.7202 46.1543 22.7202 47.036V47.1052C22.7202 48.0964 22.8126 49.066 22.9875 50.0065C27.9331 51.3412 33.1327 52.0566 38.5001 52.0566C42.1756 52.0566 45.7725 51.7211 49.263 51.0811C50.8697 50.7864 50.9499 50.4272 52.5088 50.0065C52.6837 49.066 52.7761 48.0964 52.7761 47.1052V47.036C52.7761 46.1543 52.0613 45.4395 51.1795 45.4395Z" fill="#F3F0F3"/>
  <path d="M49.7682 47.036V47.1052C49.7682 48.4785 49.5925 49.8107 49.2629 51.0808C50.8696 50.7861 52.4539 50.4273 54.0127 50.0065C54.1876 49.066 54.2799 48.0964 54.2799 47.1052V47.036C54.2799 46.1543 53.5651 45.4395 52.6833 45.4395H48.1716C49.0534 45.4395 49.7682 46.1543 49.7682 47.036Z" fill="#E2DEE2"/>
  <path d="M38.5 1.12891C37.2309 1.12891 35.9767 1.19282 34.7402 1.31644C53.6147 3.20204 68.3525 19.1301 68.3525 38.501C68.3525 57.8719 53.6147 73.7999 34.7402 75.6855C35.9767 75.8091 37.2309 75.873 38.5 75.873C59.1401 75.873 75.8721 59.141 75.8721 38.501C75.8721 17.8609 59.1401 1.12891 38.5 1.12891Z" fill="#FFE07D"/>
  <path d="M54.2667 37.6489L49.1307 40.349C48.4798 40.6911 47.7192 40.1384 47.8434 39.4137L48.8242 33.6947C48.8736 33.4068 48.7782 33.1132 48.569 32.9093L44.4139 28.859C43.8874 28.3457 44.1779 27.4515 44.9057 27.3458L50.6479 26.5114C50.9369 26.4694 51.1867 26.2879 51.3159 26.0261L53.884 20.8227C54.2094 20.1633 55.1497 20.1633 55.4751 20.8227L58.0432 26.0261C58.1724 26.2879 58.4222 26.4694 58.7112 26.5114L62.1917 27.0172L63.8519 27.3458C64.5796 27.4515 64.8702 28.3457 64.3436 28.859L60.6397 32.9093C60.4306 33.1131 60.3351 33.4068 60.3845 33.6947L61.3653 39.2633C61.4895 39.9881 60.7289 40.5407 60.078 40.1986L58.1288 39.2451L55.0922 37.6487C54.834 37.5129 54.5252 37.5129 54.2667 37.6489Z" fill="#FFE07D"/>
  <path d="M64.9452 28.8594C65.4717 28.3461 65.1812 27.4519 64.4536 27.3462L62.1918 27.0176C62.2406 27.2886 62.1664 27.5836 61.9375 27.8068L57.7824 31.8572C57.5733 32.0609 57.4778 32.3546 57.5272 32.6425L58.508 38.3616C58.5722 38.7357 58.3997 39.0628 58.129 39.2457L60.2286 40.3496C60.8795 40.6917 61.6402 40.139 61.516 39.4143L60.5351 33.6952C60.4858 33.4074 60.5812 33.1138 60.7903 32.9099L64.9452 28.8594Z" fill="#FFC250"/>
  <path d="M21.9073 37.6489L16.7714 40.349C16.1205 40.6911 15.3598 40.1384 15.484 39.4137L16.4649 33.6947C16.5142 33.4068 16.4188 33.1132 16.2096 32.9093L12.0545 28.859C11.528 28.3457 11.8185 27.4515 12.5463 27.3458L18.2885 26.5114C18.5775 26.4694 18.8272 26.2879 18.9565 26.0261L21.5246 20.8227C21.85 20.1633 22.7903 20.1633 23.1157 20.8227L25.6838 26.0261C25.813 26.2879 26.0628 26.4694 26.3518 26.5114L29.8323 27.0172L31.4925 27.3458C32.2202 27.4515 32.5108 28.3457 31.9843 28.859L28.2803 32.9093C28.0713 33.1131 27.9758 33.4068 28.0251 33.6947L29.0059 39.2633C29.1303 39.9881 28.3695 40.5407 27.7186 40.1986L25.7694 39.2451L22.7328 37.6487C22.4746 37.5129 22.1659 37.5129 21.9073 37.6489Z" fill="#FFE07D"/>
  <path d="M32.5858 28.8594C33.1123 28.3461 32.8218 27.4519 32.0942 27.3462L29.8325 27.0176C29.8812 27.2886 29.807 27.5836 29.5781 27.8068L25.423 31.8572C25.214 32.0609 25.1185 32.3546 25.1678 32.6425L26.1486 38.3616C26.2129 38.7357 26.0404 39.0628 25.7697 39.2457L27.8693 40.3496C28.5201 40.6917 29.2808 40.139 29.1566 39.4143L28.1758 33.6952C28.1264 33.4074 28.2218 33.1138 28.431 32.9099L32.5858 28.8594Z" fill="#FFC250"/>
  <path d="M2.25586 38.5C2.25586 28.8188 6.02585 19.717 12.8715 12.8715C19.717 6.02585 28.8188 2.25586 38.5 2.25586C47.0659 2.25586 55.378 5.29916 61.9054 10.8253C62.3808 11.2279 63.0925 11.1688 63.4949 10.6932C63.8975 10.2178 63.8384 9.50604 63.3629 9.10375C56.4288 3.2331 47.5989 0 38.5 0C28.2163 0 18.548 4.00475 11.2763 11.2763C4.00475 18.548 0 28.2163 0 38.5C0 47.5675 3.21325 56.3738 9.04765 63.2967C9.27083 63.5615 9.58966 63.6978 9.91074 63.6978C10.1673 63.6978 10.4255 63.6107 10.637 63.4324C11.1134 63.0308 11.174 62.3193 10.7726 61.843C5.28052 55.3263 2.25586 47.0362 2.25586 38.5Z" fill="black"/>
  <path d="M67.0111 12.6274C66.5923 12.1663 65.879 12.1321 65.4177 12.5505C64.9566 12.9692 64.9222 13.6825 65.3409 14.1439C71.4046 20.8221 74.7441 29.472 74.7441 38.4998C74.7441 48.181 70.9741 57.2828 64.1284 64.1283C57.2829 70.9739 48.1812 74.7439 38.4999 74.7439C29.4638 74.7439 20.8081 71.3993 14.1275 65.326C13.6667 64.9069 12.9534 64.9409 12.5341 65.402C12.1151 65.8628 12.1489 66.5764 12.61 66.9954C19.7068 73.4468 28.9014 76.9998 38.4999 76.9998C48.7836 76.9998 58.4519 72.995 65.7236 65.7235C72.9952 58.4518 76.9999 48.7835 76.9999 38.4998C76.9999 28.91 73.4525 19.7217 67.0111 12.6274Z" fill="black"/>
  <path d="M52.6834 44.3105H24.3168C22.8145 44.3105 21.5923 45.5328 21.5923 47.035V47.1042C21.5923 56.4272 29.1771 64.012 38.5001 64.012C47.8231 64.012 55.4079 56.4272 55.4079 47.1042V47.035C55.4079 45.5328 54.1857 44.3105 52.6834 44.3105ZM23.8481 47.035C23.8481 46.7765 24.0582 46.5664 24.3168 46.5664H52.6834C52.942 46.5664 53.1521 46.7765 53.1521 47.035V47.1042C53.1521 47.7811 53.1048 48.447 53.0155 49.0999C48.2892 50.3119 43.4091 50.9279 38.5001 50.9279C33.5915 50.9279 28.7106 50.3117 23.9847 49.0997C23.8954 48.447 23.8483 47.7811 23.8483 47.1042V47.035H23.8481ZM38.5001 61.7562C31.974 61.7562 26.4317 57.4672 24.5417 51.5601C29.1008 52.6368 33.7884 53.1837 38.5001 53.1837C43.2121 53.1837 47.8991 52.6372 52.4583 51.5607C50.568 57.4673 45.0258 61.7562 38.5001 61.7562Z" fill="black"/>
  <path d="M66.2425 27.6002C66.0038 26.8652 65.3804 26.3396 64.6157 26.2286L58.9987 25.4125L56.4868 20.3225C56.1448 19.6296 55.4524 19.1992 54.6797 19.1992C53.9068 19.1992 53.2146 19.6295 52.8724 20.3225L50.3605 25.4125L44.7435 26.2286C43.9788 26.3396 43.3554 26.8652 43.1167 27.6002C42.8779 28.335 43.0734 29.1265 43.6267 29.6658L47.6912 33.6277L46.7315 39.2221C46.601 39.9837 46.9084 40.7389 47.5334 41.193C47.8867 41.4495 48.3 41.5799 48.7158 41.5799C49.0361 41.5799 49.3581 41.5026 49.6554 41.3462L54.6794 38.705L59.7035 41.3462C60.387 41.7058 61.2003 41.6471 61.8255 41.1928C62.4505 40.7386 62.7579 39.9835 62.6272 39.2219L61.6677 33.6276L65.732 29.6657C66.2858 29.1267 66.4813 28.335 66.2425 27.6002ZM60.0026 32.1006C59.5277 32.5637 59.311 33.2305 59.4233 33.8843L60.3217 39.1227L55.6178 36.6497C55.0305 36.3407 54.3293 36.3404 53.7415 36.6497L49.0376 39.1227L49.9362 33.8843C50.0482 33.2304 49.8317 32.5637 49.3567 32.1006L45.5508 28.3909L50.8104 27.6267C51.4669 27.5313 52.0342 27.1192 52.3277 26.5243L54.68 21.7583L57.0321 26.5243C57.3256 27.1192 57.8929 27.5313 58.5495 27.6267L63.809 28.3909L60.0026 32.1006Z" fill="black"/>
  <path d="M14.3722 39.2222C14.2417 39.9838 14.5491 40.7391 15.1741 41.1931C15.5274 41.4497 15.9406 41.5801 16.3565 41.5801C16.6768 41.5801 16.9988 41.5028 17.2961 41.3463L22.3202 38.7052L27.3442 41.3463C28.0277 41.7059 28.841 41.6473 29.4662 41.193C30.0912 40.7388 30.3986 39.9837 30.2679 39.2221L29.3084 33.6277L33.3727 29.6658C33.9261 29.1265 34.1217 28.3348 33.8828 27.6002C33.6442 26.8652 33.0208 26.3396 32.2561 26.2286L26.6391 25.4125L24.1271 20.3225C23.7852 19.6296 23.0928 19.1992 22.3199 19.1992C21.5472 19.1992 20.8549 19.6295 20.5128 20.3225L18.0008 25.4125L12.3839 26.2286C11.6192 26.3396 10.9958 26.8652 10.7571 27.6002C10.5183 28.335 10.7138 29.1265 11.2671 29.6658L15.3316 33.6277L14.3722 39.2222ZM13.1913 28.3909L18.4508 27.6267C19.1074 27.5313 19.6747 27.1192 19.9682 26.5243L22.3204 21.7583L24.6726 26.5243C24.9662 27.1192 25.5334 27.5313 26.1901 27.6267L31.4495 28.3909L27.6436 32.1006C27.1686 32.5637 26.9519 33.2305 27.0641 33.8843L27.9626 39.1227L23.2586 36.6496C22.6712 36.3406 21.9699 36.3409 21.3827 36.6495L16.6785 39.1227L17.577 33.8843C17.6891 33.2304 17.4725 32.5637 16.9974 32.1006L13.1913 28.3909Z" fill="black"/>
  </svg>
  