<svg width="77" height="77" viewBox="0 0 77 77" fill="none" xmlns="http://www.w3.org/2000/svg">
  <path d="M74.3682 38.5014C74.3682 59.1414 59.1401 75.723 38.5 75.723C37.231 75.723 35.9767 75.8101 34.7401 75.6866C15.8658 73.801 1.12793 57.8723 1.12793 38.5014C1.12793 19.1514 15.8339 3.23612 34.6789 1.32225C35.9352 1.19471 37.2099 1.27968 38.5 1.27968C59.1401 1.27968 74.3682 17.8613 74.3682 38.5014Z" fill="#FFF0AF" />
  <path d="M49.6756 45.4395H42.6749L38.6556 46.3122L34.9616 45.4395H24.3168C23.435 45.4395 22.7202 46.1543 22.7202 47.036V47.1052C22.7202 55.8202 29.7851 62.8851 38.4999 62.8851C47.2149 62.8851 51.272 55.8202 51.272 47.1052L51.5728 47.036C51.573 46.1543 50.5574 45.4395 49.6756 45.4395Z" fill="#685E68" />
  <path d="M52.6833 45.4395H48.1716C49.0534 45.4395 49.7682 46.1543 49.7682 47.036V47.1052C49.7682 55.0541 43.8903 61.6292 36.2441 62.7237C36.9811 62.8291 37.7339 62.8849 38.5 62.8849C47.215 62.8849 54.2799 55.82 54.2799 47.1052V47.036C54.2799 46.1543 53.5651 45.4395 52.6833 45.4395Z" fill="#554E56" />
  <path d="M38.5 1.12891C37.2309 1.12891 35.9767 1.19282 34.7402 1.31644C53.6147 3.20204 68.3525 19.1301 68.3525 38.501C68.3525 57.8719 53.6147 73.7999 34.7402 75.6855C35.9767 75.8091 37.2309 75.873 38.5 75.873C59.1401 75.873 75.8721 59.141 75.8721 38.501C75.8721 17.8609 59.1401 1.12891 38.5 1.12891Z" fill="#FFE07D" />
  <path d="M38.5 68.4602C37.9079 68.4602 37.3295 68.5521 36.7703 68.4407C32.7373 67.637 29.6978 64.0777 29.6978 59.8084V50.7031C29.6978 47.7961 32.0544 45.4395 34.9614 45.4395H40.5346C43.4417 45.4395 45.7983 47.7961 45.7983 50.7031V59.8084C45.7983 64.6698 43.3613 68.4602 38.5 68.4602Z" fill="#C1E9AF" />
  <path d="M42.0385 45.4395H38.5796C41.4866 45.4395 43.8432 47.7961 43.8432 50.7031V59.8084C43.8432 64.0777 40.8035 67.6361 36.7705 68.4396C37.3298 68.551 37.9079 68.6104 38.5 68.6104C43.3614 68.6104 47.3022 64.6696 47.3022 59.8082V50.703C47.3022 47.7961 44.9456 45.4395 42.0385 45.4395Z" fill="#97DA7B" />
  <path d="M67.0111 12.6275C66.5923 12.1664 65.879 12.1319 65.4179 12.5506C64.9567 12.9693 64.9224 13.6826 65.3411 14.144C71.4047 20.8223 74.7441 29.4721 74.7441 38.4999C74.7441 48.1812 70.9741 57.283 64.1284 64.1284C57.2828 70.9741 48.1812 74.7441 38.4999 74.7441C29.4637 74.7441 20.8081 71.3994 14.1276 65.3262C13.6667 64.907 12.9532 64.9408 12.5344 65.4021C12.1152 65.8629 12.1492 66.5765 12.6102 66.9955C19.707 73.4469 28.9014 76.9999 38.4999 76.9999C48.7836 76.9999 58.452 72.9952 65.7235 65.7236C72.9952 58.4519 76.9999 48.7836 76.9999 38.4999C76.9999 28.9101 73.4525 19.7219 67.0111 12.6275Z" fill="black" />
  <path d="M2.25586 38.5C2.25586 28.8188 6.02585 19.7171 12.8715 12.8715C19.7171 6.02585 28.8188 2.25586 38.5 2.25586C47.0658 2.25586 55.378 5.29916 61.9053 10.8253C62.3808 11.228 63.0926 11.1688 63.4949 10.6932C63.8974 10.2178 63.8383 9.50604 63.3629 9.10375C56.4288 3.2331 47.5989 0 38.5 0C28.2163 0 18.548 4.00475 11.2763 11.2763C4.0046 18.548 0 28.2163 0 38.5C0 47.5674 3.21325 56.3736 9.04765 63.2967C9.27068 63.5615 9.58966 63.6978 9.91074 63.6978C10.1673 63.6978 10.4254 63.6107 10.637 63.4324C11.1134 63.0308 11.174 62.3193 10.7726 61.843C5.28052 55.3262 2.25586 47.0362 2.25586 38.5Z" fill="black" />
  <path d="M58.2808 35.1612C58.6679 32.8588 57.4644 30.8573 55.2147 30.062C53.8598 29.5832 52.3583 29.0022 51.4955 28.3253C51.1334 28.0414 50.9752 27.457 51.092 26.8366C51.2053 26.2353 51.6148 25.5061 52.424 25.2623C54.1687 24.7374 55.3172 25.6515 55.4275 25.744L55.5771 25.8926C56.0188 26.3316 56.733 26.3293 57.1723 25.8875C57.6113 25.4455 57.609 24.7314 57.1672 24.2924L56.995 24.1213C56.9851 24.1115 56.975 24.1017 56.9648 24.0924C56.9072 24.0393 55.9579 23.1851 54.4021 22.9209V22.0459C54.4021 21.4228 53.8971 20.918 53.2742 20.918C52.6513 20.918 52.1463 21.4228 52.1463 22.0459V23.0037C52.0235 23.0328 51.8998 23.0645 51.7734 23.1025C50.287 23.5503 49.1765 24.8211 48.8754 26.419C48.6 27.8797 49.0706 29.2905 50.1033 30.1005C51.0057 30.8084 52.2688 31.4134 54.463 32.1891C56.2411 32.8178 56.1322 34.3367 56.0564 34.7874C55.8657 35.9221 54.9112 37.1484 53.2665 37.1593C51.7883 37.1672 51.2857 37.0887 50.1247 36.3292C49.6034 35.9883 48.9044 36.134 48.5633 36.6557C48.2223 37.177 48.3684 37.876 48.8897 38.2171C50.1611 39.0489 51.0416 39.314 52.1461 39.3888V40.3693C52.1461 40.9924 52.6511 41.4973 53.274 41.4973C53.897 41.4973 54.402 40.9924 54.402 40.3693V39.2877C56.5792 38.799 57.9772 36.9675 58.2808 35.1612Z" fill="black" />
  <path d="M23.538 37.1594C22.0598 37.1674 21.5572 37.0889 20.3962 36.3294C19.8749 35.9885 19.1758 36.1342 18.8348 36.6559C18.4937 37.1772 18.6399 37.8762 19.1612 38.2173C20.4326 39.0491 21.3131 39.3142 22.4176 39.3889V40.3695C22.4176 40.9926 22.9226 41.4974 23.5455 41.4974C24.1684 41.4974 24.6735 40.9926 24.6735 40.3695V39.2879C26.8507 38.7991 28.2487 36.9677 28.5523 35.1613C28.9394 32.8588 27.7359 30.8574 25.4862 30.0622C24.1311 29.5833 22.6296 29.0022 21.7668 28.3255C21.4049 28.0415 21.2465 27.4571 21.3634 26.8367C21.4766 26.2355 21.886 25.5062 22.6952 25.2626C24.4396 24.7368 25.5886 25.6518 25.6987 25.7442L25.8483 25.8927C26.2902 26.3317 27.0042 26.3295 27.4433 25.8876C27.8823 25.4456 27.8801 24.7316 27.4382 24.2926L27.266 24.1214C27.2561 24.1117 27.246 24.1019 27.2358 24.0926C27.1782 24.0395 26.2286 23.1856 24.6732 22.9212V22.0459C24.6732 21.4228 24.1681 20.918 23.5452 20.918C22.9223 20.918 22.4173 21.4228 22.4173 22.0459V23.0037C22.2946 23.0328 22.1706 23.0645 22.0443 23.1025C20.5579 23.5503 19.4474 24.8211 19.1463 26.419C18.8709 27.8799 19.3415 29.2905 20.3744 30.1005C21.2766 30.8083 22.5397 31.4134 24.7341 32.1891C26.5121 32.8178 26.4031 34.3367 26.3274 34.7873C26.1371 35.9221 25.1827 37.1486 23.538 37.1594Z" fill="black" />
  <path d="M40.0404 55.8958C38.9886 55.524 37.825 55.0748 37.1702 54.5612C36.9532 54.3909 36.862 54.0198 36.9383 53.6157C37.0148 53.2093 37.2882 52.7172 37.8256 52.5554C39.042 52.1889 39.8548 52.7924 39.9741 52.8887L40.0806 52.9944C40.5224 53.4334 41.2366 53.4312 41.6756 52.9893C42.1146 52.5475 42.1123 51.8331 41.6705 51.3943L41.5345 51.2592C41.5246 51.2494 41.5145 51.2397 41.5043 51.2302C41.1369 50.8914 40.4516 50.4727 39.5566 50.2839V49.7881C39.5566 49.165 39.0516 48.6602 38.4287 48.6602C37.8057 48.6602 37.3007 49.165 37.3007 49.7881V50.3603C37.2589 50.3718 37.2171 50.3829 37.175 50.3955C35.9159 50.7748 34.9757 51.8487 34.7215 53.198C34.4877 54.4392 34.8925 55.6417 35.7782 56.3364C36.513 56.9127 37.5301 57.4013 39.2889 58.0229C40.4854 58.4458 40.4592 59.4152 40.3925 59.8122C40.2576 60.6138 39.5834 61.4802 38.4211 61.4879C37.2923 61.4965 36.9401 61.4398 36.071 60.871C35.5497 60.53 34.8506 60.6759 34.5096 61.1975C34.1685 61.7187 34.3147 62.4177 34.8361 62.7588C35.7704 63.37 36.4572 63.6142 37.3007 63.7012V64.2603C37.3007 64.8834 37.8057 65.3883 38.4287 65.3883C39.0516 65.3883 39.5566 64.8834 39.5566 64.2603V63.5917C41.2723 63.1243 42.3716 61.6455 42.617 60.1861C42.9377 58.2781 41.9024 56.554 40.0404 55.8958Z" fill="black" />
  <path d="M28.6221 60.8278C29.1347 65.8257 33.3691 69.7375 38.5001 69.7375C43.6311 69.7375 47.8657 65.8256 48.3781 60.8276C52.7899 57.6484 55.4078 52.5589 55.4078 47.1042V47.035C55.4078 45.5328 54.1855 44.3105 52.6833 44.3105H24.3168C22.8145 44.3105 21.5923 45.5328 21.5923 47.035V47.1042C21.5923 52.5571 24.2106 57.6488 28.6221 60.8278ZM38.5001 67.4817C34.2684 67.4817 30.8258 64.0389 30.8258 59.8074V50.7021C30.8258 48.4218 32.681 46.5664 34.9616 46.5664H42.0388C44.3193 46.5664 46.1745 48.4218 46.1745 50.7021V59.8074C46.1744 64.0391 42.7318 67.4817 38.5001 67.4817ZM53.1521 47.035V47.1042C53.1521 51.2348 51.4193 55.1241 48.4304 57.8785V50.7021C48.4304 49.1259 47.8556 47.682 46.9063 46.5664H52.6836C52.9418 46.5664 53.1521 46.7765 53.1521 47.035ZM23.8481 47.035C23.8481 46.7765 24.0584 46.5664 24.3168 46.5664H30.094C29.1446 47.682 28.57 49.1259 28.57 50.7021V57.8779C25.5814 55.1235 23.8483 51.2335 23.8483 47.1042V47.035H23.8481Z" fill="black" />
</svg>
  