<svg width="77" height="77" viewBox="0 0 77 77" fill="none" xmlns="http://www.w3.org/2000/svg">
  <path d="M2.63184 38.5014C2.63184 59.1414 17.8599 75.723 38.5 75.723C39.769 75.723 41.0233 75.8101 42.2599 75.6866C59.0303 74.0113 72.5349 61.2491 75.3374 44.8366C75.6889 42.7774 75.8721 40.6608 75.8721 38.5014C75.8721 19.1514 61.1661 7.74784 42.3211 5.83396C41.0648 5.70643 39.7901 5.7914 38.5 5.7914C17.8599 5.7914 2.63184 17.8613 2.63184 38.5014Z" fill="#FFF0AF"/>
  <path d="M38.5 2.63281C39.7691 2.63281 41.0233 2.69673 42.2598 2.82035C25.1849 4.52623 11.4954 16.2205 9.04013 33.0635C8.7813 34.8385 8.64746 36.6542 8.64746 38.5011C8.64746 57.872 23.3854 73.8001 42.2598 75.6857C41.0233 75.8093 39.7691 75.8732 38.5 75.8732C20.0194 75.8732 4.67173 62.4591 1.66272 44.8363C1.3111 42.7772 1.42871 40.6606 1.42871 38.5011C1.42871 17.8609 17.8599 2.63281 38.5 2.63281Z" fill="#FFE07D"/>
  <path d="M9.03953 33.0631C15.8788 26.8786 26.5319 22.9027 38.5 22.9027C56.9805 22.9027 72.3256 32.3827 75.3349 44.8362C75.6865 42.7769 75.8721 40.6611 75.8721 38.5015C75.8721 19.1304 61.1342 3.20166 42.2598 1.31621C41.0233 1.19274 39.769 1.27981 38.5 1.27981C17.8599 1.27981 1.72949 17.8614 1.72949 38.5015L9.03953 33.0631Z" fill="#8AC9FE"/>
  <path d="M38.5 1.12891C39.7691 1.12891 41.0231 1.19282 42.2598 1.31644C25.185 3.02232 11.4965 16.2208 9.04118 33.0636C5.31962 36.4289 2.72568 40.4472 1.66512 44.8359C1.31351 42.7766 1.12793 40.6607 1.12793 38.5011C1.12793 17.8609 17.8599 1.12891 38.5 1.12891Z" fill="#60B7FF"/>
  <path d="M29.7599 52.8673C29.7599 58.8127 33.5733 63.452 38.5 63.452C39.1158 63.452 39.7171 63.5569 40.2978 63.4136C44.3627 62.4098 47.4204 58.0695 47.4204 52.8673C47.4204 47.6674 44.3655 43.3288 40.3033 42.3224C39.7209 42.1782 39.1178 42.2827 38.5 42.2827C33.5733 42.2827 29.7599 46.9219 29.7599 52.8673Z" fill="#FD8087"/>
  <path d="M38.5 42.1016C39.1178 42.1016 39.7209 42.1775 40.3032 42.3217C36.2412 43.3281 33.1861 47.6666 33.1861 52.8665C33.1861 58.0663 36.2412 62.4049 40.3032 63.4113C39.7208 63.5555 39.1177 63.6315 38.5 63.6315C33.5734 63.6315 29.5796 58.8118 29.5796 52.8665C29.5796 46.9211 33.5734 42.1016 38.5 42.1016Z" fill="#EE6161"/>
  <path d="M22.5889 74.2483V66.1406C22.5889 58.6383 19.9843 51.3689 15.2199 45.5737L13.3265 43.2707C13.0657 42.9535 12.7678 42.6865 12.4447 42.4704C10.8832 41.4264 9.03236 42.1716 7.62455 43.5699V43.2692C6.59062 44.2963 6.18592 45.4979 6.564 46.9054L10.4074 56.7326C10.5954 57.4325 10.6907 58.1541 10.6907 58.8788V74.2483C10.6907 75.0789 11.364 75.7522 12.1946 75.7522H21.0848C21.9154 75.7522 22.5889 75.0789 22.5889 74.2483Z" fill="#FFE07D"/>
  <path d="M7.32397 42.969C8.73163 41.5707 10.8825 41.4283 12.444 42.4723C12.23 42.6154 12.0258 42.7801 11.8357 42.969C10.8018 43.9962 10.3971 45.4986 10.7751 46.9061L13.4154 56.7332C13.6034 57.4331 13.6987 58.1547 13.6987 58.8794V74.2488C13.6987 75.0794 14.372 75.7527 15.2026 75.7527H10.6909C9.86031 75.7527 9.18701 75.0794 9.18701 74.2488V58.8793C9.18701 58.1546 9.09181 57.433 8.90367 56.7331L6.26342 46.9059C5.88533 45.4984 6.29004 43.9962 7.32397 42.969Z" fill="#FFC250"/>
  <path d="M55.915 74.2494V66.1416C55.915 58.6394 57.0157 51.6708 61.7801 45.8756L63.6735 43.5725C65.0243 41.9295 67.3704 41.3344 69.0686 42.4715C69.2825 42.6147 69.4861 42.7807 69.6762 42.9695C70.7102 43.9966 71.1149 45.499 70.7368 46.9065L68.0965 56.7337C67.9085 57.4336 67.8132 58.1552 67.8132 58.8799V74.2494C67.8132 75.08 67.1399 75.7533 66.3093 75.7533H57.4191C56.5883 75.7533 55.915 75.08 55.915 74.2494Z" fill="#FFE07D"/>
  <path d="M61.7801 45.5742L63.6735 43.2712C65.0242 41.6283 67.3697 41.3352 69.0679 42.4721C68.7447 42.6882 68.4462 42.9538 68.1852 43.2712L66.2918 45.5742C61.5274 51.3694 58.9228 58.6388 58.9228 66.1411V74.2488C58.9228 75.0794 59.5961 75.7527 60.4267 75.7527H55.915C55.0844 75.7527 54.4111 75.0794 54.4111 74.2488V66.1411C54.4113 58.6388 57.0157 51.3694 61.7801 45.5742Z" fill="#FFC250"/>
  <path d="M15.3231 31.2098C15.3231 35.9669 18.8787 39.673 23.6359 39.673C24.149 39.673 24.6518 39.7786 25.1402 39.6924C29.1802 38.9809 32.2495 35.4538 32.2495 31.2098C32.2495 26.9657 29.1802 23.4386 25.1402 22.7271C24.6518 22.6411 24.149 22.7465 23.6359 22.7465C18.8787 22.7465 15.3231 26.4526 15.3231 31.2098Z" fill="#F3F0F3"/>
  <path d="M23.6357 22.5957C24.149 22.5957 24.651 22.6432 25.1396 22.7293C21.1 23.441 18.0299 26.9655 18.0299 31.2093C18.0299 35.4532 21.0999 38.9776 25.1396 39.6893C24.651 39.7753 24.149 39.8228 23.6357 39.8228C18.8786 39.8228 15.0221 35.9663 15.0221 31.2092C15.0221 26.452 18.8786 22.5957 23.6357 22.5957Z" fill="#E2DEE2"/>
  <path d="M45.0513 31.2098C45.0513 35.9669 48.607 39.673 53.3642 39.673C53.8773 39.673 54.38 39.7786 54.8685 39.6924C58.9085 38.9809 61.9778 35.4538 61.9778 31.2098C61.9778 26.9657 58.9085 23.4386 54.8685 22.7271C54.38 22.6411 53.8773 22.7465 53.3642 22.7465C48.607 22.7465 45.0513 26.4526 45.0513 31.2098Z" fill="#F3F0F3"/>
  <path d="M53.3643 22.5957C53.8775 22.5957 54.3795 22.6432 54.8682 22.7293C50.8285 23.441 47.7584 26.9655 47.7584 31.2093C47.7584 35.4532 50.8284 38.9776 54.8682 39.6893C54.3795 39.7753 53.8775 39.8228 53.3643 39.8228C48.6071 39.8228 44.7506 35.9663 44.7506 31.2092C44.7506 26.452 48.6071 22.5957 53.3643 22.5957Z" fill="#E2DEE2"/>
  <path d="M38.5 64.7586C32.9593 64.7586 28.4518 59.4235 28.4518 52.8655C28.4518 46.3076 32.9593 40.9727 38.5 40.9727C44.0407 40.9727 48.5483 46.3079 48.5483 52.8657C48.5483 59.4235 44.0407 64.7586 38.5 64.7586ZM38.5 43.2285C34.2032 43.2285 30.7077 47.5518 30.7077 52.8657C30.7077 58.1796 34.2032 62.5027 38.5 62.5027C42.7968 62.5027 46.2925 58.1796 46.2925 52.8655C46.2925 47.5515 42.7968 43.2285 38.5 43.2285Z" fill="black"/>
  <path d="M13.8942 31.2083C13.8942 25.8368 18.2643 21.4668 23.6358 21.4668C29.0073 21.4668 33.3772 25.8368 33.3772 31.2083C33.3772 36.5799 29.0071 40.9498 23.6358 40.9498C18.2644 40.9498 13.8942 36.5799 13.8942 31.2083ZM31.1215 31.2083C31.1215 27.0807 27.7634 23.7227 23.6359 23.7227C19.5085 23.7227 16.1503 27.0807 16.1503 31.2083C16.1503 35.336 19.5083 38.6939 23.6359 38.6939C27.7636 38.6939 31.1215 35.336 31.1215 31.2083Z" fill="black"/>
  <path d="M53.3642 21.4668C58.7357 21.4668 63.1057 25.8368 63.1057 31.2083C63.1057 36.5799 58.7357 40.9498 53.3642 40.9498C47.9927 40.9498 43.6228 36.5797 43.6228 31.2083C43.6228 25.837 47.9927 21.4668 53.3642 21.4668ZM53.3642 38.6939C57.4918 38.6939 60.8499 35.3358 60.8499 31.2083C60.8499 27.0809 57.4918 23.7227 53.3642 23.7227C49.2365 23.7227 45.8786 27.0807 45.8786 31.2083C45.8786 35.336 49.2365 38.6939 53.3642 38.6939Z" fill="black"/>
  <path d="M0 38.5C0 28.91 3.54742 19.7218 9.98879 12.6275C10.4076 12.1663 11.1209 12.1319 11.582 12.5507C12.0433 12.9695 12.0776 13.6828 11.6589 14.1439C5.59528 20.8222 2.25586 29.4721 2.25586 38.5C2.25586 45.5631 4.23786 52.2773 8.01432 58.1138C7.97476 57.7465 7.91025 57.382 7.81429 57.0247L5.17403 47.1977C4.69218 45.4041 5.21118 43.4767 6.52891 42.1677C7.56345 41.14 8.99216 40.5931 10.4487 40.6659C11.9052 40.7393 13.2717 41.4274 14.1978 42.5539L16.0912 44.857C21.0087 50.8383 23.7168 58.397 23.7168 66.1403V71.5992C28.3753 73.684 33.3454 74.7441 38.5 74.7441C43.6537 74.7441 48.6243 73.6842 53.2831 71.5989V66.14C53.2831 58.3967 55.9912 50.8382 60.9087 44.8567L62.8021 42.5536C63.7282 41.4272 65.0946 40.739 66.5512 40.6656C68.0081 40.5919 69.4364 41.1397 70.4711 42.1676C71.7887 43.4766 72.3077 45.404 71.8258 47.1974L69.1856 57.0244C69.0896 57.3817 69.0251 57.7462 68.9855 58.1135C72.7621 52.2771 74.7441 45.5631 74.7441 38.5C74.7441 28.8189 70.9741 19.7171 64.1285 12.8715C57.2829 6.02585 48.1812 2.25586 38.5 2.25586C29.9342 2.25586 21.6221 5.29931 15.0947 10.8254C14.6192 11.228 13.9074 11.1686 13.5051 10.6934C13.1026 10.2178 13.1617 9.50619 13.6371 9.10375C20.5713 3.2331 29.4011 0 38.5 0C48.7837 0 58.452 4.00475 65.7237 11.2764C72.9954 18.5481 77 28.2163 77 38.5C77 47.1323 74.2134 55.2746 68.941 62.0707V64.7705C68.941 65.3935 68.436 65.8985 67.8131 65.8985C67.1902 65.8985 66.6852 65.3935 66.6852 64.7705V58.8782C66.6852 58.0551 66.7934 57.2346 67.007 56.4395L69.6473 46.6124C69.9198 45.5981 69.6262 44.5084 68.8812 43.7682C68.2874 43.1785 67.501 42.8762 66.6646 42.9189C65.8288 42.961 65.076 43.3402 64.5446 43.9865L62.6512 46.2896C58.0648 51.8684 55.539 58.9181 55.539 66.1401V74.2477C55.539 74.4551 55.7077 74.6237 55.9149 74.6237H66.3092C66.5164 74.6237 66.6852 74.4551 66.6852 74.2477V69.9004C66.6852 69.2774 67.1902 68.7724 67.8131 68.7724C68.436 68.7724 68.941 69.2774 68.941 69.9004V74.2477C68.941 75.699 67.7603 76.8795 66.3092 76.8795H55.9149C54.4638 76.8795 53.2831 75.699 53.2831 74.2477V74.0563C48.6008 76.0082 43.6355 77 38.5 77C33.3636 77 28.3987 76.008 23.7169 74.056V74.2476C23.7169 75.6988 22.5362 76.8794 21.0851 76.8794H10.6908C9.2397 76.8794 8.05898 75.6988 8.05898 74.2476V62.0707C2.78659 55.2746 0 47.1323 0 38.5ZM10.3148 74.2476C10.3148 74.4549 10.4836 74.6235 10.6908 74.6235H21.0851C21.2923 74.6235 21.461 74.4549 21.461 74.2476V66.14C21.461 58.9179 18.9351 51.8682 14.3488 46.2895L12.4554 43.9864C11.924 43.3402 11.171 42.961 10.3354 42.9189C10.284 42.9162 10.2327 42.915 10.1817 42.915C9.40363 42.915 8.67588 43.2147 8.11899 43.768C7.37395 44.5083 7.08039 45.5981 7.3529 46.6124L9.99316 56.4395C10.2067 57.2346 10.315 58.0551 10.315 58.8782V74.2476H10.3148Z" fill="black"/>
  </svg>
  