<svg width="77" height="77" viewBox="0 0 77 77" fill="none" xmlns="http://www.w3.org/2000/svg">
  <path d="M74.3682 38.5014C74.3682 59.1414 59.1401 75.723 38.5 75.723C37.231 75.723 35.9767 75.8101 34.7401 75.6866C15.8658 73.801 1.12793 57.8723 1.12793 38.5014C1.12793 19.1514 15.8339 3.23612 34.6789 1.32225C35.9352 1.19471 37.2099 1.27968 38.5 1.27968C59.1401 1.27968 74.3682 17.8613 74.3682 38.5014V38.5014Z" fill="#FFF0AF"/>
  <path d="M38.5 1.12891C37.2309 1.12891 35.9767 1.19282 34.7402 1.31644C53.6146 3.20204 68.3525 19.1301 68.3525 38.501C68.3525 57.8719 53.6146 73.7999 34.7402 75.6855C35.9767 75.8091 37.2309 75.873 38.5 75.873C59.1401 75.873 75.8721 59.141 75.8721 38.501C75.8721 17.8609 59.1401 1.12891 38.5 1.12891Z" fill="#FFE07D"/>
  <path d="M22.0278 31.209V33.7527C22.0278 35.2062 23.2061 36.3845 24.6597 36.3845C26.1132 36.3845 27.2915 35.2062 27.2915 33.7527V31.209H22.0278Z" fill="#685E68"/>
  <path d="M54.3879 36.3845C55.8415 36.3845 57.0198 35.2062 57.0198 33.7527V31.209H51.7561V33.7527C51.7561 35.2062 52.9344 36.3845 54.3879 36.3845Z" fill="#685E68"/>
  <path d="M2.25586 38.5C2.25586 28.8188 6.02585 19.7171 12.8715 12.8715C19.7171 6.02585 28.8188 2.25586 38.5 2.25586C47.0658 2.25586 55.378 5.29916 61.9053 10.8253C62.3808 11.228 63.0926 11.1688 63.4949 10.6932C63.8974 10.2178 63.8383 9.50604 63.3629 9.10375C56.4288 3.2331 47.5989 0 38.5 0C28.2163 0 18.548 4.00475 11.2763 11.2763C4.0046 18.548 0 28.2163 0 38.5C0 47.5674 3.21325 56.3736 9.04765 63.2967C9.27068 63.5615 9.58966 63.6978 9.91074 63.6978C10.1673 63.6978 10.4254 63.6107 10.637 63.4324C11.1133 63.0308 11.174 62.3193 10.7726 61.843C5.28052 55.3262 2.25586 47.0362 2.25586 38.5Z" fill="black"/>
  <path d="M67.0111 12.6275C66.5923 12.1664 65.879 12.1319 65.4179 12.5506C64.9566 12.9693 64.9224 13.6826 65.341 14.144C71.4046 20.8223 74.7441 29.4721 74.7441 38.4999C74.7441 48.1812 70.9741 57.283 64.1284 64.1284C57.2828 70.9741 48.181 74.7441 38.4999 74.7441C29.4637 74.7441 20.8081 71.3994 14.1276 65.3262C13.6667 64.9069 12.9532 64.941 12.5344 65.4021C12.1152 65.8629 12.1492 66.5765 12.6102 66.9955C19.707 73.4469 28.9014 76.9999 38.4999 76.9999C48.7836 76.9999 58.4518 72.9952 65.7235 65.7236C72.9952 58.4519 76.9999 48.7836 76.9999 38.4999C76.9999 28.9101 73.4525 19.7219 67.0111 12.6275Z" fill="black"/>
  <path d="M23.2589 21.5022C23.2833 20.8797 22.7983 20.3554 22.1758 20.3312C20.6574 20.2721 18.926 21.0614 17.5448 22.4424C16.1636 23.8236 15.3745 25.5546 15.4338 27.0731C15.4574 27.6807 15.9573 28.1571 16.5601 28.1571C16.5749 28.1571 16.5898 28.1568 16.6049 28.1562C17.2273 28.132 17.7122 27.6077 17.688 26.9853C17.6534 26.0974 18.2097 24.9678 19.14 24.0375C20.0705 23.1071 21.1974 22.5513 22.088 22.5853C22.7064 22.6072 23.2347 22.1248 23.2589 21.5022Z" fill="black"/>
  <path d="M60.395 28.1562C60.41 28.1568 60.4249 28.1571 60.4398 28.1571C61.0424 28.1571 61.5425 27.6807 61.5661 27.0731C61.6253 25.5546 60.8362 23.8236 59.4551 22.4424C58.0739 21.0611 56.3421 20.272 54.8242 20.3312C54.2018 20.3555 53.7168 20.8797 53.7411 21.5022C53.7653 22.1246 54.2909 22.6104 54.9121 22.5853C55.8021 22.553 56.9297 23.1071 57.86 24.0375C58.7902 24.9678 59.3466 26.0972 59.312 26.9853C59.2877 27.6076 59.7725 28.132 60.395 28.1562Z" fill="black"/>
  <path d="M29.0225 54.6071C32.0387 56.0927 35.2766 56.8148 38.4899 56.8148C44.0554 56.8148 49.5448 54.6474 53.665 50.527C54.1055 50.0864 54.1055 49.3723 53.665 48.9318C53.2245 48.4915 52.5103 48.4915 52.0698 48.9318C46.2539 54.7477 37.3925 56.2154 30.0191 52.5833C29.4604 52.3084 28.7841 52.5379 28.5089 53.0967C28.2337 53.6556 28.4636 54.3317 29.0225 54.6071Z" fill="black"/>
  <path d="M24.6596 37.5115C26.7328 37.5115 28.4194 35.8248 28.4194 33.7517V31.3584C28.4194 31.333 28.4173 31.3082 28.4156 31.2832C28.4173 31.2582 28.4194 31.2334 28.4194 31.208C28.4194 30.5849 27.9144 30.0801 27.2915 30.0801H19.9802C19.3573 30.0801 18.8523 30.5849 18.8523 31.208C18.8523 31.8311 19.3573 32.3359 19.9802 32.3359H20.8999V33.7517C20.8999 35.8248 22.5863 37.5115 24.6596 37.5115ZM24.6596 35.2556C23.8304 35.2556 23.1557 34.581 23.1557 33.7517V32.3359H26.1635V33.7517C26.1635 34.5808 25.4889 35.2556 24.6596 35.2556Z" fill="black"/>
  <path d="M57.0197 30.0801H49.7085C49.0856 30.0801 48.5806 30.5849 48.5806 31.208C48.5806 31.8311 49.0856 32.3359 49.7085 32.3359H50.6281V33.7517C50.6281 35.8248 52.3148 37.5115 54.3879 37.5115C56.461 37.5115 58.1477 35.8248 58.1477 33.7517V31.3584C58.1477 31.333 58.1456 31.3082 58.1439 31.2832C58.1456 31.2582 58.1477 31.2334 58.1477 31.208C58.1477 30.5849 57.6426 30.0801 57.0197 30.0801ZM54.3879 35.2556C53.5586 35.2556 52.884 34.581 52.884 33.7517V32.3359H55.8918V33.7517C55.8918 34.5808 55.2171 35.2556 54.3879 35.2556Z" fill="black"/>
  </svg>
  