<svg width="78" height="78" viewBox="0 0 78 78" fill="none" xmlns="http://www.w3.org/2000/svg">
  <path d="M73.4585 40.9536C73.4585 60.7825 58.8288 76.7125 38.9999 76.7125C37.7807 76.7125 36.5758 76.7961 35.3878 76.6776C17.2551 74.8662 3.09644 59.5633 3.09644 40.9536C3.09644 22.364 17.2243 7.07416 35.3289 5.23552C36.5359 5.11289 37.7604 5.1947 38.9997 5.1947C58.8288 5.1947 73.4585 21.1247 73.4585 40.9536Z" fill="#FFF0AF" />
  <path d="M39 5.05078C37.7808 5.05078 36.5759 5.11218 35.3879 5.23085C53.5207 7.04237 67.6793 22.3444 67.6793 40.9541C67.6793 59.5638 53.5207 74.8658 35.3879 76.6773C36.5759 76.796 37.7807 76.8574 39 76.8574C58.8289 76.8574 74.9035 60.7828 74.9035 40.9539C74.9035 21.125 58.8289 5.05078 39 5.05078Z" fill="#FFE07D" />
  <path d="M4.23901 40.954C4.23901 31.6691 7.85474 22.9398 14.4201 16.3744C17.2254 13.5691 20.4268 11.3044 23.8967 9.62813C28.4833 9.93708 33.6412 10.1012 38.9999 10.1012C44.3446 10.1012 49.4897 9.93784 54.0673 9.63056C56.7041 10.8979 59.1876 12.4989 61.4474 14.412C61.929 14.8197 62.6499 14.7597 63.0576 14.2783C63.4654 13.7966 63.4055 13.0757 62.9238 12.668C61.4462 11.4169 59.8788 10.2911 58.2392 9.29525C59.3565 9.18922 60.4261 9.07344 61.4385 8.94806C68.806 8.03491 71.6766 6.94215 71.6766 5.05065C71.6766 3.15915 68.806 2.06639 61.4385 1.15339C55.4373 0.4095 47.4685 0 38.9999 0C30.5313 0 22.5626 0.4095 16.5613 1.15324C9.19384 2.06639 6.32323 3.159 6.32323 5.0505C6.32323 6.942 9.19384 8.03476 16.5613 8.94791C17.5679 9.07268 18.6309 9.1877 19.7412 9.29327C17.2499 10.8149 14.9211 12.6418 12.8044 14.7585C5.80739 21.7554 1.95386 31.0586 1.95386 40.954C1.95386 49.6788 5.04567 58.1527 10.6598 64.8142C10.8859 65.0825 11.2089 65.2205 11.5341 65.2205C11.794 65.2205 12.0555 65.1323 12.2698 64.9516C12.7524 64.545 12.8138 63.8241 12.4072 63.3416C7.13979 57.0914 4.23901 49.1408 4.23901 40.954V40.954ZM38.9999 7.816C35.5999 7.816 32.2613 7.7482 29.0991 7.6181C32.2722 6.68027 35.5985 6.19308 38.9999 6.19308C42.358 6.19308 45.6751 6.68134 48.8517 7.61993C45.7039 7.74881 42.3824 7.816 38.9999 7.816ZM18.0188 6.81845C12.2902 6.17845 9.97156 5.45817 9.06344 5.0505C9.97156 4.64283 12.2904 3.9227 18.0188 3.2827C23.7762 2.63936 31.2273 2.28516 38.9999 2.28516C46.7725 2.28516 54.2236 2.63936 59.981 3.2827C65.7094 3.9227 68.0282 4.64298 68.9364 5.0505C68.0282 5.45817 65.7094 6.17845 59.981 6.81845C58.2891 7.00751 56.4498 7.17128 54.5001 7.30884C49.6742 5.08722 44.3865 3.90792 38.9999 3.90792C33.5437 3.90792 28.2685 5.08188 23.4598 7.30595C21.5249 7.16914 19.6993 7.00629 18.0188 6.81845Z" fill="black" />
  <path d="M66.4342 16.0582C66.01 15.5909 65.2874 15.556 64.8202 15.9803C64.3529 16.4046 64.3182 17.1272 64.7423 17.5943C70.5579 23.9992 73.7606 32.295 73.7606 40.9536C73.7606 50.2385 70.1449 58.9678 63.5795 65.5332C57.0141 72.0986 48.2848 75.7143 38.9999 75.7143C30.3335 75.7143 22.0321 72.5066 15.6249 66.6818C15.1582 66.2574 14.4354 66.2915 14.0108 66.7588C13.5863 67.2257 13.6206 67.9483 14.0877 68.3729C20.9167 74.5806 29.7639 77.9995 38.9999 77.9995C48.8952 77.9995 58.1984 74.1461 65.1954 67.1489C72.1924 60.1519 76.0459 50.8488 76.0459 40.9534C76.0459 31.7258 72.6325 22.8844 66.4342 16.0582V16.0582Z" fill="black" />
  <path d="M38.9998 58.5925C44.2912 58.5925 49.5826 56.5784 53.6108 52.5501C54.057 52.1039 54.057 51.3804 53.6108 50.9343C53.1645 50.4881 52.4411 50.488 51.9949 50.9343C44.8294 58.0997 33.1704 58.0997 26.0048 50.9343C25.5583 50.488 24.8349 50.4883 24.3889 50.9343C23.9426 51.3805 23.9426 52.104 24.3889 52.5501C28.4171 56.5784 33.7085 58.5925 38.9998 58.5925V58.5925Z" fill="black" />
  <path d="M27.7127 35.6693C28.0282 36.2159 28.7268 36.4031 29.2734 36.0875C29.8199 35.772 30.0071 35.0732 29.6916 34.5267C28.654 32.7294 26.7954 31.6562 24.72 31.6562C24.7199 31.6562 24.72 31.6562 24.7199 31.6562C22.6445 31.6562 20.7858 32.7294 19.748 34.5267C19.4325 35.0732 19.6197 35.772 20.1662 36.0875C20.3462 36.1914 20.5426 36.2407 20.7364 36.2407C21.1313 36.2407 21.5153 36.0357 21.7269 35.6693C22.3517 34.5872 23.4705 33.9414 24.7199 33.9414C25.9694 33.9413 27.0881 34.5873 27.7127 35.6693V35.6693Z" fill="black" />
  <path d="M56.2727 35.6693C56.4845 36.0358 56.8684 36.2407 57.2633 36.2407C57.457 36.2406 57.6536 36.1914 57.8335 36.0875C58.3799 35.772 58.5672 35.0732 58.2517 34.5267C57.2141 32.7292 55.3552 31.6562 53.2796 31.6562C51.2043 31.6562 49.3458 32.7294 48.308 34.5267C47.9925 35.0732 48.1798 35.772 48.7262 36.0875C49.2727 36.403 49.9716 36.2157 50.287 35.6693C50.9118 34.5873 52.0303 33.9414 53.2798 33.9414C54.529 33.9413 55.648 34.5872 56.2727 35.6693Z" fill="black" />
</svg>
  