<svg width="24" height="24" viewBox="0 0 24 24" fill="none" xmlns="http://www.w3.org/2000/svg">
<path d="M4.5 12.5H3.5C2.39543 12.5 1.5 13.3954 1.5 14.5V19.5C1.5 20.6046 2.39543 21.5 3.5 21.5H4.5C5.60457 21.5 6.5 20.6046 6.5 19.5V14.5C6.5 13.3954 5.60457 12.5 4.5 12.5Z" stroke="#60B15A"/>
<path d="M12.5 7.5H11.5C10.3954 7.5 9.5 8.39543 9.5 9.5V19.5C9.5 20.6046 10.3954 21.5 11.5 21.5H12.5C13.6046 21.5 14.5 20.6046 14.5 19.5V9.5C14.5 8.39543 13.6046 7.5 12.5 7.5Z" stroke="#60B15A"/>
<path d="M20.5 2.5H19.5C18.3954 2.5 17.5 3.39543 17.5 4.5V19.5C17.5 20.6046 18.3954 21.5 19.5 21.5H20.5C21.6046 21.5 22.5 20.6046 22.5 19.5V4.5C22.5 3.39543 21.6046 2.5 20.5 2.5Z" stroke="#60B15A"/>
</svg>
