<svg width="28" height="28" viewBox="0 0 28 28" fill="none" xmlns="http://www.w3.org/2000/svg">
<path d="M14.0008 3.26758C7.72038 3.26758 2.80078 6.1373 2.80078 9.80091V14.0009V18.2009C2.80078 21.8645 7.72038 24.7342 14.0008 24.7342C20.2812 24.7342 25.2008 21.8645 25.2008 18.2009V14.0009V9.80091C25.2008 6.1373 20.2812 3.26758 14.0008 3.26758ZM24.2674 18.2009C24.2674 21.2889 19.6618 23.8009 14.0008 23.8009C8.33971 23.8009 3.73411 21.2889 3.73411 18.2009V16.6545C5.44692 18.9594 9.34941 20.5342 14.0008 20.5342C18.6522 20.5342 22.5546 18.9594 24.2674 16.6545V18.2009ZM24.2674 14.0009C24.2674 17.0889 19.6618 19.6009 14.0008 19.6009C8.33971 19.6009 3.73411 17.0889 3.73411 14.0009V12.4545C5.44692 14.7594 9.34941 16.3342 14.0008 16.3342C18.6522 16.3342 22.5546 14.7594 24.2674 12.4545V14.0009ZM14.0008 15.4009C8.33971 15.4009 3.73411 12.8889 3.73411 9.80091C3.73411 6.71289 8.33971 4.20091 14.0008 4.20091C19.6618 4.20091 24.2674 6.71289 24.2674 9.80091C24.2674 12.8889 19.6618 15.4009 14.0008 15.4009Z" fill="#60B15A"/>
<path d="M13.9993 5.13281C8.76575 5.13281 4.66602 7.18268 4.66602 9.79948C4.66602 12.4163 8.76575 14.4661 13.9993 14.4661C19.2329 14.4661 23.3327 12.4163 23.3327 9.79948C23.3327 7.18268 19.2329 5.13281 13.9993 5.13281ZM13.9993 13.5328C9.44616 13.5328 5.59935 11.8234 5.59935 9.79948C5.59935 7.77559 9.44616 6.06615 13.9993 6.06615C18.5525 6.06615 22.3993 7.77559 22.3993 9.79948C22.3993 11.8234 18.5525 13.5328 13.9993 13.5328Z" fill="#60B15A"/>
<path d="M13.9993 8.15671C14.868 8.15671 15.3993 8.5377 15.3993 8.74505H16.3327C16.3327 7.9823 15.5571 7.38561 14.466 7.2522V6.89844H13.5327V7.2522C12.4416 7.38561 11.666 7.9823 11.666 8.74505C11.666 9.61276 12.6691 10.2667 13.9993 10.2667C14.868 10.2667 15.3993 10.6477 15.3993 10.8551C15.3993 11.0624 14.868 11.4434 13.9993 11.4434C13.131 11.4434 12.5993 11.0624 12.5993 10.8551H11.666C11.666 11.6178 12.4416 12.2145 13.5327 12.3479V12.7017H14.466V12.3479C15.5571 12.2145 16.3327 11.6178 16.3327 10.8551C16.3327 9.98737 15.3296 9.3334 13.9993 9.3334C13.131 9.3334 12.5993 8.95241 12.5993 8.74505C12.5993 8.5377 13.131 8.15671 13.9993 8.15671Z" fill="#60B15A"/>
</svg>
