<svg width="54" height="54" viewBox="0 0 54 54" fill="none" xmlns="http://www.w3.org/2000/svg">
<path d="M35.3637 28.4449C42.968 28.4449 49.159 22.2539 49.159 14.6496C49.159 7.04531 42.968 0.84375 35.3637 0.84375C27.7594 0.84375 21.5684 7.03477 21.5684 14.6391C21.5684 22.2434 27.7594 28.4449 35.3637 28.4449ZM35.3637 2.95312C41.8184 2.95312 47.0602 8.18438 47.0602 14.6391C47.0602 21.0938 41.8289 26.3355 35.3742 26.3355C28.9195 26.3355 23.6777 21.1043 23.6777 14.6496C23.6777 14.6496 23.6777 14.6496 23.6777 14.6391C23.6883 8.19492 28.909 2.96367 35.3637 2.95312Z" fill="#60B15A"/>
<path d="M35.3637 19.1633C34.4039 19.1633 33.634 18.3828 33.634 17.4336C33.634 16.8535 33.1594 16.3789 32.5793 16.3789C31.9887 16.3789 31.5141 16.843 31.5035 17.4336C31.5035 19.1527 32.6953 20.6082 34.1719 21.0934V22.0426C34.1719 22.6227 34.6465 23.0973 35.2266 23.0973C35.8066 23.0973 36.2812 22.6227 36.2812 22.0426V21.1566C38.3379 20.6398 39.5824 18.5516 39.0656 16.4949C38.6332 14.7969 37.1039 13.5945 35.3531 13.5945C34.3934 13.5945 33.6234 12.8141 33.634 11.8543C33.6445 10.8945 34.4145 10.1246 35.3742 10.1352C36.3234 10.1352 37.0934 10.9156 37.0934 11.8648C37.0934 12.4449 37.568 12.9195 38.148 12.9195C38.7176 12.9195 39.1816 12.4555 39.1816 11.8754V11.8648C39.1816 10.1035 37.9898 8.57422 36.2812 8.1418V7.73047C36.2812 7.15039 35.8066 6.67578 35.2266 6.67578C34.6465 6.67578 34.1719 7.15039 34.1719 7.73047V8.20508C32.6953 8.70078 31.5035 10.1562 31.5035 11.8648C31.5035 13.9848 33.2227 15.7039 35.3531 15.7039C36.3129 15.7039 37.0828 16.4844 37.0723 17.4441C37.0723 18.3828 36.3129 19.1527 35.3637 19.1633ZM51.2684 32.6C49.9078 30.923 47.4504 30.6699 45.7629 32.0305C43.6535 33.7496 40.5844 36.2281 38.591 37.8418C37.1883 38.9703 35.4586 39.6137 33.6551 39.677L28.2551 39.8563C28.0336 39.8668 27.8332 39.7508 27.7172 39.5715L27.116 38.5379C27.0105 38.3691 27 38.1688 27.0844 37.9895C27.1687 37.8102 27.327 37.6836 27.5168 37.652L33.0961 36.5973C35.0578 36.2281 36.4289 34.3719 36.2074 32.3574C35.9965 30.4168 34.3512 28.9613 32.4105 28.9613C32.3578 28.9613 32.2945 28.9613 32.2207 28.9613L24.7641 28.6555C21.7898 28.55 19.2375 29.1195 16.2527 30.5645L12.3504 32.4523C11.802 31.3133 10.6523 30.5856 9.38672 30.5856H5.07305C3.26953 30.575 1.80352 32.0305 1.79297 33.834V49.8969C1.80352 51.7004 3.26953 53.1559 5.07305 53.1559H9.38672C11.1902 53.1559 12.6457 51.7004 12.6562 49.8969V48.8106L16.8012 48.0512C18.1406 47.8508 18.9844 47.777 20.4082 47.8402L31.7461 48.3676C35.8277 48.5469 39.825 47.1969 42.9574 44.5813L50.8148 38.0633L50.8254 38.0527C52.3969 36.7133 52.6289 34.3613 51.3527 32.7371C51.3316 32.6844 51.3 32.6422 51.2684 32.6ZM10.5469 49.8969C10.5469 50.5297 10.0301 51.0465 9.39727 51.0465H5.05195C4.41914 51.0465 3.90234 50.5297 3.90234 49.8969V33.8445C3.90234 33.2117 4.41914 32.6949 5.05195 32.6949H9.39727C10.0301 32.6949 10.5469 33.2117 10.5469 33.8445V49.8969ZM49.4648 36.4391L41.618 42.9465C38.8863 45.2246 35.3953 46.3953 31.841 46.2477L20.5031 45.7203C18.9105 45.6465 17.9402 45.7414 16.4742 45.9523C16.4637 45.9523 16.4531 45.9524 16.4426 45.9629L12.6562 46.659V34.6356L17.1703 32.4523C19.8281 31.1656 22.0746 30.6594 24.6797 30.7543L32.1891 31.0602C32.2313 31.0602 32.284 31.0602 32.3262 31.0602C32.3367 31.0602 32.3789 31.0602 32.4105 31.0602C33.2754 31.0707 34.0137 31.7141 34.1191 32.5789C34.2246 33.4859 33.6129 34.3297 32.7164 34.509L27.1371 35.5637C25.6711 35.8379 24.7113 37.2617 24.9855 38.7277C25.0488 39.0336 25.1543 39.3289 25.3125 39.5926L25.9137 40.6156C26.4199 41.4699 27.348 41.9762 28.3395 41.9445L33.7395 41.7652C35.9965 41.6809 38.1691 40.8688 39.9305 39.466C41.9238 37.8523 45.0035 35.3738 47.1129 33.6547C47.8723 33.0641 48.9586 33.159 49.602 33.8762C49.623 33.9184 49.6547 33.9606 49.6863 34.0027C50.2875 34.7305 50.1926 35.8273 49.4648 36.4391Z" fill="#60B15A"/>
</svg>
