<svg width="22" height="22" viewBox="0 0 22 22" fill="none" xmlns="http://www.w3.org/2000/svg">
<path d="M10.0833 8.24935H13.75C13.9931 8.24935 14.2262 8.15277 14.3981 7.98086C14.5701 7.80895 14.6666 7.5758 14.6666 7.33268C14.6666 7.08957 14.5701 6.85641 14.3981 6.6845C14.2262 6.51259 13.9931 6.41602 13.75 6.41602H11.9166V5.49935C11.9166 5.25623 11.8201 5.02308 11.6481 4.85117C11.4762 4.67926 11.2431 4.58268 11 4.58268C10.7568 4.58268 10.5237 4.67926 10.3518 4.85117C10.1799 5.02308 10.0833 5.25623 10.0833 5.49935V6.41602C9.35395 6.41602 8.65448 6.70575 8.13875 7.22147C7.62303 7.7372 7.3333 8.43667 7.3333 9.16602C7.3333 9.89536 7.62303 10.5948 8.13875 11.1106C8.65448 11.6263 9.35395 11.916 10.0833 11.916H11.9166C12.1597 11.916 12.3929 12.0126 12.5648 12.1845C12.7367 12.3564 12.8333 12.5896 12.8333 12.8327C12.8333 13.0758 12.7367 13.309 12.5648 13.4809C12.3929 13.6528 12.1597 13.7493 11.9166 13.7493H8.24996C8.00685 13.7493 7.77369 13.8459 7.60178 14.0178C7.42987 14.1897 7.3333 14.4229 7.3333 14.666C7.3333 14.9091 7.42987 15.1423 7.60178 15.3142C7.77369 15.4861 8.00685 15.5827 8.24996 15.5827H10.0833V16.4993C10.0833 16.7425 10.1799 16.9756 10.3518 17.1475C10.5237 17.3194 10.7568 17.416 11 17.416C11.2431 17.416 11.4762 17.3194 11.6481 17.1475C11.8201 16.9756 11.9166 16.7425 11.9166 16.4993V15.5827C12.646 15.5827 13.3454 15.293 13.8612 14.7772C14.3769 14.2615 14.6666 13.562 14.6666 12.8327C14.6666 12.1033 14.3769 11.4039 13.8612 10.8881C13.3454 10.3724 12.646 10.0827 11.9166 10.0827H10.0833C9.84018 10.0827 9.60702 9.9861 9.43512 9.8142C9.26321 9.64229 9.16663 9.40913 9.16663 9.16602C9.16663 8.9229 9.26321 8.68974 9.43512 8.51783C9.60702 8.34593 9.84018 8.24935 10.0833 8.24935ZM11 0.916016C9.00567 0.916016 7.05616 1.50739 5.39796 2.61536C3.73977 3.72333 2.44736 5.29814 1.68418 7.14062C0.920995 8.98311 0.721311 11.0105 1.11038 12.9665C1.49945 14.9225 2.45979 16.7192 3.86997 18.1293C5.28015 19.5395 7.07683 20.4999 9.0328 20.8889C10.9888 21.278 13.0162 21.0783 14.8587 20.3151C16.7012 19.5519 18.276 18.2595 19.384 16.6013C20.4919 14.9432 21.0833 12.9936 21.0833 10.9993C21.0833 8.32508 20.021 5.76035 18.13 3.86936C16.239 1.97836 13.6742 0.916016 11 0.916016ZM11 19.2493C9.36827 19.2493 7.77321 18.7655 6.41651 17.859C5.0598 16.9525 4.00238 15.664 3.37796 14.1565C2.75353 12.649 2.59016 10.9902 2.90849 9.38985C3.22681 7.78951 4.01255 6.3195 5.16633 5.16572C6.32012 4.01193 7.79013 3.2262 9.39047 2.90787C10.9908 2.58954 12.6496 2.75292 14.1571 3.37734C15.6646 4.00177 16.9531 5.05919 17.8596 6.41589C18.7661 7.7726 19.25 9.36765 19.25 10.9993C19.25 13.1874 18.3808 15.2858 16.8336 16.833C15.2864 18.3802 13.188 19.2493 11 19.2493Z" fill="#60B15A"/>
</svg>
