<svg width="13" height="14" viewBox="0 0 13 14" fill="none" xmlns="http://www.w3.org/2000/svg">
  <path d="M5.9974 13.6666C6.73073 13.6666 7.33073 13.0666 7.33073 12.3333H4.66406C4.66406 13.0666 5.26406 13.6666 5.9974 13.6666ZM5.9974 3.33329C7.6574 3.33329 8.66406 4.67996 8.66406 6.33329V6.39996L9.9974 7.73329V6.33329C9.9974 4.28663 8.91073 2.57329 6.9974 2.11996V1.66663C6.9974 1.11329 6.55073 0.666626 5.9974 0.666626C5.44406 0.666626 4.9974 1.11329 4.9974 1.66663V2.11996C4.8374 2.15996 4.68406 2.21996 4.5374 2.27329L5.63073 3.36663C5.75073 3.35329 5.87073 3.33329 5.9974 3.33329ZM1.60406 1.23329L0.664062 2.17329L2.5374 4.04663C2.19073 4.71329 1.9974 5.49329 1.9974 6.33329V9.66663L0.664062 11V11.6666H10.1574L11.3174 12.8266L12.2574 11.8866L1.60406 1.23329ZM8.66406 10.3333H3.33073V6.33329C3.33073 5.87996 3.41073 5.45329 3.5574 5.06663L8.66406 10.1733V10.3333Z" fill="black" />
</svg>
  