<svg width="54" height="54" viewBox="0 0 54 54" fill="none" xmlns="http://www.w3.org/2000/svg">
<path d="M50.2994 9.50766H35.6662V3.69169C35.6662 3.30694 35.4063 2.97112 35.0342 2.87494C34.6596 2.77791 34.2723 2.94581 34.085 3.28162L33.7095 3.95747L33.3307 3.27994C33.1814 3.01331 32.8995 2.84794 32.5941 2.84794C32.5933 2.84794 32.5924 2.84794 32.5916 2.84794C32.2853 2.84878 32.0035 3.01584 31.855 3.28416L31.4896 3.9465L31.1209 3.28247C30.9724 3.015 30.6898 2.84794 30.3835 2.84794C30.0772 2.84794 29.7945 3.01416 29.646 3.28247L29.274 3.95325L28.901 3.28247C28.7137 2.94666 28.3264 2.77875 27.9518 2.87578C27.5797 2.97197 27.3198 3.30778 27.3198 3.69253V9.5085H13.6713C13.2047 9.5085 12.8276 9.8865 12.8276 10.3523L12.8284 33.7891C12.6529 37.4079 12.3652 40.4319 11.9745 42.8071H3.70073C3.42145 42.8071 3.16073 42.9455 3.0038 43.1758C2.84601 43.4062 2.81311 43.6998 2.91605 43.9597C2.94389 44.0314 5.83458 51.1543 9.16148 51.1543H45.7794C45.7853 51.1552 45.792 51.1543 45.7963 51.1543C45.8022 51.1543 45.8064 51.1518 45.8115 51.1518C46.4493 51.1433 47.0324 50.9003 47.5352 50.4312C48.2423 49.7933 48.8228 48.7488 49.3088 47.2444C50.2361 44.4313 50.8529 39.8742 51.1448 33.6617V10.3514C51.1431 9.88481 50.7659 9.50766 50.2994 9.50766ZM29.0065 6.49041C29.3744 6.61444 29.8182 6.44822 30.0105 6.09975L30.3826 5.43066L30.7539 6.09975C30.9024 6.36806 31.185 6.53428 31.4913 6.53428H31.4922C31.7993 6.53428 32.082 6.36637 32.2305 6.09806L32.5992 5.42981L32.9746 6.10228C33.124 6.36891 33.4058 6.53428 33.7112 6.53428H33.7121C33.804 6.53428 33.8935 6.51909 33.9779 6.49125V10.3523V16.2113C33.8926 16.1826 33.8032 16.1682 33.7112 16.1682C33.405 16.1682 33.1223 16.3344 32.9738 16.6027L32.6017 17.2727L32.2296 16.6027C32.0803 16.3353 31.7985 16.1691 31.4922 16.1691C31.4913 16.1691 31.4913 16.1691 31.4905 16.1691C31.1842 16.1691 30.9015 16.337 30.753 16.6061L30.3852 17.2735L30.0097 16.6019C29.8604 16.3353 29.5785 16.1699 29.2731 16.1699H29.2723C29.1803 16.1699 29.0909 16.1851 29.0065 16.2129V10.3539V6.49041ZM9.16064 49.4651C7.86633 49.4651 6.02611 46.5339 5.01108 44.4929H12.6867H39.7685C40.0723 45.1527 40.6359 46.2968 41.3413 47.4207C41.5117 47.6975 41.6805 47.9523 41.85 48.1978C41.8931 48.2611 41.9361 48.3227 41.9783 48.3834C42.1445 48.618 42.3099 48.8424 42.4736 49.0466C42.4913 49.0686 42.509 49.088 42.5267 49.1091C42.6263 49.2323 42.7259 49.3529 42.8254 49.4643H9.16064V49.4651ZM47.7023 46.7196C47.2197 48.2172 46.7295 48.8829 46.3928 49.1858C46.1253 49.4364 45.9144 49.4651 45.7785 49.4651C45.0301 49.4651 43.908 48.3699 42.7731 46.5297C41.7707 44.9317 41.1109 43.3606 41.1075 43.3538C41.1025 43.3412 41.0932 43.3319 41.089 43.3193C41.0839 43.3074 41.0755 43.2982 41.0713 43.2863C41.0341 43.2104 40.9886 43.1421 40.9329 43.0813C40.9084 43.0543 40.8823 43.0315 40.8553 43.0088C40.8114 42.9725 40.7667 42.9421 40.716 42.9151C40.6747 42.8915 40.635 42.8687 40.5895 42.8527C40.5524 42.84 40.5127 42.8366 40.4739 42.829C40.419 42.8181 40.3684 42.7961 40.3102 42.7961C40.2942 42.7961 40.2815 42.8046 40.2655 42.8054H13.6865C14.0679 40.4007 14.3396 37.4594 14.5151 33.8279V33.8237C14.5151 33.8212 14.5168 33.8186 14.5168 33.8153C14.5218 33.7621 14.5252 33.7081 14.5252 33.6583C14.5252 33.6406 14.5159 33.6263 14.5151 33.6094V11.1952H27.319V19.0091C27.319 19.3939 27.5789 19.7297 27.951 19.8259C28.3256 19.9246 28.7129 19.7558 28.9002 19.4192L29.2756 18.7433L29.6545 19.4209C29.8038 19.6875 30.0856 19.8529 30.3911 19.8529C30.3919 19.8529 30.3928 19.8529 30.3936 19.8529C30.6999 19.852 30.9817 19.685 31.1302 19.4158L31.4955 18.7535L31.8651 19.4192C32.0145 19.6867 32.2963 19.8529 32.6025 19.8529C32.9088 19.8529 33.1915 19.6867 33.34 19.4183L33.7121 18.7484L34.0842 19.4183C34.1272 19.4951 34.182 19.5601 34.2428 19.6183C34.2647 19.6394 34.29 19.6546 34.3137 19.6732C34.3559 19.7061 34.3997 19.7348 34.4461 19.7584C34.4774 19.7744 34.5086 19.7871 34.5415 19.798C34.5896 19.8149 34.6368 19.8259 34.6875 19.8343C34.7204 19.8394 34.7516 19.8461 34.7853 19.847C34.798 19.8478 34.8081 19.852 34.8208 19.852C34.8908 19.852 34.9617 19.8436 35.0325 19.825C35.4046 19.7288 35.6645 19.393 35.6645 19.0083V11.1943H49.4539L49.4548 33.6195C49.173 39.6405 48.584 44.0457 47.7023 46.7196Z" fill="#60B15A"/>
<path d="M43.6439 22.3594C42.6677 22.3594 42.126 22.7062 41.7302 22.9584C41.4046 23.1668 41.208 23.2926 40.7253 23.2926C40.2427 23.2926 40.0453 23.1668 39.7213 22.9584C39.3256 22.7062 38.7839 22.3594 37.8076 22.3594C36.8314 22.3594 36.2906 22.7062 35.8957 22.9584C35.5709 23.1668 35.3751 23.2917 34.8933 23.2917C34.4116 23.2917 34.2158 23.1668 33.891 22.9584C33.4961 22.7053 32.9552 22.3594 31.9799 22.3594C31.0045 22.3594 30.4636 22.7062 30.0688 22.9593C29.7439 23.1668 29.549 23.2926 29.0672 23.2926C28.588 23.2926 28.3922 23.1677 28.0682 22.9593C27.6734 22.7062 27.1325 22.3594 26.1571 22.3594C25.1818 22.3594 24.6409 22.7062 24.2461 22.9593C23.9212 23.1668 23.7263 23.2926 23.2445 23.2926C22.7627 23.2926 22.567 23.1677 22.2421 22.9593C21.8473 22.7062 21.3064 22.3602 20.3311 22.3602C19.8645 22.3602 19.4873 22.7382 19.4873 23.204C19.4873 23.6697 19.8645 24.0477 20.3311 24.0477C20.812 24.0477 21.0077 24.1726 21.3326 24.381C21.7275 24.6341 22.2683 24.9809 23.2445 24.9809C24.2191 24.9809 24.7607 24.6341 25.1556 24.381C25.4805 24.1734 25.6754 24.0477 26.1571 24.0477C26.6372 24.0477 26.833 24.1726 27.157 24.381C27.5519 24.6341 28.0927 24.9809 29.0672 24.9809C30.0418 24.9809 30.5835 24.6341 30.9783 24.381C31.3032 24.1734 31.4981 24.0477 31.9799 24.0477C32.4616 24.0477 32.6566 24.1726 32.9814 24.381C33.3763 24.6341 33.9171 24.9809 34.8933 24.9809C35.8696 24.9809 36.4104 24.6341 36.8053 24.3818C37.1301 24.1734 37.3259 24.0486 37.8076 24.0486C38.2894 24.0486 38.4869 24.1743 38.8109 24.3818C39.2066 24.635 39.7483 24.9809 40.7253 24.9809C41.7024 24.9809 42.2432 24.6341 42.639 24.3818C42.9646 24.1734 43.1612 24.0477 43.6439 24.0477C44.1105 24.0477 44.4876 23.6697 44.4876 23.204C44.4876 22.7382 44.1096 22.3594 43.6439 22.3594ZM43.6439 28.8529C42.6677 28.8529 42.126 29.1997 41.7302 29.4519C41.4046 29.6603 41.208 29.7861 40.7253 29.7861C40.2427 29.7861 40.0453 29.6603 39.7213 29.4519C39.3256 29.1997 38.7839 28.8529 37.8076 28.8529C36.8314 28.8529 36.2906 29.1997 35.8957 29.4519C35.5709 29.6603 35.3751 29.7852 34.8933 29.7852C34.4116 29.7852 34.2158 29.6603 33.891 29.4519C33.4961 29.1988 32.9552 28.8529 31.9799 28.8529C31.0045 28.8529 30.4636 29.1997 30.0688 29.4528C29.7439 29.6603 29.549 29.7861 29.0672 29.7861C28.588 29.7861 28.3922 29.6612 28.0682 29.4528C27.6734 29.1997 27.1325 28.8529 26.1571 28.8529C25.1818 28.8529 24.6409 29.1997 24.2461 29.4528C23.9212 29.6603 23.7263 29.7861 23.2445 29.7861C22.7627 29.7861 22.567 29.6612 22.2421 29.4528C21.8473 29.1997 21.3064 28.8537 20.3311 28.8537C19.8645 28.8537 19.4873 29.2317 19.4873 29.6975C19.4873 30.1632 19.8645 30.5412 20.3311 30.5412C20.812 30.5412 21.0077 30.6661 21.3326 30.8745C21.7275 31.1276 22.2683 31.4744 23.2445 31.4744C24.2191 31.4744 24.7607 31.1276 25.1556 30.8745C25.4805 30.6669 25.6754 30.5412 26.1571 30.5412C26.6372 30.5412 26.833 30.6661 27.157 30.8745C27.5519 31.1276 28.0927 31.4744 29.0672 31.4744C30.0418 31.4744 30.5835 31.1276 30.9783 30.8745C31.3032 30.6669 31.4981 30.5412 31.9799 30.5412C32.4616 30.5412 32.6566 30.6661 32.9814 30.8745C33.3763 31.1276 33.9171 31.4744 34.8933 31.4744C35.8696 31.4744 36.4104 31.1276 36.8053 30.8753C37.1301 30.6669 37.3259 30.5421 37.8076 30.5421C38.2894 30.5421 38.4869 30.6678 38.8109 30.8753C39.2066 31.1285 39.7483 31.4744 40.7253 31.4744C41.7024 31.4744 42.2432 31.1276 42.639 30.8753C42.9646 30.6669 43.1612 30.5412 43.6439 30.5412C44.1105 30.5412 44.4876 30.1632 44.4876 29.6975C44.4876 29.2317 44.1096 28.8529 43.6439 28.8529ZM43.6439 35.181C42.6677 35.181 42.126 35.5278 41.7302 35.7801C41.4046 35.9885 41.208 36.1142 40.7253 36.1142C40.2427 36.1142 40.0453 35.9885 39.7213 35.7801C39.3256 35.5278 38.7839 35.181 37.8076 35.181C36.8314 35.181 36.2906 35.5278 35.8957 35.7801C35.5709 35.9885 35.3751 36.1133 34.8933 36.1133C34.4116 36.1133 34.2158 35.9885 33.891 35.7801C33.4961 35.5269 32.9552 35.181 31.9799 35.181C31.0045 35.181 30.4636 35.5278 30.0688 35.7809C29.7439 35.9885 29.549 36.1142 29.0672 36.1142C28.588 36.1142 28.3922 35.9893 28.0682 35.7809C27.6734 35.5278 27.1325 35.181 26.1571 35.181C25.1818 35.181 24.6409 35.5278 24.2461 35.7809C23.9212 35.9885 23.7263 36.1142 23.2445 36.1142C22.7627 36.1142 22.567 35.9893 22.2421 35.7809C21.8473 35.5278 21.3064 35.1818 20.3311 35.1818C19.8645 35.1818 19.4873 35.5598 19.4873 36.0256C19.4873 36.4913 19.8645 36.8693 20.3311 36.8693C20.812 36.8693 21.0077 36.9942 21.3326 37.2026C21.7275 37.4557 22.2683 37.8025 23.2445 37.8025C24.2191 37.8025 24.7607 37.4557 25.1556 37.2026C25.4805 36.9951 25.6754 36.8693 26.1571 36.8693C26.6372 36.8693 26.833 36.9942 27.157 37.2026C27.5519 37.4557 28.0927 37.8025 29.0672 37.8025C30.0418 37.8025 30.5835 37.4557 30.9783 37.2026C31.3032 36.9951 31.4981 36.8693 31.9799 36.8693C32.4616 36.8693 32.6566 36.9942 32.9814 37.2026C33.3763 37.4557 33.9171 37.8025 34.8933 37.8025C35.8696 37.8025 36.4104 37.4558 36.8053 37.2035C37.1301 36.9951 37.3259 36.8702 37.8076 36.8702C38.2894 36.8702 38.4869 36.9959 38.8109 37.2035C39.2066 37.4566 39.7483 37.8025 40.7253 37.8025C41.7024 37.8025 42.2432 37.4558 42.639 37.2035C42.9646 36.9951 43.1612 36.8693 43.6439 36.8693C44.1105 36.8693 44.4876 36.4913 44.4876 36.0256C44.4876 35.5598 44.1096 35.181 43.6439 35.181Z" fill="#60B15A"/>
</svg>
