<svg width="14" height="17" viewBox="0 0 14 17" fill="none" xmlns="http://www.w3.org/2000/svg">
    <path fill-rule="evenodd" clip-rule="evenodd" d="M2 7.5V5.5C2 4.17392 2.52678 2.90215 3.46447 1.96447C4.40215 1.02678 5.67392 0.5 7 0.5C8.32608 0.5 9.59785 1.02678 10.5355 1.96447C11.4732 2.90215 12 4.17392 12 5.5V7.5C12.5304 7.5 13.0391 7.71071 13.4142 8.08579C13.7893 8.46086 14 8.96957 14 9.5V14.5C14 15.0304 13.7893 15.5391 13.4142 15.9142C13.0391 16.2893 12.5304 16.5 12 16.5H2C1.46957 16.5 0.960859 16.2893 0.585786 15.9142C0.210714 15.5391 0 15.0304 0 14.5V9.5C0 8.96957 0.210714 8.46086 0.585786 8.08579C0.960859 7.71071 1.46957 7.5 2 7.5V7.5ZM10 5.5V7.5H4V5.5C4 4.70435 4.31607 3.94129 4.87868 3.37868C5.44129 2.81607 6.20435 2.5 7 2.5C7.79565 2.5 8.55871 2.81607 9.12132 3.37868C9.68393 3.94129 10 4.70435 10 5.5V5.5Z" fill="#E4AF5E" />
</svg>
    