<svg width="24" height="24" viewBox="0 0 24 24" fill="none" xmlns="http://www.w3.org/2000/svg">
<path fill-rule="evenodd" clip-rule="evenodd" d="M8.5 12C10.4338 12 12 10.4338 12 8.5C12 6.56625 10.4338 5 8.5 5C6.56625 5 5 6.56625 5 8.5C5 10.4338 6.56625 12 8.5 12ZM11 8.5C11 9.88145 9.88145 11 8.5 11C7.11855 11 6 9.88145 6 8.5C6 7.11855 7.11855 6 8.5 6C9.88145 6 11 7.11855 11 8.5ZM2 19V16.2C2 14.072 6.3306 13 8.5 13C9.9431 13 12.3426 13.4743 13.7874 14.4184C14.8173 14.1399 15.9468 14 16.75 14C17.679 14 18.9255 14.1871 19.9546 14.5653C20.4682 14.7542 20.9594 15.002 21.3311 15.3231C21.7054 15.6465 22 16.0838 22 16.6334V19H2ZM3 16.2C3 16.0413 3.07278 15.8243 3.38309 15.5423C3.69954 15.2548 4.18661 14.9756 4.80341 14.7323C6.038 14.2453 7.5383 14 8.5 14C9.4617 14 10.962 14.2453 12.1966 14.7323C12.8134 14.9756 13.3005 15.2548 13.6169 15.5423C13.9272 15.8243 14 16.0413 14 16.2V18H3V16.2ZM14.6766 15.2346C15.4329 15.0782 16.1917 15 16.75 15C17.5732 15 18.7017 15.1702 19.6096 15.504C20.0644 15.6712 20.4321 15.868 20.6773 16.0798C20.9199 16.2894 21 16.4735 21 16.6334V18H15V16.2C15 15.8496 14.8826 15.5277 14.6766 15.2346ZM19.5 10.25C19.5 11.7694 18.2694 13 16.75 13C15.2306 13 14 11.7694 14 10.25C14 8.7306 15.2306 7.5 16.75 7.5C18.2694 7.5 19.5 8.7306 19.5 10.25ZM16.75 12C17.7171 12 18.5 11.2171 18.5 10.25C18.5 9.2829 17.7171 8.5 16.75 8.5C15.7829 8.5 15 9.2829 15 10.25C15 11.2171 15.7829 12 16.75 12Z" fill="#60B15A"/>
</svg>
