<svg width="19" height="19" viewBox="0 0 19 19" fill="none" xmlns="http://www.w3.org/2000/svg">
<path d="M9.47338 10.5699C12.1734 10.5699 14.3387 8.37785 14.3387 5.70458C14.3387 3.03131 12.1734 0.8125 9.47338 0.8125C6.77338 0.8125 4.60804 3.00458 4.60804 5.67785C4.60804 8.35111 6.77338 10.5699 9.47338 10.5699V10.5699ZM9.47338 2.09567C11.4516 2.09567 13.0556 3.69963 13.0556 5.67785C13.0556 7.65606 11.4516 9.26002 9.47338 9.26002C7.49517 9.26002 5.89121 7.6828 5.89121 5.70458C5.89121 3.72636 7.49517 2.09567 9.47338 2.09567V2.09567ZM1.02586 18.1887H17.9744C18.3219 18.1887 18.616 17.8947 18.616 17.5472C18.616 14.1788 15.8625 11.4254 12.4942 11.4254H6.50606C3.13774 11.4254 0.384277 14.1788 0.384277 17.5472C0.384277 17.8947 0.678337 18.1887 1.02586 18.1887V18.1887ZM6.50606 12.7085H12.4942C14.9536 12.7085 16.9585 14.5264 17.2793 16.9056H1.72091C2.0417 14.5264 4.04665 12.7085 6.50606 12.7085Z" fill="#60B15A"/>
</svg>
