<svg width="18" height="18" viewBox="0 0 18 18" fill="none" xmlns="http://www.w3.org/2000/svg">
<path d="M9 0C13.9706 0 18 4.02944 18 9C18 13.9706 13.9706 18 9 18C4.02944 18 0 13.9706 0 9C0 4.02944 4.02944 0 9 0ZM9 1.5C4.85786 1.5 1.5 4.85786 1.5 9C1.5 13.1421 4.85786 16.5 9 16.5C13.1421 16.5 16.5 13.1421 16.5 9C16.5 4.85786 13.1421 1.5 9 1.5ZM9 12.75C9.62132 12.75 10.125 13.2537 10.125 13.875C10.125 14.4963 9.62132 15 9 15C8.37868 15 7.875 14.4963 7.875 13.875C7.875 13.2537 8.37868 12.75 9 12.75ZM9 3.75C10.6569 3.75 12 5.09315 12 6.75C12 7.8458 11.6823 8.45954 10.8691 9.31186L10.4729 9.71618C9.90676 10.3065 9.75 10.6247 9.75 11.25C9.75 11.6642 9.41421 12 9 12C8.58579 12 8.25 11.6642 8.25 11.25C8.25 10.1542 8.56767 9.54046 9.38093 8.68814L9.77706 8.28382C10.3432 7.69347 10.5 7.37535 10.5 6.75C10.5 5.92157 9.82843 5.25 9 5.25C8.17157 5.25 7.5 5.92157 7.5 6.75C7.5 7.16421 7.16421 7.5 6.75 7.5C6.33579 7.5 6 7.16421 6 6.75C6 5.09315 7.34315 3.75 9 3.75Z" fill="#60B15A"/>
</svg>
