<svg width="17" height="11" viewBox="0 0 17 11" fill="none" xmlns="http://www.w3.org/2000/svg">
  <path d="M9.8547 8.43024C9.80161 8.3653 9.72786 8.3328 9.63353 8.3328H4.53339V4.93272H6.23329C6.38674 4.93272 6.51963 4.87662 6.6317 4.76445C6.74384 4.65231 6.79991 4.51952 6.79991 4.36595C6.79991 4.22437 6.75554 4.10327 6.66709 4.00298L3.83385 0.602929C3.72168 0.473174 3.57707 0.408203 3.39999 0.408203C3.22285 0.408203 3.0783 0.473081 2.96619 0.602929L0.132887 4.00298C0.0441923 4.10327 0 4.22437 0 4.36595C0 4.51952 0.056163 4.65231 0.16821 4.76445C0.280381 4.87662 0.413268 4.93272 0.566716 4.93272H2.26674V8.61619V10.0328V10.1301V10.2453C2.26674 10.2631 2.26966 10.2971 2.27555 10.3473C2.28147 10.3975 2.2904 10.4314 2.30219 10.449C2.31391 10.4669 2.33019 10.4904 2.35085 10.5199C2.37138 10.5494 2.39802 10.5702 2.43039 10.5819C2.46286 10.5936 2.50277 10.5995 2.55004 10.5995H11.0501C11.1267 10.5995 11.1932 10.5715 11.2492 10.5154C11.3052 10.4594 11.3332 10.393 11.3332 10.3163C11.3332 10.2571 11.3127 10.1954 11.2714 10.1302L9.8547 8.43024Z" fill="#27AE60" />
  <path d="M16.832 6.23546C16.7199 6.1235 16.587 6.06725 16.4335 6.06725H14.7336V2.3839V0.967169V0.869791V0.754705C14.7336 0.736966 14.7306 0.703069 14.7246 0.652768C14.7187 0.602559 14.7098 0.568663 14.6981 0.550924C14.6864 0.533216 14.6701 0.509553 14.6494 0.480092C14.6288 0.450661 14.6022 0.429945 14.5697 0.418099C14.5373 0.406376 14.4976 0.400391 14.4502 0.400391H5.95016C5.87344 0.400391 5.80717 0.428457 5.75097 0.484496C5.695 0.540597 5.66699 0.607025 5.66699 0.683687C5.66699 0.748595 5.68752 0.807611 5.72892 0.860766L7.14553 2.56079C7.19865 2.63162 7.27246 2.66704 7.36686 2.66704H12.4669V6.06703H10.7669C10.6135 6.06703 10.4806 6.12316 10.3685 6.23511C10.2564 6.34741 10.2002 6.48039 10.2002 6.63375C10.2002 6.77541 10.2446 6.89629 10.3332 6.9968L13.1665 10.3967C13.2845 10.5326 13.4291 10.6004 13.6003 10.6004C13.7713 10.6004 13.9159 10.5326 14.034 10.3967L16.8673 6.9968C16.9557 6.89629 17.0001 6.77541 17.0001 6.63375C17.0003 6.48048 16.944 6.34763 16.832 6.23546Z" fill="#27AE60" />
</svg>
  