<svg width="54" height="54" viewBox="0 0 54 54" fill="none" xmlns="http://www.w3.org/2000/svg">
<path d="M27.0117 40.8962L27.0117 40.8965L27.0117 40.8962ZM45.4988 45.9188C42.9757 42.7537 41.0442 39.1595 39.7969 35.3088C38.7665 32.6126 36.8174 30.3668 34.2931 28.967L33.7594 26.9696C33.6982 26.7573 33.5562 26.5773 33.3638 26.4685C33.1714 26.3598 32.944 26.3308 32.7305 26.3879C32.517 26.4449 32.3344 26.5835 32.2219 26.7737C32.1095 26.964 32.0762 27.1908 32.1291 27.4054L32.2992 28.0419C30.27 27.333 28.1298 26.9951 25.9809 27.0442C25.4344 27.0548 24.8995 27.203 24.4255 27.4751C23.9515 27.7472 23.5538 28.1345 23.2692 28.6011L19.3117 35.1906C19.1846 35.406 19.1014 35.6443 19.0669 35.892C19.0323 36.1396 19.0471 36.3916 19.1104 36.6335C19.1737 36.8754 19.2842 37.1024 19.4356 37.3014C19.5869 37.5004 19.7762 37.6675 19.9924 37.793C22.6222 39.2145 25.453 37.5785 27.6181 35.4357C28.4763 35.2974 29.0673 35.8223 29.7155 36.675C29.8257 38.6905 30.5263 40.6291 31.73 42.2494L25.2492 43.9868C25.8938 43.8076 26.4411 43.3805 26.7714 42.7988C27.1018 42.2171 27.1884 41.5282 27.0122 40.8829C26.8361 40.2376 26.4115 39.6882 25.8314 39.3551C25.2512 39.022 24.5628 38.9322 23.9166 39.1053C23.2705 39.2784 22.7192 39.7004 22.3833 40.2789C22.0474 40.8575 21.9544 41.5455 22.1244 42.1924C22.2945 42.8394 22.7139 43.3927 23.2908 43.7313C23.8678 44.0699 24.5553 44.1662 25.2031 43.9992L17.3697 46.0993L15.4463 46.6137C15.3395 46.6437 15.2277 46.6521 15.1176 46.6384C15.0076 46.6248 14.9013 46.5893 14.805 46.5342C14.7088 46.479 14.6245 46.4052 14.5571 46.3171C14.4896 46.229 14.4404 46.1283 14.4123 46.021L4.80189 10.1616C4.77223 10.0546 4.76415 9.94273 4.7781 9.83254C4.79206 9.72235 4.82778 9.61604 4.88319 9.51977C4.93859 9.42351 5.01258 9.33922 5.10086 9.27181C5.18913 9.20439 5.28992 9.1552 5.39737 9.12708L24.9529 3.88806C25.0598 3.85812 25.1715 3.84976 25.2816 3.86346C25.3918 3.87717 25.498 3.91267 25.5943 3.96789C25.6905 4.02311 25.7748 4.09695 25.8422 4.18509C25.9096 4.27323 25.9588 4.37392 25.9869 4.48127L30.3828 20.8837C30.4435 21.0968 30.5855 21.2776 30.7782 21.3869C30.971 21.4962 31.1989 21.5253 31.413 21.4679C31.627 21.4106 31.8099 21.2714 31.9221 21.0803C32.0343 20.8893 32.0669 20.6617 32.0129 20.4469L27.6169 4.04445C27.5312 3.72299 27.3827 3.42165 27.1802 3.15774C26.9776 2.89382 26.7249 2.67254 26.4365 2.5066C26.1481 2.34066 25.8298 2.23334 25.4999 2.19079C25.1699 2.14825 24.8348 2.17133 24.5137 2.2587L4.95836 7.49769C4.6373 7.5841 4.3364 7.73293 4.07288 7.93567C3.80935 8.1384 3.58836 8.39108 3.42251 8.67926C3.25667 8.96743 3.14924 9.28546 3.10635 9.61518C3.06346 9.94489 3.08596 10.2798 3.17255 10.6008L12.7823 46.4578C12.8681 46.7792 13.0165 47.0805 13.219 47.3444C13.4216 47.6083 13.6742 47.8295 13.9626 47.9954C14.2509 48.1613 14.5691 48.2686 14.899 48.3111C15.229 48.3537 15.564 48.3306 15.885 48.2432L17.4101 47.8353L23.2918 52.2468C23.4256 52.3476 23.5865 52.4059 23.7538 52.4144C28.2303 52.605 36.1195 52.2456 41.2261 50.0201C42.437 49.4895 46.6844 47.3231 45.4988 45.9188ZM24.5659 42.3957C24.4085 42.3956 24.2543 42.3513 24.1207 42.2681C23.9871 42.1849 23.8794 42.0659 23.8099 41.9247C23.7403 41.7834 23.7117 41.6256 23.7272 41.4689C23.7427 41.3123 23.8017 41.1631 23.8976 41.0382C23.9934 40.9134 24.1223 40.8178 24.2696 40.7623C24.4169 40.7069 24.5768 40.6937 24.7312 40.7244C24.8856 40.7551 25.0284 40.8283 25.1433 40.9359C25.2583 41.0434 25.3408 41.181 25.3817 41.333C25.4151 41.4581 25.4193 41.5892 25.394 41.7162C25.3686 41.8432 25.3145 41.9626 25.2356 42.0654C25.1568 42.1681 25.0554 42.2513 24.9392 42.3086C24.8231 42.3659 24.6954 42.3957 24.5659 42.3957ZM38.1776 35.7827L38.1774 35.7828L38.1776 35.7827ZM40.5601 48.4695C35.8008 50.5033 28.8376 50.8862 24.095 50.7398L19.4822 47.2801L33.1368 43.6192C33.8707 44.0778 35.8138 45.6254 36.4118 44.2427C36.4466 44.1375 36.4602 44.0264 36.4521 43.9159C36.4439 43.8054 36.4141 43.6976 36.3643 43.5986C36.3144 43.4996 36.2456 43.4115 36.1617 43.3391C36.0778 43.2667 35.9804 43.2116 35.8752 43.1768C34.8386 42.8003 33.9136 42.1686 33.1855 41.3402C32.4575 40.5118 31.9499 39.5132 31.7097 38.4369C31.5242 37.768 31.4175 37.0798 31.3919 36.3862C30.838 34.4477 28.0897 32.9888 26.5765 34.1001C24.7558 35.8161 22.903 37.2953 20.8128 36.3199C20.7323 36.2867 20.7163 36.1399 20.7605 36.0558L24.7155 29.4696C25.5666 28.2236 27.3699 28.8572 28.6338 28.8836C32.7371 29.2467 37.0117 32.2099 38.1775 35.7832C39.4052 39.6355 41.2973 43.2435 43.7681 46.4439C42.8267 47.3031 41.7406 47.9889 40.5601 48.4695H40.5601ZM50.4965 1.90357C50.3557 1.82261 50.1945 1.78391 50.0322 1.79209C49.87 1.80027 49.7135 1.85499 49.5815 1.94971L34.5674 12.7668C34.4545 12.8502 34.364 12.9602 34.304 13.087C34.2439 13.2138 34.2162 13.3535 34.2232 13.4936C34.2303 13.6338 34.2719 13.77 34.3444 13.8901C34.417 14.0103 34.5181 14.1106 34.6388 14.1821L39.7536 17.1353C39.9474 17.2471 40.1777 17.2775 40.3938 17.2195C40.61 17.1616 40.7943 17.0202 40.9061 16.8264L42.5936 13.9038C42.7079 13.7147 42.8917 13.5778 43.1057 13.5228C43.3197 13.4677 43.5468 13.4987 43.7382 13.6092C43.9295 13.7197 44.0699 13.9008 44.1292 14.1137C44.1885 14.3266 44.1619 14.5542 44.0552 14.7477L42.3678 17.6702C42.2575 17.8643 42.228 18.0941 42.2858 18.3098C42.3436 18.5255 42.484 18.7097 42.6766 18.8227L47.7914 21.7759C47.9134 21.8463 48.0512 21.8851 48.192 21.8886C48.3329 21.8922 48.4724 21.8604 48.5978 21.7962C48.7233 21.732 48.8306 21.6373 48.9101 21.521C48.9895 21.4046 49.0386 21.2702 49.0528 21.13L50.9142 2.71915C50.9302 2.55746 50.8993 2.39458 50.8253 2.24996C50.7512 2.10534 50.6371 1.98509 50.4965 1.90357ZM47.5051 19.662L44.2511 17.7832L45.5167 15.5913C45.8434 15.0104 45.9279 14.3241 45.7518 13.6813C45.5757 13.0386 45.1532 12.4912 44.576 12.1579C43.9988 11.8247 43.3135 11.7325 42.6688 11.9014C42.0241 12.0703 41.472 12.4866 41.1323 13.06L39.8666 15.252L36.6126 13.3732L49.0466 4.41485L47.5051 19.662Z" fill="#60B15A"/>
<path d="M17.3917 22.1137C17.1881 22.0277 16.959 22.0249 16.7534 22.106C16.5479 22.1871 16.3823 22.3456 16.2924 22.5474C16.2024 22.7492 16.1952 22.9782 16.2722 23.1853C16.3493 23.3924 16.5045 23.561 16.7045 23.6549C17.2281 23.8027 18.9805 25.0017 19.4107 23.7934C19.8213 22.6235 17.8704 22.4535 17.3917 22.1137ZM22.0316 23.5761C21.814 23.5376 21.59 23.586 21.4077 23.7109C21.2254 23.8357 21.0993 24.0271 21.0566 24.2439C21.0138 24.4607 21.0578 24.6856 21.1791 24.8703C21.3004 25.055 21.4892 25.1848 21.7052 25.2317C22.5145 25.2975 24.1358 26.033 24.3726 24.7691C24.4524 23.5288 22.7958 23.8366 22.0316 23.5761ZM36.939 22.6724C37.6648 22.124 39.2563 21.6423 38.6011 20.5312C37.7977 19.5753 36.8871 20.8609 36.0709 21.2253C35.8836 21.3426 35.7498 21.5288 35.6983 21.7437C35.6467 21.9586 35.6816 22.1851 35.7953 22.3746C35.9089 22.5641 36.0924 22.7015 36.3063 22.7571C36.5202 22.8128 36.7473 22.7824 36.939 22.6724ZM31.077 24.2288C31.3052 24.9939 32.1345 24.869 32.7155 24.611C33.4202 24.3677 34.6201 24.1269 34.266 23.1298C33.8662 22.1842 32.8774 22.7871 32.1858 23.009C31.5776 23.1362 30.8523 23.484 31.077 24.2288ZM41.2658 18.065C41.1686 17.9766 41.0533 17.9104 40.9279 17.8712C40.8024 17.8319 40.6699 17.8206 40.5397 17.838C40.4094 17.8553 40.2845 17.901 40.1737 17.9717C40.0629 18.0424 39.9689 18.1365 39.8983 18.2473C39.7443 18.4057 39.6585 18.6183 39.6595 18.8393C39.6604 19.0603 39.7481 19.2721 39.9035 19.4292C40.0589 19.5863 40.2698 19.6761 40.4908 19.6794C40.7117 19.6827 40.9252 19.5992 41.0852 19.4468C41.1979 19.3759 41.2934 19.281 41.3652 19.1689C41.4369 19.0568 41.4831 18.9303 41.5003 18.7984C41.5175 18.6664 41.5055 18.5323 41.4649 18.4055C41.4244 18.2788 41.3564 18.1625 41.2658 18.065ZM26.8714 23.9654C26.7607 23.9697 26.6519 23.9957 26.5512 24.042C26.4505 24.0882 26.36 24.1539 26.2847 24.2352C26.2094 24.3165 26.1508 24.4118 26.1124 24.5157C26.0739 24.6197 26.0563 24.7301 26.0606 24.8409C26.2176 26.1214 27.8012 25.5232 28.6872 25.5123C28.9093 25.4853 29.1117 25.3711 29.2496 25.1949C29.3876 25.0188 29.45 24.795 29.423 24.5728C29.1997 23.3508 27.6938 24.0422 26.8714 23.9654Z" fill="#60B15A"/>
</svg>
