<svg width="13" height="13" viewBox="0 0 13 13" fill="none" xmlns="http://www.w3.org/2000/svg">
  <path d="M6.5 13C7.21715 13 7.80391 12.4 7.80391 11.6667H5.19609C5.19609 12.4 5.78285 13 6.5 13ZM10.4117 9V5.66667C10.4117 3.62 9.34905 1.90667 7.47793 1.45333V1C7.47793 0.446667 7.04112 0 6.5 0C5.95888 0 5.52207 0.446667 5.52207 1V1.45333C3.65747 1.90667 2.58826 3.61333 2.58826 5.66667V9L1.28435 10.3333V11H11.7156V10.3333L10.4117 9ZM9.10782 9.66667H3.89218V5.66667C3.89218 4.01333 4.87663 2.66667 6.5 2.66667C8.12337 2.66667 9.10782 4.01333 9.10782 5.66667V9.66667ZM3.61836 1.05333L2.68606 0.1C1.12136 1.32 0.0912738 3.2 0 5.33333H1.30391C1.40171 3.56667 2.28837 2.02 3.61836 1.05333ZM11.6961 5.33333H13C12.9022 3.2 11.8721 1.32 10.3139 0.1L9.38817 1.05333C10.7051 2.02 11.5983 3.56667 11.6961 5.33333Z" fill="black" />
</svg>
  