<?xml version="1.0" encoding="UTF-8"?>
<!-- Generator: Adobe Illustrator 26.0.3, SVG Export Plug-In . SVG Version: 6.00 Build 0)  -->
<svg xmlns="http://www.w3.org/2000/svg" xmlns:xlink="http://www.w3.org/1999/xlink" version="1.1" id="Capa_1" x="0px" y="0px" viewBox="0 0 512.002 512.002" style="enable-background:new 0 0 512.002 512.002;" xml:space="preserve" >
<g>
	<g>
		<path d="M256.002,511.751C28.765,511.523-85.537,235.555,74.985,74.731c95.288-99.301,266.749-99.317,362.036,0.004    C597.54,235.575,483.226,511.536,256.002,511.751z M256.002,21.751c-129.028,0-234,104.972-234,234    c12.854,310.433,455.194,310.343,468-0.002C490.002,126.723,385.03,21.751,256.002,21.751z"/>
	</g>
	<g>
		<path d="M255.939,355.819c29.495,0,56.832,16.507,71.344,43.079c6.484,13.119-11.828,23.052-19.308,10.545    c-10.654-19.507-30.593-31.624-52.037-31.624s-41.383,12.117-52.037,31.624c-7.479,12.507-25.792,2.574-19.308-10.545    C199.107,372.326,226.444,355.819,255.939,355.819z"/>
	</g>
	<g>
		<path style="fill:#33CCCC;" d="M95.621,347.708c-6.075,0-11-4.925-11-11v-39.57c0-6.075,4.925-11,11-11s11,4.925,11,11v39.57    C106.621,342.784,101.697,347.708,95.621,347.708z"/>
	</g>
	<g>
		<path style="fill:#33CCCC;" d="M398.1,377.219c-6.075,0-11-4.925-11-11v-57.712c0-6.075,4.925-11,11-11s11,4.925,11,11v57.712    C409.1,372.294,404.175,377.219,398.1,377.219z"/>
	</g>
	<g>
		<path d="M348.749,128.891c-26.323,0-49.872-18.658-55.057-45.443c-2.205-14.425,18.251-18.405,21.599-4.182    c3.574,18.46,21.502,30.581,39.961,26.997c14.419-2.209,18.405,18.252,4.182,21.6    C355.848,128.556,352.272,128.891,348.749,128.891z"/>
	</g>
	<g>
		<path d="M173.575,128.891c26.323,0,49.872-18.658,55.057-45.443c2.205-14.425-18.251-18.405-21.599-4.182    c-3.574,18.46-21.502,30.581-39.961,26.997c-14.419-2.209-18.405,18.252-4.182,21.6    C166.476,128.556,170.052,128.891,173.575,128.891z"/>
	</g>
	<path d="M64.719,246.632c0,20.682,7.499,39.638,19.903,54.322v-3.816c0-6.075,4.925-11,11-11c2.786,0,5.323,1.044,7.261,2.752   c-9.24-10.161-15.418-24.245-16.164-42.258c0-1.763,0.075-3.509,0.221-5.235c7.809,10.469,20.287,17.26,34.322,17.26   c23.599,0,42.798-19.199,42.798-42.798c-0.574-13.914-5.875-24.409-13.577-31.503c33.689,0.777,60.86,28.403,60.86,62.275   c-2.632,63.778-73.376,78.336-107.113,43.67c1.493,1.878,2.391,4.25,2.391,6.836v22.318c12.469,7.289,26.954,11.489,42.41,11.489   c46.49,0,84.312-37.822,84.312-84.312C228.729,134.813,69.35,134.781,64.719,246.632z M100.463,215.86   c0-11.469,9.33-20.799,20.798-20.799c11.468,0,20.798,9.33,20.798,20.799C140.921,243.443,101.606,243.451,100.463,215.86z"/>
	<path d="M442.84,246.633c-4.614-111.82-163.994-111.852-168.625,0c0,46.49,37.822,84.312,84.312,84.312   c10.026,0,19.645-1.767,28.572-4.993v-17.444c0-6.075,4.925-11,11-11s11,4.925,11,11v5.541   C429.573,298.651,442.84,274.164,442.84,246.633z M331.243,195.061c11.468,0,20.798,9.33,20.798,20.799   c-1.139,27.584-40.454,27.591-41.596,0C310.444,204.391,319.774,195.061,331.243,195.061z M296.215,246.632   c0-1.966,0.105-3.906,0.284-5.826c7.777,10.8,20.448,17.851,34.743,17.851c23.599,0,42.798-19.199,42.798-42.798   c-0.574-13.906-5.869-24.397-13.563-31.491c33.458,1.036,60.362,28.557,60.362,62.262   C417.43,329.274,299.638,329.298,296.215,246.632z"/>
</g>















</svg>
