<?xml version="1.0" encoding="UTF-8"?>
<!-- Generator: Adobe Illustrator 24.2.3, SVG Export Plug-In . SVG Version: 6.00 Build 0)  -->
<svg xmlns="http://www.w3.org/2000/svg" xmlns:xlink="http://www.w3.org/1999/xlink" version="1.1" id="Capa_1" x="0px" y="0px" viewBox="0 0 512 512" style="enable-background:new 0 0 200 200;" xml:space="preserve" >
<g>
	<g>
		<path d="M404.946,119.716l16.823-23.533l13.608,9.438c1.912,1.326,4.096,1.962,6.259,1.962c3.484,0,6.913-1.652,9.049-4.732    c3.462-4.992,2.222-11.846-2.771-15.308l-45.11-31.284c-4.991-3.461-11.845-2.221-15.308,2.771    c-3.462,4.992-2.222,11.846,2.771,15.308l13.421,9.308l-15.908,22.253C353.523,80.972,311.982,65.482,267,63.301V22h41.807    c6.075,0,11-4.925,11-11s-4.925-11-11-11H203.193c-6.075,0-11,4.925-11,11s4.925,11,11,11H245v41.301    C126.308,69.057,31.514,167.421,31.514,287.514C31.514,411.296,132.218,512,256,512s224.486-100.704,224.486-224.486    C480.486,220.837,451.254,160.867,404.946,119.716z M256,490c-111.651,0-202.486-90.835-202.486-202.486    S144.349,85.029,256,85.029s202.486,90.834,202.486,202.485S367.651,490,256,490z"/>
		<path d="M256,406.639c-6.075,0-11,4.925-11,11v23.382c0,6.075,4.925,11,11,11s11-4.925,11-11v-23.382    C267,411.564,262.075,406.639,256,406.639z"/>
		<path d="M125.875,276.515h-23.382c-6.075,0-11,4.925-11,11s4.925,11,11,11h23.382c6.075,0,11-4.925,11-11    S131.951,276.515,125.875,276.515z"/>
		<path d="M156.21,371.748l-16.533,16.533c-4.296,4.296-4.296,11.261,0,15.556c4.296,4.296,11.261,4.296,15.556,0l16.533-16.533    c4.296-4.296,4.296-11.261,0-15.556C167.47,367.453,160.506,367.453,156.21,371.748z"/>
		<path d="M355.79,371.748l16.533,16.533c4.296,4.296,4.296,11.261,0,15.556c-4.296,4.296-11.261,4.296-15.556,0l-16.533-16.533    c-4.296-4.296-4.296-11.261,0-15.556C344.53,367.453,351.494,367.453,355.79,371.748z"/>
		<path d="M156.21,203.281l-16.533-16.533c-4.296-4.296-4.296-11.261,0-15.556c4.296-4.296,11.261-4.296,15.556,0l16.533,16.533    c4.296,4.296,4.296,11.261,0,15.556C167.47,207.576,160.506,207.576,156.21,203.281z"/>
	</g>
	<g>
		<path style="fill:#33CCCC;" d="M410.523,298.515H256c-6.075,0-11-4.925-11-11V132.992c0-6.075,4.925-11,11-11    c91.27,0,165.523,74.253,165.523,165.523C421.523,293.59,416.598,298.515,410.523,298.515z M267,276.515h132.105    C393.747,206.125,337.39,149.768,267,144.409V276.515z"/>
	</g>
</g>















</svg>
