<svg width="22" height="20" viewBox="0 0 22 20" fill="none" xmlns="http://www.w3.org/2000/svg">
<path d="M3.5 10.5H2.5C1.39543 10.5 0.5 11.3954 0.5 12.5V17.5C0.5 18.6046 1.39543 19.5 2.5 19.5H3.5C4.60457 19.5 5.5 18.6046 5.5 17.5V12.5C5.5 11.3954 4.60457 10.5 3.5 10.5Z" stroke="#60B15A"/>
<path d="M11.5 5.5H10.5C9.39543 5.5 8.5 6.39543 8.5 7.5V17.5C8.5 18.6046 9.39543 19.5 10.5 19.5H11.5C12.6046 19.5 13.5 18.6046 13.5 17.5V7.5C13.5 6.39543 12.6046 5.5 11.5 5.5Z" stroke="#60B15A"/>
<path d="M19.5 0.5H18.5C17.3954 0.5 16.5 1.39543 16.5 2.5V17.5C16.5 18.6046 17.3954 19.5 18.5 19.5H19.5C20.6046 19.5 21.5 18.6046 21.5 17.5V2.5C21.5 1.39543 20.6046 0.5 19.5 0.5Z" stroke="#60B15A"/>
</svg>
