<svg width="24" height="22" viewBox="0 0 24 22" fill="none" xmlns="http://www.w3.org/2000/svg">
<path d="M12 0.266663C5.71958 0.266663 0.799988 3.13639 0.799988 6.8V11V15.2C0.799988 18.8636 5.71958 21.7333 12 21.7333C18.2804 21.7333 23.2 18.8636 23.2 15.2V11V6.8C23.2 3.13639 18.2804 0.266663 12 0.266663ZM22.2667 15.2C22.2667 18.288 17.6611 20.8 12 20.8C6.33892 20.8 1.73332 18.288 1.73332 15.2V13.6536C3.44612 15.9584 7.34862 17.5333 12 17.5333C16.6514 17.5333 20.5539 15.9584 22.2667 13.6536V15.2ZM22.2667 11C22.2667 14.088 17.6611 16.6 12 16.6C6.33892 16.6 1.73332 14.088 1.73332 11V9.45356C3.44612 11.7584 7.34862 13.3333 12 13.3333C16.6514 13.3333 20.5539 11.7584 22.2667 9.45356V11ZM12 12.4C6.33892 12.4 1.73332 9.88802 1.73332 6.8C1.73332 3.71198 6.33892 1.2 12 1.2C17.6611 1.2 22.2667 3.71198 22.2667 6.8C22.2667 9.88802 17.6611 12.4 12 12.4Z" fill="#60B15A"/>
<path d="M12 2.13333C6.76643 2.13333 2.66669 4.1832 2.66669 6.8C2.66669 9.41679 6.76643 11.4667 12 11.4667C17.2336 11.4667 21.3334 9.41679 21.3334 6.8C21.3334 4.1832 17.2336 2.13333 12 2.13333ZM12 10.5333C7.44683 10.5333 3.60002 8.82389 3.60002 6.8C3.60002 4.7761 7.44683 3.06666 12 3.06666C16.5532 3.06666 20.4 4.7761 20.4 6.8C20.4 8.82389 16.5532 10.5333 12 10.5333Z" fill="#60B15A"/>
<path d="M12 5.15664C12.8686 5.15664 13.4 5.53763 13.4 5.74499H14.3334C14.3334 4.98224 13.5577 4.38555 12.4667 4.25214V3.89838H11.5334V4.25214C10.4423 4.38555 9.66669 4.98224 9.66669 5.74499C9.66669 6.6127 10.6697 7.26667 12 7.26667C12.8686 7.26667 13.4 7.64766 13.4 7.85502C13.4 8.06237 12.8686 8.44336 12 8.44336C11.1316 8.44336 10.6 8.06237 10.6 7.85502H9.66669C9.66669 8.61777 10.4423 9.21446 11.5334 9.34787V9.70163H12.4667V9.34787C13.5577 9.21446 14.3334 8.61777 14.3334 7.85502C14.3334 6.98731 13.3303 6.33334 12 6.33334C11.1316 6.33334 10.6 5.95235 10.6 5.74499C10.6 5.53763 11.1316 5.15664 12 5.15664Z" fill="#60B15A"/>
</svg>
