<svg width="20" height="14" viewBox="0 0 20 14" fill="none" xmlns="http://www.w3.org/2000/svg">
<path fill-rule="evenodd" clip-rule="evenodd" d="M6.5 7C8.43375 7 10 5.43375 10 3.5C10 1.56625 8.43375 0 6.5 0C4.56625 0 3 1.56625 3 3.5C3 5.43375 4.56625 7 6.5 7ZM9 3.5C9 4.88145 7.88145 6 6.5 6C5.11855 6 4 4.88145 4 3.5C4 2.11855 5.11855 1 6.5 1C7.88145 1 9 2.11855 9 3.5ZM0 14V11.2C0 9.072 4.3306 8 6.5 8C7.9431 8 10.3425 8.47435 11.7874 9.4184C12.8173 9.1399 13.9468 9 14.75 9C15.679 9 16.9255 9.1871 17.9546 9.56535C18.4682 9.7542 18.9595 10.002 19.3311 10.3231C19.7054 10.6465 20 11.0838 20 11.6334V14H0ZM1 11.2C1 11.0413 1.07278 10.8243 1.38309 10.5423C1.69954 10.2548 2.18661 9.97555 2.80341 9.73225C4.038 9.2453 5.5383 9 6.5 9C7.4617 9 8.962 9.2453 10.1966 9.73225C10.8134 9.97555 11.3005 10.2548 11.6169 10.5423C11.9272 10.8243 12 11.0413 12 11.2V13H1V11.2ZM12.6766 10.2346C13.4329 10.0783 14.1917 10 14.75 10C15.5732 10 16.7017 10.1703 17.6096 10.504C18.0644 10.6712 18.4321 10.868 18.6773 11.0798C18.9199 11.2894 19 11.4735 19 11.6334V13H13V11.2C13 10.8496 12.8826 10.5277 12.6766 10.2346ZM17.5 5.25C17.5 6.76935 16.2694 8 14.75 8C13.2306 8 12 6.76935 12 5.25C12 3.7306 13.2306 2.5 14.75 2.5C16.2694 2.5 17.5 3.7306 17.5 5.25ZM14.75 7C15.7171 7 16.5 6.2171 16.5 5.25C16.5 4.2829 15.7171 3.5 14.75 3.5C13.7829 3.5 13 4.2829 13 5.25C13 6.2171 13.7829 7 14.75 7Z" fill="#60B15A"/>
</svg>
