<svg width="10" height="8" viewBox="0 0 10 8" fill="none" xmlns="http://www.w3.org/2000/svg">
	<path
		d="M6.95587 1.12157H7.55857C7.9572 1.12157 8.31946 1.29811 8.58187 1.58232C8.84425 1.86653 9.00723 2.25906 9.00723 2.69074V6.22165C9.00723 6.65346 8.84429 7.04586 8.58191 7.33008C8.31953 7.61433 7.9572 7.79087 7.55857 7.79087H2.4428C2.04417 7.79087 1.68191 7.61433 1.41953 7.33008C1.15712 7.04586 0.994141 6.65346 0.994141 6.22165V2.69074C0.994141 2.25894 1.15712 1.86649 1.41953 1.58228C1.68191 1.29803 2.04417 1.12157 2.4428 1.12157H3.04554C3.1025 0.921663 3.21378 0.745797 3.35066 0.60363C3.58339 0.361749 3.90287 0.212891 4.15023 0.212891H5.85111C6.09846 0.212891 6.41798 0.361749 6.65068 0.60363C6.78751 0.745797 6.8988 0.921663 6.95583 1.12157H6.95587ZM5.00069 2.54371C5.48812 2.54371 5.92963 2.75783 6.24912 3.1039C6.56864 3.45001 6.76631 3.92822 6.76631 4.45626C6.76631 4.98425 6.56864 5.46247 6.24912 5.80858C5.92956 6.15465 5.48819 6.36877 5.00069 6.36877C4.51318 6.36877 4.07181 6.15465 3.75225 5.80858C3.43277 5.46243 3.2351 4.98429 3.2351 4.45626C3.2351 3.92818 3.43277 3.45005 3.75225 3.1039C4.07174 2.75783 4.51325 2.54371 5.00069 2.54371V2.54371ZM5.86507 3.51994C5.64393 3.2804 5.3383 3.13225 5.00069 3.13225C4.66311 3.13225 4.35744 3.2804 4.1363 3.51994C3.91523 3.75948 3.77839 4.09059 3.77839 4.45626C3.77839 4.82189 3.91523 5.15303 4.1363 5.39254C4.35744 5.63204 4.66311 5.78027 5.00069 5.78027C5.33823 5.78027 5.64393 5.63204 5.86507 5.39254C6.08621 5.15303 6.22298 4.82193 6.22298 4.45626C6.22298 4.09055 6.08621 3.75948 5.86507 3.51994V3.51994ZM7.55857 1.71007H6.72551C6.57551 1.71007 6.45388 1.57832 6.45388 1.41584C6.45388 1.27058 6.37861 1.13408 6.27507 1.02657C6.14102 0.88721 5.97219 0.801435 5.85114 0.801435H4.15026C4.02922 0.801435 3.86039 0.88721 3.72633 1.02657C3.6228 1.13412 3.54753 1.27058 3.54753 1.41584C3.54753 1.57832 3.4259 1.71007 3.2759 1.71007H2.44284C2.1941 1.71007 1.96776 1.82052 1.80362 1.99833C1.63947 2.17617 1.53747 2.42134 1.53747 2.69078V6.22169C1.53747 6.49106 1.63947 6.7363 1.80362 6.91411C1.9678 7.09192 2.19413 7.2024 2.44284 7.2024H7.5586C7.80735 7.2024 8.03375 7.09192 8.19786 6.91411C8.36205 6.73627 8.46397 6.49114 8.46397 6.22169V2.69078C8.46397 2.42142 8.36201 2.17617 8.19783 1.9984C8.03364 1.82056 7.80731 1.71007 7.5586 1.71007H7.55857Z"
		fill="currentColor" />
</svg>