<svg width="22" height="20" viewBox="0 0 22 20" fill="none" xmlns="http://www.w3.org/2000/svg">
	<g clip-path="url(#clip0_1_9)">
		<path
			d="M17.0459 13.6729H9.51591C8.83065 13.6682 8.16694 13.4443 7.63151 13.0369C7.09609 12.6296 6.72006 12.0626 6.56391 11.4272L5.36391 6.78144C5.2535 6.35007 5.24784 5.90041 5.34736 5.46664C5.44687 5.03288 5.64894 4.62644 5.93819 4.27823C6.22744 3.93003 6.59626 3.64923 7.0166 3.4572C7.43693 3.26516 7.89772 3.16694 8.36391 3.17001H18.2639C18.7301 3.16694 19.1909 3.26516 19.6112 3.4572C20.0315 3.64923 20.4004 3.93003 20.6896 4.27823C20.9789 4.62644 21.1809 5.03288 21.2805 5.46664C21.38 5.90041 21.3743 6.35007 21.2639 6.78144L20.0639 11.4386C19.9019 12.082 19.5148 12.6537 18.9663 13.0598C18.4178 13.4658 17.7406 13.682 17.0459 13.6729V13.6729ZM8.3279 4.59859C8.09074 4.59928 7.85682 4.65106 7.64366 4.75006C7.43049 4.84907 7.24361 4.99272 7.09701 5.17027C6.95041 5.34782 6.84789 5.55466 6.79713 5.77529C6.74637 5.99593 6.74869 6.22464 6.8039 6.4443L8.0039 11.1014C8.08518 11.4278 8.28002 11.7184 8.55672 11.9259C8.83343 12.1334 9.17572 12.2456 9.5279 12.2443H17.0459C17.3981 12.2456 17.7404 12.1334 18.0171 11.9259C18.2938 11.7184 18.4886 11.4278 18.5699 11.1014L19.7699 6.4443C19.8263 6.22455 19.8295 5.99545 19.7793 5.77434C19.729 5.55324 19.6265 5.34593 19.4797 5.16809C19.3329 4.99026 19.1455 4.84658 18.9317 4.74791C18.718 4.64924 18.4834 4.59818 18.2459 4.59859H8.3279Z"
			fill="currentColor" />
		<path
			d="M6.23997 7.99942C6.06862 7.99749 5.90313 7.93974 5.77104 7.83578C5.63895 7.73181 5.54823 7.5879 5.51397 7.42799L4.43997 2.98799C4.34079 2.58353 4.10042 2.22309 3.75818 1.96565C3.41593 1.70822 2.99208 1.56903 2.55597 1.57085H1.57797C1.37905 1.57085 1.18829 1.4956 1.04764 1.36164C0.906984 1.22769 0.827967 1.046 0.827967 0.856564C0.827967 0.667124 0.906984 0.485443 1.04764 0.351488C1.18829 0.217533 1.37905 0.142279 1.57797 0.142279H2.55597C3.33105 0.1397 4.08414 0.387503 4.69224 0.845213C5.30034 1.30292 5.72751 1.94349 5.90397 2.66228L6.97197 7.10228C6.99508 7.19348 6.99895 7.28815 6.98335 7.38078C6.96774 7.47342 6.93298 7.56218 6.88107 7.64192C6.82916 7.72166 6.76114 7.79078 6.68095 7.84529C6.60077 7.89979 6.51002 7.93859 6.41397 7.95942C6.35759 7.9785 6.29927 7.9919 6.23997 7.99942V7.99942ZM9.62997 19.8566C9.15529 19.8566 8.69128 19.7225 8.2966 19.4714C7.90192 19.2202 7.59431 18.8632 7.41266 18.4456C7.23101 18.0279 7.18348 17.5683 7.27608 17.1249C7.36869 16.6815 7.59727 16.2743 7.93291 15.9546C8.26856 15.6349 8.6962 15.4173 9.16175 15.3291C9.62731 15.2409 10.1099 15.2861 10.5484 15.4591C10.987 15.6321 11.3618 15.9251 11.6255 16.301C11.8892 16.6769 12.03 17.1188 12.03 17.5709C12.03 18.1771 11.7771 18.7584 11.327 19.1871C10.8769 19.6157 10.2665 19.8566 9.62997 19.8566ZM9.62997 16.6908C9.44959 16.6908 9.27327 16.7418 9.12329 16.8372C8.97331 16.9327 8.85642 17.0683 8.78739 17.227C8.71836 17.3857 8.7003 17.5604 8.73549 17.7289C8.77068 17.8974 8.85754 18.0521 8.98509 18.1736C9.11263 18.2951 9.27514 18.3778 9.45205 18.4113C9.62896 18.4448 9.81233 18.4276 9.97898 18.3619C10.1456 18.2961 10.2881 18.1848 10.3883 18.042C10.4885 17.8991 10.542 17.7312 10.542 17.5594C10.542 17.3291 10.4459 17.1081 10.2749 16.9452C10.1038 16.7824 9.87185 16.6908 9.62997 16.6908V16.6908ZM17.922 19.8566C17.4473 19.8566 16.9833 19.7225 16.5886 19.4714C16.1939 19.2202 15.8863 18.8632 15.7047 18.4456C15.523 18.0279 15.4755 17.5683 15.5681 17.1249C15.6607 16.6815 15.8893 16.2743 16.2249 15.9546C16.5606 15.6349 16.9882 15.4173 17.4538 15.3291C17.9193 15.2409 18.4019 15.2861 18.8404 15.4591C19.279 15.6321 19.6538 15.9251 19.9175 16.301C20.1812 16.6769 20.322 17.1188 20.322 17.5709C20.322 18.1771 20.0691 18.7584 19.619 19.1871C19.1689 19.6157 18.5585 19.8566 17.922 19.8566ZM17.922 16.6908C17.7419 16.692 17.5661 16.7439 17.4169 16.84C17.2677 16.9361 17.1518 17.0722 17.0837 17.231C17.0156 17.3898 16.9984 17.5642 17.0342 17.7323C17.0701 17.9005 17.1574 18.0547 17.2852 18.1756C17.413 18.2965 17.5755 18.3786 17.7522 18.4117C17.929 18.4448 18.1121 18.4272 18.2784 18.3613C18.4446 18.2954 18.5867 18.1841 18.6867 18.0414C18.7866 17.8987 18.84 17.731 18.84 17.5594C18.84 17.4449 18.8162 17.3315 18.77 17.2257C18.7238 17.12 18.6561 17.0239 18.5707 16.9432C18.4854 16.8625 18.3842 16.7986 18.2728 16.7553C18.1615 16.712 18.0422 16.6901 17.922 16.6908V16.6908Z"
			fill="currentColor" />
		<path
			d="M17.9238 16.6933H7.92776C7.30874 16.6933 6.71508 16.4592 6.27737 16.0423C5.83966 15.6254 5.59375 15.06 5.59375 14.4705C5.59375 13.881 5.83966 13.3156 6.27737 12.8987C6.71508 12.4818 7.30874 12.2476 7.92776 12.2476H9.51776C9.71667 12.2476 9.90743 12.3229 10.0481 12.4568C10.1887 12.5908 10.2678 12.7725 10.2678 12.9619C10.2678 13.1514 10.1887 13.333 10.0481 13.467C9.90743 13.601 9.71667 13.6762 9.51776 13.6762H7.92776C7.70656 13.6762 7.49443 13.7599 7.33803 13.9088C7.18162 14.0578 7.09375 14.2598 7.09375 14.4705C7.09375 14.6811 7.18162 14.8832 7.33803 15.0321C7.49443 15.1811 7.70656 15.2648 7.92776 15.2648H17.9238C18.1227 15.2648 18.3134 15.34 18.4541 15.474C18.5947 15.6079 18.6738 15.7896 18.6738 15.9791C18.6738 16.1685 18.5947 16.3502 18.4541 16.4841C18.3134 16.6181 18.1227 16.6933 17.9238 16.6933V16.6933Z"
			fill="currentColor" />
	</g>
	<defs>
		<clipPath id="clip0_1_9">
			<rect width="21" height="20" fill="white" transform="translate(0.564453)" />
		</clipPath>
	</defs>
</svg>