<svg width="22" height="22" viewBox="0 0 22 22" fill="none" xmlns="http://www.w3.org/2000/svg">
	<path fill-rule="evenodd" clip-rule="evenodd"
		d="M1.81726 2.55369C1.46587 2.74776 1.16069 3.06956 0.938189 3.52781C0.705957 4.0061 0.555195 4.66716 0.504128 5.45596C0.335121 8.09656 1.26161 12.3548 2.67324 15.0755C5.1974 19.9411 8.83528 21.8418 10.7795 21.8418C12.7236 21.8418 16.3615 19.9411 18.8857 15.0755C20.2973 12.3548 21.2238 8.09656 21.0548 5.45596C21.0037 4.66716 20.853 4.0061 20.6207 3.52781C20.3982 3.06956 20.0931 2.74776 19.7417 2.55369C17.6747 1.41682 14.2702 0.798285 10.8402 0.787016C7.41026 0.777 3.96449 1.37174 1.81726 2.55369ZM2.71944 4.19641C4.64782 3.13591 7.75317 2.65265 10.8342 2.66266C13.9152 2.67268 16.9841 3.17598 18.8395 4.19641C18.9222 4.24149 18.9453 4.35418 18.9903 4.47313C19.0997 4.76861 19.1593 5.14421 19.1872 5.57617C19.338 7.94758 18.4918 11.7677 17.2248 14.2117C15.9445 16.6795 14.3687 18.2921 12.9486 19.1786C12.1157 19.6982 11.3582 19.9661 10.7795 19.9661C10.2007 19.9661 9.44323 19.6982 8.61035 19.1786C7.19021 18.2921 5.61444 16.6795 4.33412 14.2117C3.06718 11.7677 2.22092 7.94758 2.37169 5.57617C2.39965 5.14421 2.45925 4.76861 2.56868 4.47313C2.61367 4.35418 2.63676 4.24149 2.71944 4.19641Z"
		fill="currentColor" />
	<path fill-rule="evenodd" clip-rule="evenodd"
		d="M13.2506 6.65241C12.6881 6.02496 11.8319 5.61434 10.8688 5.61434C9.13028 5.61434 7.76551 6.93876 7.76551 8.50738C7.76551 10.076 9.13028 11.4004 10.8688 11.4004C11.5232 11.4004 12.0997 11.8276 12.0997 12.4181C12.0997 13.0086 11.5232 13.4357 10.8688 13.4357C10.469 13.4357 10.1084 13.2775 9.87624 13.0164C9.53288 12.6297 8.94054 12.5949 8.5548 12.9391C8.16858 13.2828 8.13391 13.8759 8.47727 14.2626C9.03974 14.8957 9.90031 15.3111 10.8688 15.3111C12.6072 15.3111 13.972 13.9867 13.972 12.4181C13.972 10.8494 12.6072 9.52503 10.8688 9.52503C10.2143 9.52503 9.63786 9.09789 9.63786 8.50738C9.63786 7.91687 10.2143 7.48973 10.8688 7.48973C11.2665 7.48973 11.6258 7.64616 11.8579 7.90513C12.2032 8.29012 12.7955 8.32227 13.1798 7.9764C13.5641 7.63052 13.5959 7.0374 13.2506 6.65241Z"
		fill="currentColor" />
	<path fill-rule="evenodd" clip-rule="evenodd"
		d="M9.93171 5.24477V6.54833C9.93171 7.06585 10.3514 7.48559 10.8679 7.48559C11.3844 7.48559 11.8041 7.06585 11.8041 6.54833V5.24477C11.8041 4.72726 11.3844 4.30751 10.8679 4.30751C10.3514 4.30751 9.93171 4.72726 9.93171 5.24477ZM11.8041 15.6733V14.384C11.8041 13.8665 11.3844 13.4468 10.8679 13.4468C10.3514 13.4468 9.93171 13.8665 9.93171 14.384V15.6733C9.93171 16.1908 10.3514 16.6105 10.8679 16.6105C11.3844 16.6105 11.8041 16.1908 11.8041 15.6733Z"
		fill="currentColor" />
</svg>