<svg width="22" height="22" viewBox="0 0 22 22" fill="none" xmlns="http://www.w3.org/2000/svg">
	<path
		d="M10.5955 0.21875C4.82958 0.21875 0.154297 4.89399 0.154297 10.6599C0.154297 16.4259 4.82958 21.1011 10.5955 21.1011C16.3618 21.1011 21.0366 16.4258 21.0366 10.6599C21.0366 4.89409 16.3617 0.21875 10.5955 0.21875ZM12.6612 20.0057C11.9828 20.1391 11.1388 20.2159 10.4525 20.2291C9.80225 20.2198 9.1547 20.1442 8.51983 20.0036C8.40586 19.9742 8.29199 19.9445 8.17824 19.9144L6.95255 16.6297L7.93869 14.6758H13.2523L13.281 14.7298L14.2518 16.6801L13.0662 19.9069C12.9319 19.9428 12.7969 19.9757 12.6612 20.0057ZM7.26122 1.68855L10.1437 3.66112V6.57998L6.57978 9.59522L4.09985 8.46527L3.89068 8.36994L2.76966 5.15632C3.87447 3.58994 5.43708 2.36873 7.26122 1.68855ZM18.4045 5.14151L17.2784 8.37842L14.5681 9.60265L10.9971 6.57998V3.66112L13.8883 1.68257C15.7135 2.35939 17.2969 3.57764 18.4045 5.14151ZM1.06509 11.5341L3.76353 9.19896L6.25028 10.3334L6.27834 10.3462L7.26815 14.2258L6.24245 16.1599L2.73563 16.114C1.81459 14.7908 1.21894 13.2253 1.06509 11.5341ZM14.9486 16.1599L13.9228 14.2258L14.9143 10.3397L17.4241 9.1961L20.1258 11.5341C19.972 13.2253 19.3763 14.7908 18.4554 16.1139L14.9486 16.1599Z"
		fill="currentColor" />
</svg>