<svg width="19" height="18" viewBox="0 0 19 18" fill="none" xmlns="http://www.w3.org/2000/svg">
	<path
		d="M9.25409 9.92834C11.8755 9.92834 13.9777 7.8001 13.9777 5.20468C13.9777 2.60927 11.8755 0.455078 9.25409 0.455078C6.63273 0.455078 4.53044 2.58332 4.53044 5.17873C4.53044 7.77414 6.63273 9.92834 9.25409 9.92834V9.92834ZM9.25409 1.70088C11.1747 1.70088 12.7319 3.25813 12.7319 5.17873C12.7319 7.09934 11.1747 8.65658 9.25409 8.65658C7.33349 8.65658 5.77624 7.12529 5.77624 5.20468C5.77624 3.28408 7.33349 1.70088 9.25409 1.70088V1.70088ZM1.05259 17.3253H17.5075C17.8449 17.3253 18.1304 17.0398 18.1304 16.7024C18.1304 13.4321 15.4571 10.7589 12.1869 10.7589H6.37318C3.10296 10.7589 0.429688 13.4321 0.429688 16.7024C0.429688 17.0398 0.715183 17.3253 1.05259 17.3253V17.3253ZM6.37318 12.0047H12.1869C14.5747 12.0047 16.5212 13.7695 16.8327 16.0795H1.72739C2.03884 13.7695 3.9854 12.0047 6.37318 12.0047Z"
		fill="currentColor" />
</svg>