<svg width="52" height="54" viewBox="0 0 52 54" fill="none" xmlns="http://www.w3.org/2000/svg">
<path d="M34.3637 28.4449C41.968 28.4449 48.159 22.2539 48.159 14.6496C48.159 7.04531 41.968 0.84375 34.3637 0.84375C26.7594 0.84375 20.5684 7.03477 20.5684 14.6391C20.5684 22.2434 26.7594 28.4449 34.3637 28.4449ZM34.3637 2.95312C40.8184 2.95312 46.0602 8.18438 46.0602 14.6391C46.0602 21.0938 40.8289 26.3355 34.3742 26.3355C27.9195 26.3355 22.6777 21.1043 22.6777 14.6496C22.6777 14.6496 22.6777 14.6496 22.6777 14.6391C22.6883 8.19492 27.909 2.96367 34.3637 2.95312Z" fill="#60B15A"/>
<path d="M34.3637 19.1633C33.4039 19.1633 32.634 18.3828 32.634 17.4336C32.634 16.8535 32.1594 16.3789 31.5793 16.3789C30.9887 16.3789 30.5141 16.843 30.5035 17.4336C30.5035 19.1527 31.6953 20.6082 33.1719 21.0934V22.0426C33.1719 22.6227 33.6465 23.0973 34.2266 23.0973C34.8066 23.0973 35.2812 22.6227 35.2812 22.0426V21.1566C37.3379 20.6398 38.5824 18.5516 38.0656 16.4949C37.6332 14.7969 36.1039 13.5945 34.3531 13.5945C33.3934 13.5945 32.6234 12.8141 32.634 11.8543C32.6445 10.8945 33.4145 10.1246 34.3742 10.1352C35.3234 10.1352 36.0934 10.9156 36.0934 11.8648C36.0934 12.4449 36.568 12.9195 37.148 12.9195C37.7176 12.9195 38.1816 12.4555 38.1816 11.8754V11.8648C38.1816 10.1035 36.9898 8.57422 35.2812 8.1418V7.73047C35.2812 7.15039 34.8066 6.67578 34.2266 6.67578C33.6465 6.67578 33.1719 7.15039 33.1719 7.73047V8.20508C31.6953 8.70078 30.5035 10.1563 30.5035 11.8648C30.5035 13.9848 32.2227 15.7039 34.3531 15.7039C35.3129 15.7039 36.0828 16.4844 36.0723 17.4441C36.0723 18.3828 35.3129 19.1527 34.3637 19.1633ZM50.2684 32.6C48.9078 30.923 46.4504 30.6699 44.7629 32.0305C42.6535 33.7496 39.5844 36.2281 37.591 37.8418C36.1883 38.9703 34.4586 39.6137 32.6551 39.677L27.2551 39.8563C27.0336 39.8668 26.8332 39.7508 26.7172 39.5715L26.116 38.5379C26.0105 38.3691 26 38.1688 26.0844 37.9895C26.1687 37.8102 26.327 37.6836 26.5168 37.652L32.0961 36.5973C34.0578 36.2281 35.4289 34.3719 35.2074 32.3574C34.9965 30.4168 33.3512 28.9613 31.4105 28.9613C31.3578 28.9613 31.2945 28.9613 31.2207 28.9613L23.7641 28.6555C20.7898 28.55 18.2375 29.1195 15.2527 30.5645L11.3504 32.4523C10.802 31.3133 9.65234 30.5855 8.38672 30.5855H4.07305C2.26953 30.575 0.803516 32.0305 0.792969 33.834V49.8969C0.803516 51.7004 2.26953 53.1559 4.07305 53.1559H8.38672C10.1902 53.1559 11.6457 51.7004 11.6562 49.8969V48.8106L15.8012 48.0512C17.1406 47.8508 17.9844 47.777 19.4082 47.8402L30.7461 48.3676C34.8277 48.5469 38.825 47.1969 41.9574 44.5813L49.8148 38.0633L49.8254 38.0527C51.3969 36.7133 51.6289 34.3613 50.3527 32.7371C50.3316 32.6844 50.3 32.6422 50.2684 32.6ZM9.54688 49.8969C9.54688 50.5297 9.03008 51.0465 8.39727 51.0465H4.05195C3.41914 51.0465 2.90234 50.5297 2.90234 49.8969V33.8445C2.90234 33.2117 3.41914 32.6949 4.05195 32.6949H8.39727C9.03008 32.6949 9.54688 33.2117 9.54688 33.8445V49.8969ZM48.4648 36.4391L40.618 42.9465C37.8863 45.2246 34.3953 46.3953 30.841 46.2477L19.5031 45.7203C17.9105 45.6465 16.9402 45.7414 15.4742 45.9523C15.4637 45.9523 15.4531 45.9523 15.4426 45.9629L11.6562 46.659V34.6356L16.1703 32.4523C18.8281 31.1656 21.0746 30.6594 23.6797 30.7543L31.1891 31.0602C31.2313 31.0602 31.284 31.0602 31.3262 31.0602C31.3367 31.0602 31.3789 31.0602 31.4105 31.0602C32.2754 31.0707 33.0137 31.7141 33.1191 32.5789C33.2246 33.4859 32.6129 34.3297 31.7164 34.509L26.1371 35.5637C24.6711 35.8379 23.7113 37.2617 23.9855 38.7277C24.0488 39.0336 24.1543 39.3289 24.3125 39.5926L24.9137 40.6156C25.4199 41.4699 26.348 41.9762 27.3395 41.9445L32.7395 41.7652C34.9965 41.6809 37.1691 40.8688 38.9305 39.466C40.9238 37.8523 44.0035 35.3738 46.1129 33.6547C46.8723 33.0641 47.9586 33.159 48.602 33.8762C48.623 33.9184 48.6547 33.9606 48.6863 34.0027C49.2875 34.7305 49.1926 35.8273 48.4648 36.4391Z" fill="#60B15A"/>
</svg>
