<svg width="50" height="50" viewBox="0 0 50 50" fill="none" xmlns="http://www.w3.org/2000/svg">
<path d="M48.2994 7.50766H33.6662V1.69169C33.6662 1.30694 33.4063 0.971124 33.0342 0.874937C32.6596 0.777906 32.2723 0.945812 32.085 1.28162L31.7095 1.95747L31.3307 1.27994C31.1814 1.01331 30.8995 0.847937 30.5941 0.847937C30.5933 0.847937 30.5924 0.847937 30.5916 0.847937C30.2853 0.848781 30.0035 1.01584 29.855 1.28416L29.4896 1.9465L29.1209 1.28247C28.9724 1.015 28.6898 0.847937 28.3835 0.847937C28.0772 0.847937 27.7945 1.01416 27.646 1.28247L27.274 1.95325L26.901 1.28247C26.7137 0.946656 26.3264 0.778749 25.9518 0.875781C25.5797 0.971968 25.3198 1.30778 25.3198 1.69253V7.5085H11.6713C11.2047 7.5085 10.8276 7.8865 10.8276 8.35225L10.8284 31.7891C10.6529 35.4079 10.3652 38.4319 9.97455 40.8071H1.70073C1.42145 40.8071 1.16073 40.9455 1.0038 41.1758C0.846015 41.4062 0.813109 41.6998 0.916046 41.9597C0.94389 42.0314 3.83458 49.1543 7.16148 49.1543H43.7794C43.7853 49.1552 43.792 49.1543 43.7963 49.1543C43.8022 49.1543 43.8064 49.1518 43.8115 49.1518C44.4493 49.1433 45.0324 48.9003 45.5352 48.4312C46.2423 47.7933 46.8228 46.7488 47.3088 45.2444C48.2361 42.4313 48.8529 37.8742 49.1448 31.6617V8.35141C49.1431 7.88481 48.766 7.50766 48.2994 7.50766ZM27.0065 4.49041C27.3744 4.61444 27.8182 4.44822 28.0105 4.09975L28.3826 3.43066L28.7539 4.09975C28.9024 4.36806 29.185 4.53428 29.4913 4.53428H29.4922C29.7993 4.53428 30.082 4.36637 30.2305 4.09806L30.5992 3.42981L30.9746 4.10228C31.124 4.36891 31.4058 4.53428 31.7112 4.53428H31.7121C31.804 4.53428 31.8935 4.51909 31.9779 4.49125V8.35225V14.2112C31.8926 14.1826 31.8032 14.1682 31.7112 14.1682C31.405 14.1682 31.1223 14.3344 30.9738 14.6027L30.6017 15.2727L30.2296 14.6027C30.0803 14.3353 29.7985 14.1691 29.4922 14.1691C29.4913 14.1691 29.4913 14.1691 29.4905 14.1691C29.1842 14.1691 28.9015 14.337 28.753 14.6061L28.3852 15.2735L28.0097 14.6019C27.8604 14.3353 27.5785 14.1699 27.2731 14.1699H27.2723C27.1803 14.1699 27.0909 14.1851 27.0065 14.2129V8.35394V4.49041V4.49041ZM7.16064 47.4651C5.86633 47.4651 4.02611 44.5339 3.01108 42.4929H10.6867H37.7685C38.0723 43.1527 38.6359 44.2968 39.3413 45.4207C39.5117 45.6975 39.6805 45.9523 39.85 46.1978C39.8931 46.2611 39.9361 46.3227 39.9783 46.3834C40.1445 46.618 40.3099 46.8424 40.4736 47.0466C40.4913 47.0686 40.509 47.088 40.5267 47.1091C40.6263 47.2323 40.7259 47.3529 40.8254 47.4643H7.16064V47.4651ZM45.7023 44.7196C45.2197 46.2172 44.7295 46.8829 44.3928 47.1858C44.1253 47.4364 43.9144 47.4651 43.7785 47.4651C43.0301 47.4651 41.908 46.3699 40.7731 44.5297C39.7707 42.9317 39.1109 41.3606 39.1075 41.3538C39.1025 41.3412 39.0932 41.3319 39.089 41.3193C39.0839 41.3074 39.0755 41.2982 39.0713 41.2863C39.0341 41.2104 38.9886 41.1421 38.9329 41.0813C38.9084 41.0543 38.8823 41.0315 38.8553 41.0088C38.8114 40.9725 38.7667 40.9421 38.716 40.9151C38.6747 40.8915 38.635 40.8687 38.5895 40.8527C38.5524 40.84 38.5127 40.8366 38.4739 40.829C38.419 40.8181 38.3684 40.7961 38.3102 40.7961C38.2942 40.7961 38.2815 40.8046 38.2655 40.8054H11.6865C12.0679 38.4007 12.3396 35.4594 12.5151 31.8279V31.8237C12.5151 31.8212 12.5168 31.8186 12.5168 31.8153C12.5218 31.7621 12.5252 31.7081 12.5252 31.6583C12.5252 31.6406 12.5159 31.6263 12.5151 31.6094V9.19516H25.319V17.0091C25.319 17.3939 25.5789 17.7297 25.951 17.8259C26.3256 17.9246 26.7129 17.7558 26.9002 17.4192L27.2756 16.7433L27.6545 17.4209C27.8038 17.6875 28.0856 17.8529 28.3911 17.8529C28.3919 17.8529 28.3928 17.8529 28.3936 17.8529C28.6999 17.852 28.9817 17.685 29.1302 17.4158L29.4955 16.7535L29.8651 17.4192C30.0145 17.6867 30.2963 17.8529 30.6025 17.8529C30.9088 17.8529 31.1915 17.6867 31.34 17.4183L31.7121 16.7484L32.0842 17.4183C32.1272 17.4951 32.182 17.5601 32.2428 17.6183C32.2647 17.6394 32.29 17.6546 32.3137 17.6732C32.3559 17.7061 32.3997 17.7347 32.4461 17.7584C32.4774 17.7744 32.5086 17.7871 32.5415 17.798C32.5896 17.8149 32.6368 17.8259 32.6875 17.8343C32.7204 17.8394 32.7516 17.8461 32.7853 17.847C32.798 17.8478 32.8081 17.852 32.8208 17.852C32.8908 17.852 32.9617 17.8436 33.0325 17.825C33.4046 17.7288 33.6645 17.393 33.6645 17.0083V9.19431H47.4539L47.4548 31.6195C47.173 37.6405 46.584 42.0457 45.7023 44.7196Z" fill="#60B15A"/>
<path d="M41.6439 20.3594C40.6676 20.3594 40.126 20.7062 39.7302 20.9584C39.4046 21.1668 39.208 21.2926 38.7253 21.2926C38.2427 21.2926 38.0453 21.1668 37.7213 20.9584C37.3256 20.7062 36.7839 20.3594 35.8076 20.3594C34.8314 20.3594 34.2906 20.7062 33.8957 20.9584C33.5709 21.1668 33.3751 21.2917 32.8933 21.2917C32.4116 21.2917 32.2158 21.1668 31.891 20.9584C31.4961 20.7053 30.9552 20.3594 29.9799 20.3594C29.0045 20.3594 28.4636 20.7062 28.0688 20.9593C27.7439 21.1668 27.549 21.2926 27.0672 21.2926C26.588 21.2926 26.3922 21.1677 26.0682 20.9593C25.6734 20.7062 25.1325 20.3594 24.1571 20.3594C23.1818 20.3594 22.6409 20.7062 22.2461 20.9593C21.9212 21.1668 21.7263 21.2926 21.2445 21.2926C20.7627 21.2926 20.567 21.1677 20.2421 20.9593C19.8473 20.7062 19.3064 20.3602 18.3311 20.3602C17.8645 20.3602 17.4873 20.7382 17.4873 21.204C17.4873 21.6697 17.8645 22.0477 18.3311 22.0477C18.812 22.0477 19.0077 22.1726 19.3326 22.381C19.7275 22.6341 20.2683 22.9809 21.2445 22.9809C22.2191 22.9809 22.7607 22.6341 23.1556 22.381C23.4805 22.1734 23.6754 22.0477 24.1571 22.0477C24.6372 22.0477 24.833 22.1726 25.157 22.381C25.5519 22.6341 26.0927 22.9809 27.0672 22.9809C28.0418 22.9809 28.5835 22.6341 28.9783 22.381C29.3032 22.1734 29.4981 22.0477 29.9799 22.0477C30.4616 22.0477 30.6566 22.1726 30.9814 22.381C31.3763 22.6341 31.9171 22.9809 32.8933 22.9809C33.8696 22.9809 34.4104 22.6341 34.8053 22.3818C35.1301 22.1734 35.3259 22.0486 35.8076 22.0486C36.2894 22.0486 36.4869 22.1743 36.8109 22.3818C37.2066 22.635 37.7483 22.9809 38.7253 22.9809C39.7024 22.9809 40.2432 22.6341 40.639 22.3818C40.9646 22.1734 41.1612 22.0477 41.6439 22.0477C42.1105 22.0477 42.4876 21.6697 42.4876 21.204C42.4876 20.7382 42.1096 20.3594 41.6439 20.3594ZM41.6439 26.8529C40.6676 26.8529 40.126 27.1997 39.7302 27.4519C39.4046 27.6603 39.208 27.7861 38.7253 27.7861C38.2427 27.7861 38.0453 27.6603 37.7213 27.4519C37.3256 27.1997 36.7839 26.8529 35.8076 26.8529C34.8314 26.8529 34.2906 27.1997 33.8957 27.4519C33.5709 27.6603 33.3751 27.7852 32.8933 27.7852C32.4116 27.7852 32.2158 27.6603 31.891 27.4519C31.4961 27.1988 30.9552 26.8529 29.9799 26.8529C29.0045 26.8529 28.4636 27.1997 28.0688 27.4528C27.7439 27.6603 27.549 27.7861 27.0672 27.7861C26.588 27.7861 26.3922 27.6612 26.0682 27.4528C25.6734 27.1997 25.1325 26.8529 24.1571 26.8529C23.1818 26.8529 22.6409 27.1997 22.2461 27.4528C21.9212 27.6603 21.7263 27.7861 21.2445 27.7861C20.7627 27.7861 20.567 27.6612 20.2421 27.4528C19.8473 27.1997 19.3064 26.8537 18.3311 26.8537C17.8645 26.8537 17.4873 27.2317 17.4873 27.6975C17.4873 28.1632 17.8645 28.5412 18.3311 28.5412C18.812 28.5412 19.0077 28.6661 19.3326 28.8745C19.7275 29.1276 20.2683 29.4744 21.2445 29.4744C22.2191 29.4744 22.7607 29.1276 23.1556 28.8745C23.4805 28.6669 23.6754 28.5412 24.1571 28.5412C24.6372 28.5412 24.833 28.6661 25.157 28.8745C25.5519 29.1276 26.0927 29.4744 27.0672 29.4744C28.0418 29.4744 28.5835 29.1276 28.9783 28.8745C29.3032 28.6669 29.4981 28.5412 29.9799 28.5412C30.4616 28.5412 30.6566 28.6661 30.9814 28.8745C31.3763 29.1276 31.9171 29.4744 32.8933 29.4744C33.8696 29.4744 34.4104 29.1276 34.8053 28.8753C35.1301 28.6669 35.3259 28.5421 35.8076 28.5421C36.2894 28.5421 36.4869 28.6678 36.8109 28.8753C37.2066 29.1285 37.7483 29.4744 38.7253 29.4744C39.7024 29.4744 40.2432 29.1276 40.639 28.8753C40.9646 28.6669 41.1612 28.5412 41.6439 28.5412C42.1105 28.5412 42.4876 28.1632 42.4876 27.6975C42.4876 27.2317 42.1096 26.8529 41.6439 26.8529ZM41.6439 33.181C40.6676 33.181 40.126 33.5278 39.7302 33.7801C39.4046 33.9885 39.208 34.1142 38.7253 34.1142C38.2427 34.1142 38.0453 33.9885 37.7213 33.7801C37.3256 33.5278 36.7839 33.181 35.8076 33.181C34.8314 33.181 34.2906 33.5278 33.8957 33.7801C33.5709 33.9885 33.3751 34.1133 32.8933 34.1133C32.4116 34.1133 32.2158 33.9885 31.891 33.7801C31.4961 33.5269 30.9552 33.181 29.9799 33.181C29.0045 33.181 28.4636 33.5278 28.0688 33.7809C27.7439 33.9885 27.549 34.1142 27.0672 34.1142C26.588 34.1142 26.3922 33.9893 26.0682 33.7809C25.6734 33.5278 25.1325 33.181 24.1571 33.181C23.1818 33.181 22.6409 33.5278 22.2461 33.7809C21.9212 33.9885 21.7263 34.1142 21.2445 34.1142C20.7627 34.1142 20.567 33.9893 20.2421 33.7809C19.8473 33.5278 19.3064 33.1818 18.3311 33.1818C17.8645 33.1818 17.4873 33.5598 17.4873 34.0256C17.4873 34.4913 17.8645 34.8693 18.3311 34.8693C18.812 34.8693 19.0077 34.9942 19.3326 35.2026C19.7275 35.4557 20.2683 35.8025 21.2445 35.8025C22.2191 35.8025 22.7607 35.4557 23.1556 35.2026C23.4805 34.9951 23.6754 34.8693 24.1571 34.8693C24.6372 34.8693 24.833 34.9942 25.157 35.2026C25.5519 35.4557 26.0927 35.8025 27.0672 35.8025C28.0418 35.8025 28.5835 35.4557 28.9783 35.2026C29.3032 34.9951 29.4981 34.8693 29.9799 34.8693C30.4616 34.8693 30.6566 34.9942 30.9814 35.2026C31.3763 35.4557 31.9171 35.8025 32.8933 35.8025C33.8696 35.8025 34.4104 35.4558 34.8053 35.2035C35.1301 34.9951 35.3259 34.8702 35.8076 34.8702C36.2894 34.8702 36.4869 34.9959 36.8109 35.2035C37.2066 35.4566 37.7483 35.8025 38.7253 35.8025C39.7024 35.8025 40.2432 35.4558 40.639 35.2035C40.9646 34.9951 41.1612 34.8693 41.6439 34.8693C42.1105 34.8693 42.4876 34.4913 42.4876 34.0256C42.4876 33.5598 42.1096 33.181 41.6439 33.181Z" fill="#60B15A"/>
</svg>
