<svg width="48" height="52" viewBox="0 0 48 52" fill="none" xmlns="http://www.w3.org/2000/svg">
<path d="M24.0117 39.8962L24.0117 39.8965L24.0117 39.8962ZM42.4988 44.9188C39.9757 41.7537 38.0442 38.1595 36.7969 34.3088C35.7665 31.6126 33.8174 29.3668 31.2931 27.967L30.7594 25.9696C30.6982 25.7573 30.5562 25.5773 30.3638 25.4685C30.1714 25.3598 29.944 25.3308 29.7305 25.3879C29.517 25.4449 29.3344 25.5835 29.2219 25.7737C29.1095 25.964 29.0762 26.1908 29.1291 26.4054L29.2992 27.0419C27.27 26.333 25.1298 25.9951 22.9809 26.0442C22.4344 26.0548 21.8995 26.203 21.4255 26.4751C20.9515 26.7472 20.5538 27.1345 20.2692 27.6011L16.3117 34.1906C16.1846 34.406 16.1014 34.6443 16.0669 34.892C16.0323 35.1396 16.0471 35.3916 16.1104 35.6335C16.1737 35.8754 16.2842 36.1024 16.4356 36.3014C16.5869 36.5004 16.7762 36.6675 16.9924 36.793C19.6222 38.2145 22.453 36.5785 24.6181 34.4357C25.4763 34.2974 26.0673 34.8223 26.7155 35.675C26.8257 37.6905 27.5263 39.6291 28.73 41.2494L22.2492 42.9868C22.8938 42.8076 23.4411 42.3805 23.7714 41.7988C24.1018 41.2171 24.1884 40.5282 24.0122 39.8829C23.8361 39.2376 23.4115 38.6882 22.8314 38.3551C22.2512 38.022 21.5628 37.9322 20.9166 38.1053C20.2705 38.2784 19.7192 38.7004 19.3833 39.2789C19.0474 39.8575 18.9544 40.5455 19.1244 41.1924C19.2945 41.8394 19.7139 42.3927 20.2908 42.7313C20.8678 43.0699 21.5553 43.1662 22.2031 42.9992L14.3697 45.0993L12.4463 45.6137C12.3395 45.6437 12.2277 45.6521 12.1176 45.6384C12.0076 45.6248 11.9013 45.5893 11.805 45.5342C11.7088 45.479 11.6245 45.4052 11.5571 45.3171C11.4896 45.229 11.4404 45.1283 11.4123 45.021L1.80189 9.16163C1.77223 9.0546 1.76415 8.94273 1.7781 8.83254C1.79206 8.72235 1.82778 8.61604 1.88319 8.51977C1.93859 8.42351 2.01258 8.33922 2.10086 8.27181C2.18913 8.20439 2.28992 8.1552 2.39737 8.12708L21.9529 2.88806C22.0598 2.85812 22.1715 2.84976 22.2816 2.86346C22.3918 2.87717 22.498 2.91267 22.5943 2.96789C22.6905 3.02311 22.7748 3.09695 22.8422 3.18509C22.9096 3.27323 22.9588 3.37392 22.9869 3.48127L27.3828 19.8837C27.4435 20.0968 27.5855 20.2776 27.7782 20.3869C27.971 20.4962 28.1989 20.5253 28.413 20.4679C28.627 20.4106 28.8099 20.2714 28.9221 20.0803C29.0343 19.8893 29.0669 19.6617 29.0129 19.4469L24.6169 3.04445C24.5312 2.72299 24.3827 2.42165 24.1802 2.15774C23.9776 1.89382 23.7249 1.67254 23.4365 1.5066C23.1481 1.34066 22.8298 1.23334 22.4999 1.19079C22.1699 1.14825 21.8348 1.17133 21.5137 1.2587L1.95836 6.49769C1.6373 6.5841 1.3364 6.73293 1.07288 6.93567C0.809352 7.1384 0.588355 7.39108 0.422515 7.67926C0.256674 7.96743 0.14924 8.28546 0.106351 8.61518C0.0634612 8.94489 0.0859571 9.27982 0.172553 9.60083L9.78231 45.4578C9.86805 45.7792 10.0165 46.0805 10.219 46.3444C10.4216 46.6083 10.6742 46.8295 10.9626 46.9954C11.2509 47.1613 11.5691 47.2686 11.899 47.3111C12.229 47.3537 12.564 47.3306 12.885 47.2432L14.4101 46.8353L20.2918 51.2468C20.4256 51.3476 20.5865 51.4059 20.7538 51.4144C25.2303 51.605 33.1195 51.2456 38.2261 49.0201C39.437 48.4895 43.6845 46.3231 42.4988 44.9188ZM21.5659 41.3957C21.4085 41.3956 21.2543 41.3513 21.1207 41.2681C20.9871 41.1849 20.8794 41.0659 20.8099 40.9247C20.7403 40.7834 20.7117 40.6256 20.7272 40.4689C20.7427 40.3123 20.8017 40.1631 20.8976 40.0382C20.9934 39.9134 21.1223 39.8178 21.2696 39.7623C21.4169 39.7069 21.5768 39.6937 21.7312 39.7244C21.8856 39.7551 22.0284 39.8283 22.1433 39.9359C22.2583 40.0434 22.3408 40.181 22.3817 40.333C22.4151 40.4581 22.4193 40.5892 22.394 40.7162C22.3686 40.8432 22.3145 40.9626 22.2356 41.0654C22.1568 41.1681 22.0554 41.2513 21.9392 41.3086C21.8231 41.3659 21.6954 41.3957 21.5659 41.3957V41.3957ZM35.1776 34.7827L35.1774 34.7828L35.1776 34.7827ZM37.5601 47.4695C32.8008 49.5033 25.8376 49.8862 21.095 49.7398L16.4822 46.2801L30.1368 42.6192C30.8707 43.0778 32.8138 44.6253 33.4118 43.2427C33.4466 43.1375 33.4602 43.0264 33.4521 42.9159C33.4439 42.8054 33.4141 42.6976 33.3642 42.5986C33.3144 42.4996 33.2456 42.4115 33.1617 42.3391C33.0778 42.2667 32.9804 42.2116 32.8752 42.1768C31.8386 41.8003 30.9136 41.1686 30.1855 40.3402C29.4575 39.5118 28.9499 38.5132 28.7097 37.4369C28.5242 36.768 28.4175 36.0798 28.3919 35.3862C27.838 33.4477 25.0897 31.9888 23.5765 33.1001C21.7558 34.8161 19.903 36.2953 17.8128 35.3199C17.7323 35.2867 17.7163 35.1399 17.7605 35.0558L21.7155 28.4696C22.5666 27.2236 24.3699 27.8572 25.6338 27.8836C29.7371 28.2467 34.0117 31.2099 35.1775 34.7832C36.4052 38.6355 38.2973 42.2435 40.7681 45.4439C39.8267 46.3031 38.7406 46.9889 37.5601 47.4695H37.5601ZM47.4965 0.903566C47.3557 0.822607 47.1945 0.783907 47.0322 0.79209C46.87 0.800272 46.7135 0.854991 46.5815 0.949711L31.5674 11.7668C31.4545 11.8502 31.364 11.9602 31.304 12.087C31.2439 12.2138 31.2162 12.3535 31.2232 12.4936C31.2303 12.6338 31.2719 12.77 31.3444 12.8901C31.417 13.0103 31.5181 13.1106 31.6388 13.1821L36.7536 16.1353C36.9474 16.2471 37.1777 16.2775 37.3938 16.2195C37.61 16.1616 37.7943 16.0202 37.9061 15.8264L39.5936 12.9038C39.7079 12.7147 39.8917 12.5778 40.1057 12.5228C40.3197 12.4677 40.5468 12.4987 40.7382 12.6092C40.9295 12.7197 41.0699 12.9008 41.1292 13.1137C41.1885 13.3266 41.1619 13.5542 41.0552 13.7477L39.3678 16.6702C39.2575 16.8643 39.228 17.0941 39.2858 17.3098C39.3436 17.5255 39.484 17.7097 39.6766 17.8227L44.7914 20.7759C44.9134 20.8463 45.0512 20.8851 45.192 20.8886C45.3329 20.8922 45.4724 20.8604 45.5978 20.7962C45.7233 20.732 45.8306 20.6373 45.9101 20.521C45.9895 20.4046 46.0386 20.2702 46.0528 20.13L47.9142 1.71915C47.9302 1.55746 47.8993 1.39458 47.8253 1.24996C47.7512 1.10534 47.6371 0.985088 47.4965 0.903566V0.903566ZM44.5051 18.662L41.2511 16.7832L42.5167 14.5913C42.8434 14.0104 42.9279 13.3241 42.7518 12.6813C42.5757 12.0386 42.1532 11.4912 41.576 11.1579C40.9988 10.8247 40.3135 10.7325 39.6688 10.9014C39.0241 11.0703 38.472 11.4866 38.1323 12.06L36.8666 14.252L33.6126 12.3732L46.0466 3.41485L44.5051 18.662Z" fill="#60B15A"/>
<path d="M14.3917 21.1137C14.1881 21.0277 13.959 21.0249 13.7534 21.106C13.5479 21.1871 13.3823 21.3456 13.2924 21.5474C13.2024 21.7492 13.1952 21.9782 13.2722 22.1853C13.3493 22.3924 13.5045 22.561 13.7045 22.6549C14.2281 22.8027 15.9805 24.0017 16.4107 22.7934C16.8213 21.6235 14.8704 21.4535 14.3917 21.1137ZM19.0316 22.5761C18.814 22.5376 18.59 22.586 18.4077 22.7109C18.2254 22.8357 18.0993 23.0271 18.0566 23.2439C18.0138 23.4607 18.0578 23.6856 18.1791 23.8703C18.3004 24.055 18.4892 24.1848 18.7052 24.2317C19.5145 24.2975 21.1358 25.033 21.3726 23.7691C21.4524 22.5288 19.7958 22.8366 19.0316 22.5761ZM33.939 21.6724C34.6648 21.124 36.2563 20.6423 35.6011 19.5312C34.7977 18.5753 33.8871 19.8609 33.0709 20.2253C32.8836 20.3426 32.7498 20.5288 32.6983 20.7437C32.6467 20.9586 32.6816 21.1851 32.7953 21.3746C32.9089 21.5641 33.0924 21.7015 33.3063 21.7571C33.5202 21.8128 33.7473 21.7824 33.939 21.6724V21.6724ZM28.077 23.2288C28.3052 23.9939 29.1345 23.869 29.7155 23.611C30.4202 23.3677 31.6201 23.1269 31.266 22.1298C30.8662 21.1842 29.8774 21.7871 29.1858 22.009C28.5776 22.1362 27.8523 22.484 28.077 23.2288ZM38.2658 17.065C38.1686 16.9766 38.0533 16.9104 37.9279 16.8712C37.8024 16.8319 37.6699 16.8206 37.5397 16.838C37.4094 16.8553 37.2845 16.901 37.1737 16.9717C37.0629 17.0424 36.9689 17.1365 36.8983 17.2473C36.7443 17.4057 36.6585 17.6183 36.6595 17.8393C36.6604 18.0603 36.7481 18.2721 36.9035 18.4292C37.0589 18.5863 37.2698 18.6761 37.4908 18.6794C37.7117 18.6827 37.9252 18.5992 38.0852 18.4468C38.1979 18.3759 38.2934 18.281 38.3652 18.1689C38.4369 18.0568 38.4831 17.9303 38.5003 17.7984C38.5175 17.6664 38.5055 17.5323 38.4649 17.4055C38.4244 17.2788 38.3564 17.1625 38.2658 17.065V17.065ZM23.8714 22.9654C23.7607 22.9697 23.6519 22.9957 23.5512 23.042C23.4505 23.0882 23.36 23.1539 23.2847 23.2352C23.2094 23.3165 23.1508 23.4118 23.1124 23.5157C23.0739 23.6197 23.0563 23.7301 23.0606 23.8409C23.2176 25.1214 24.8012 24.5232 25.6872 24.5123C25.9093 24.4853 26.1117 24.3711 26.2496 24.1949C26.3876 24.0188 26.45 23.795 26.423 23.5728C26.1997 22.3508 24.6938 23.0422 23.8714 22.9654Z" fill="#60B15A"/>
</svg>
