<svg width="20" height="20" viewBox="0 0 20 20" fill="none" xmlns="http://www.w3.org/2000/svg">
    <path d="M10 0.25C4.62391 0.25 0.25 4.62391 0.25 10C0.25 15.3761 4.62391 19.75 10 19.75C15.3761 19.75 19.75 15.3761 19.75 10C19.75 4.62391 15.3761 0.25 10 0.25ZM16.7031 14.5H14.5834C14.5178 14.4999 14.4533 14.4825 14.3964 14.4495C14.3396 14.4166 14.2924 14.3694 14.2595 14.3125L13.503 13.015C13.4532 12.9302 13.4387 12.8292 13.4627 12.7338L14.1592 9.925C14.1732 9.86841 14.2002 9.81585 14.238 9.7715C14.2758 9.72716 14.3235 9.69224 14.3772 9.66953L15.6944 9.11172C15.7587 9.08442 15.8295 9.07567 15.8985 9.08643C15.9676 9.0972 16.0323 9.12707 16.0853 9.17266L18.0367 10.8517C18.0848 10.8931 18.1216 10.9461 18.1437 11.0056C18.1657 11.0651 18.1723 11.1293 18.1628 11.192C18.0012 12.3008 17.6138 13.3646 17.0247 14.3177C16.9914 14.3732 16.9443 14.4192 16.8879 14.4512C16.8316 14.4832 16.7679 14.5 16.7031 14.5ZM4.30562 9.11547L5.62281 9.67328C5.6765 9.69599 5.72415 9.73091 5.76199 9.77525C5.79983 9.8196 5.82681 9.87216 5.84078 9.92875L6.53734 12.7375C6.56132 12.8329 6.54684 12.9339 6.49703 13.0187L5.74047 14.3125C5.70763 14.3694 5.66042 14.4166 5.60358 14.4495C5.54673 14.4825 5.48224 14.4999 5.41656 14.5H3.29688C3.23277 14.5 3.16972 14.4836 3.11375 14.4524C3.05778 14.4211 3.01076 14.376 2.97719 14.3214C2.38804 13.3683 2.00067 12.3045 1.83906 11.1958C1.82956 11.133 1.83614 11.0689 1.8582 11.0094C1.88025 10.9498 1.91705 10.8969 1.96516 10.8555L3.91656 9.17641C3.96938 9.13117 4.03375 9.10152 4.10245 9.09076C4.17116 9.08 4.2415 9.08855 4.30562 9.11547ZM16.3497 5.02609L15.5027 7.43453C15.4856 7.48375 15.4585 7.52889 15.4231 7.56706C15.3877 7.60523 15.3447 7.63561 15.2969 7.65625L13.9103 8.24359C13.8467 8.27051 13.7769 8.27933 13.7085 8.26907C13.6402 8.25882 13.576 8.22988 13.5231 8.18547L10.8859 5.97344C10.8438 5.93857 10.8098 5.89491 10.7863 5.84552C10.7628 5.79612 10.7504 5.74219 10.75 5.6875V4.11344C10.75 4.05176 10.7653 3.99105 10.7944 3.93668C10.8235 3.8823 10.8656 3.83595 10.9169 3.80172L12.9245 2.46391C12.9769 2.42893 13.0373 2.40772 13.1 2.40224C13.1628 2.39675 13.2259 2.40716 13.2836 2.4325C14.4388 2.93634 15.464 3.69685 16.2812 4.65625C16.3242 4.70641 16.3532 4.76703 16.3652 4.83197C16.3772 4.89691 16.3719 4.96388 16.3497 5.02609ZM7.075 2.46391L9.08313 3.80172C9.13443 3.83595 9.1765 3.8823 9.20561 3.93668C9.23472 3.99105 9.24996 4.05176 9.25 4.11344V5.6875C9.25 5.74228 9.23799 5.7964 9.21483 5.84604C9.19167 5.89568 9.15792 5.93965 9.11594 5.97484L6.47875 8.18688C6.42583 8.23129 6.36167 8.26022 6.29334 8.27048C6.22502 8.28074 6.15519 8.27192 6.09156 8.245L4.70312 7.65625C4.65501 7.63587 4.61168 7.60567 4.57592 7.56757C4.54016 7.52947 4.51276 7.48431 4.49547 7.435L3.64844 5.02656C3.62643 4.96412 3.62134 4.89697 3.63369 4.83193C3.64604 4.76689 3.67538 4.70627 3.71875 4.65625C4.53648 3.69589 5.56251 2.9347 6.71875 2.43062C6.7762 2.40605 6.83888 2.39623 6.9011 2.40204C6.96332 2.40785 7.02309 2.42912 7.075 2.46391ZM7.88641 17.8136L6.96156 15.4844C6.94041 15.4314 6.93162 15.3744 6.93584 15.3175C6.94006 15.2606 6.9572 15.2055 6.98594 15.1562L7.69703 13.9375C7.72987 13.8806 7.77708 13.8334 7.83392 13.8005C7.89077 13.7675 7.95526 13.7501 8.02094 13.75H11.9791C12.0447 13.7501 12.1092 13.7675 12.1661 13.8005C12.2229 13.8334 12.2701 13.8806 12.303 13.9375L13.0145 15.1562C13.0433 15.2055 13.0606 15.2606 13.0649 15.3174C13.0692 15.3743 13.0605 15.4314 13.0394 15.4844L12.1211 17.8127C12.0986 17.8696 12.0626 17.9201 12.0161 17.9599C11.9696 17.9997 11.9141 18.0275 11.8544 18.0409C10.6358 18.3206 9.36978 18.3206 8.15125 18.0409C8.09198 18.0274 8.0369 17.9996 7.99077 17.96C7.94463 17.9204 7.90881 17.8701 7.88641 17.8136Z" fill="#60685F" />
</svg>
    