<svg width="16" height="10" viewBox="0 0 16 10" fill="none" xmlns="http://www.w3.org/2000/svg">
    <path d="M15.44 0.965C15.3638 0.781738 15.2182 0.636106 15.035 0.56C14.9448 0.521569 14.848 0.501185 14.75 0.5H11C10.801 0.5 10.6103 0.579018 10.4696 0.71967C10.329 0.860322 10.25 1.05109 10.25 1.25C10.25 1.44891 10.329 1.63968 10.4696 1.78033C10.6103 1.92098 10.801 2 11 2H12.9425L8.74995 6.1925L6.28245 3.7175C6.21273 3.6472 6.12978 3.59141 6.03839 3.55333C5.94699 3.51526 5.84896 3.49565 5.74995 3.49565C5.65095 3.49565 5.55292 3.51526 5.46152 3.55333C5.37013 3.59141 5.28718 3.6472 5.21745 3.7175L0.717454 8.2175C0.647158 8.28722 0.591362 8.37017 0.553286 8.46157C0.515209 8.55296 0.495605 8.65099 0.495605 8.75C0.495605 8.84901 0.515209 8.94704 0.553286 9.03843C0.591362 9.12983 0.647158 9.21278 0.717454 9.2825C0.787176 9.3528 0.870127 9.40859 0.961522 9.44667C1.05292 9.48475 1.15095 9.50435 1.24995 9.50435C1.34896 9.50435 1.44699 9.48475 1.53839 9.44667C1.62978 9.40859 1.71273 9.3528 1.78245 9.2825L5.74995 5.3075L8.21745 7.7825C8.28718 7.8528 8.37013 7.90859 8.46152 7.94667C8.55292 7.98475 8.65095 8.00435 8.74995 8.00435C8.84896 8.00435 8.94699 7.98475 9.03839 7.94667C9.12978 7.90859 9.21273 7.8528 9.28245 7.7825L14 3.0575V5C14 5.19891 14.079 5.38968 14.2196 5.53033C14.3603 5.67098 14.551 5.75 14.75 5.75C14.9489 5.75 15.1396 5.67098 15.2803 5.53033C15.4209 5.38968 15.5 5.19891 15.5 5V1.25C15.4988 1.15199 15.4784 1.05517 15.44 0.965Z" fill="#60B15A" />
</svg>
    