<svg width="28" height="28" viewBox="0 0 28 28" fill="none" xmlns="http://www.w3.org/2000/svg">
    <g clip-path="url(#clip0_4329_31997)">
        <path d="M23.3013 28L23.3013 0L4.69877 -8.13141e-07L4.69877 28L23.3013 28Z" fill="#E5E5E5" />
        <path d="M23.3013 0L4.69877 -8.13141e-07L4.69877 28L23.3013 28L23.3013 0ZM5.14502 27.5275L5.14502 0.472499L22.855 0.4725L22.855 27.5275L5.14502 27.5275Z" fill="#EFF3F5" />
        <path d="M21.748 26.4484L21.748 1.55469L6.2518 1.55469L6.2518 26.4484L21.748 26.4484Z" fill="#60685F" />
        <path d="M11.4055 3.67219L11.4055 1.55469L11.8299 1.55469L11.8299 3.24781L16.1699 3.24781L16.1699 1.55469L16.5942 1.55469L16.5942 3.67219L11.4055 3.67219Z" fill="#FDFEFE" />
        <path d="M11.4055 26.4476L11.4055 24.3301L16.5942 24.3301L16.5942 26.4476L16.1699 26.4476L16.1699 24.7545L11.8299 24.7545L11.8299 26.4476L11.4055 26.4476Z" fill="#FDFEFE" />
        <path d="M8.85937 6.62969L8.85938 1.55469L9.28375 1.55469L9.28375 6.20531L18.7163 6.20531L18.7163 1.55469L19.1406 1.55469L19.1406 6.62969L8.85937 6.62969Z" fill="#FDFEFE" />
        <path d="M8.85937 26.4461L8.85938 21.3711L19.1406 21.3711L19.1406 26.4461L18.7163 26.4461L18.7163 21.7955L9.28375 21.7955L9.28375 26.4461L8.85937 26.4461Z" fill="#FDFEFE" />
        <path d="M21.748 14.2154L21.748 13.791L6.24742 13.791L6.24742 14.2154L21.748 14.2154Z" fill="#FDFEFE" />
        <path d="M11.0249 14.0016C11.0249 12.3609 12.3593 11.0266 13.9999 11.0266C15.6405 11.0266 16.9749 12.3609 16.9749 14.0016C16.9749 15.6422 15.6405 16.9766 13.9999 16.9766C12.3593 16.9766 11.0249 15.6422 11.0249 14.0016ZM16.5505 14.0016C16.5505 12.5972 15.4087 11.4509 13.9999 11.4509C12.5955 11.4509 11.4493 12.5928 11.4493 14.0016C11.4493 15.4059 12.5912 16.5522 13.9999 16.5522C15.4043 16.5522 16.5505 15.4059 16.5505 14.0016ZM21.748 2.43406C21.2624 2.43406 20.8643 2.04031 20.8643 1.55469L20.4399 1.55469C20.4399 2.27219 21.0262 2.85844 21.748 2.85844L21.748 2.43406V2.43406ZM7.55555 1.55469L7.13117 1.55469C7.13117 2.04031 6.73742 2.43406 6.2518 2.43406L6.2518 2.85844C6.9693 2.85844 7.55555 2.27219 7.55555 1.55469ZM6.2518 25.1447L6.2518 25.5691C6.73742 25.5691 7.13117 25.9628 7.13117 26.4484L7.55555 26.4484C7.55555 25.7309 6.9693 25.1447 6.2518 25.1447ZM21.748 25.5691L21.748 25.1447C21.0262 25.1447 20.4399 25.7309 20.4399 26.4484L20.8643 26.4484C20.8643 25.9672 21.2668 25.5691 21.748 25.5691Z" fill="#FDFEFE" />
    </g>
    <defs>
        <clipPath id="clip0_4329_31997">
            <rect width="28" height="28" fill="white" transform="translate(28) rotate(90)" />
        </clipPath>
    </defs>
</svg>
    