<svg width="18" height="17" viewBox="0 0 18 17" fill="none" xmlns="http://www.w3.org/2000/svg">
    <path d="M16.5721 2.55157C15.6403 1.54097 14.3617 0.984375 12.9717 0.984375C11.9327 0.984375 10.9811 1.31287 10.1434 1.96065C9.7207 2.28763 9.33769 2.68767 9 3.15459C8.66245 2.68781 8.2793 2.28763 7.85646 1.96065C7.01889 1.31287 6.06734 0.984375 5.02831 0.984375C3.63826 0.984375 2.35959 1.54097 1.42781 2.55157C0.507156 3.55037 0 4.91487 0 6.39391C0 7.9162 0.567307 9.30968 1.78528 10.7794C2.87485 12.094 4.44081 13.4286 6.25424 14.974C6.87346 15.5017 7.57535 16.0999 8.30415 16.7371C8.49669 16.9058 8.74374 16.9986 9 16.9986C9.25612 16.9986 9.50331 16.9058 9.69557 16.7374C10.4244 16.1001 11.1267 15.5016 11.7462 14.9735C13.5593 13.4285 15.1253 12.094 16.2149 10.7792C17.4328 9.30968 18 7.9162 18 6.39377C18 4.91487 17.4928 3.55037 16.5721 2.55157Z" fill="#E7E7E7" />
</svg>
    