<svg width="16" height="16" viewBox="0 0 16 16" fill="none" xmlns="http://www.w3.org/2000/svg">
    <path d="M7.57731 1.30091C7.71035 0.891439 8.28965 0.89144 8.42269 1.30091L9.69633 5.22076C9.75583 5.40388 9.92647 5.52786 10.119 5.52786H14.2406C14.6711 5.52786 14.8501 6.0788 14.5018 6.33187L11.1674 8.75447C11.0116 8.86765 10.9465 9.06825 11.006 9.25138L12.2796 13.1712C12.4126 13.5807 11.944 13.9212 11.5957 13.6681L8.26124 11.2455C8.10547 11.1324 7.89453 11.1324 7.73876 11.2455L4.40434 13.6681C4.05602 13.9212 3.58736 13.5807 3.72041 13.1712L4.99405 9.25138C5.05355 9.06825 4.98836 8.86765 4.83259 8.75447L1.49817 6.33187C1.14985 6.0788 1.32886 5.52786 1.75941 5.52786H5.88098C6.07353 5.52786 6.24417 5.40388 6.30367 5.22076L7.57731 1.30091Z" fill="#99CE95" />
    <path d="M7.57736 1.30091C7.71041 0.891439 8.2897 0.89144 8.42275 1.30091L9.78194 5.48409C9.7914 5.5132 9.80384 5.54124 9.81906 5.56779L11.3044 8.15875C11.4161 8.35358 11.3649 8.60111 11.1851 8.73565L11.161 8.75366C11.0086 8.86764 10.9458 9.06593 11.0045 9.24687L12.2796 13.1712C12.4127 13.5807 11.944 13.9212 11.5957 13.6681L8.26129 11.2455C8.10552 11.1324 7.89459 11.1324 7.73882 11.2455L4.40439 13.6681C4.05607 13.9212 3.58742 13.5807 3.72046 13.1712L4.9941 9.25138C5.0536 9.06825 4.98842 8.86765 4.83265 8.75447L1.49822 6.33187C1.1499 6.0788 1.32892 5.52786 1.75946 5.52786H5.88103C6.07358 5.52786 6.24423 5.40388 6.30373 5.22076L7.57736 1.30091Z" fill="#60B15A" />
</svg>
    