<svg width="16" height="12" viewBox="0 0 16 12" fill="none" xmlns="http://www.w3.org/2000/svg">
    <path d="M7.20005 2.80039C7.20005 3.43691 6.94719 4.04736 6.49711 4.49745C6.04702 4.94754 5.43657 5.20039 4.80005 5.20039C4.16353 5.20039 3.55308 4.94754 3.10299 4.49745C2.65291 4.04736 2.40005 3.43691 2.40005 2.80039C2.40005 2.16387 2.65291 1.55342 3.10299 1.10333C3.55308 0.653247 4.16353 0.400391 4.80005 0.400391C5.43657 0.400391 6.04702 0.653247 6.49711 1.10333C6.94719 1.55342 7.20005 2.16387 7.20005 2.80039ZM13.6 2.80039C13.6 3.11556 13.538 3.42765 13.4174 3.71883C13.2967 4.01001 13.12 4.27459 12.8971 4.49745C12.6742 4.72031 12.4097 4.89709 12.1185 5.0177C11.8273 5.13831 11.5152 5.20039 11.2 5.20039C10.8849 5.20039 10.5728 5.13831 10.2816 5.0177C9.99043 4.89709 9.72585 4.72031 9.50299 4.49745C9.28013 4.27459 9.10335 4.01001 8.98274 3.71883C8.86213 3.42765 8.80005 3.11556 8.80005 2.80039C8.80005 2.16387 9.0529 1.55342 9.50299 1.10333C9.95308 0.653247 10.5635 0.400391 11.2 0.400391C11.8366 0.400391 12.447 0.653247 12.8971 1.10333C13.3472 1.55342 13.6 2.16387 13.6 2.80039ZM10.344 11.6004C10.3808 11.3388 10.4 11.0724 10.4 10.8004C10.4019 9.54348 9.97903 8.32281 9.20005 7.33639C9.80812 6.98532 10.4979 6.8005 11.2 6.80049C11.9022 6.80049 12.5919 6.9853 13.2 7.33637C13.8081 7.68743 14.313 8.19236 14.6641 8.80043C15.0152 9.40849 15.2 10.0983 15.2 10.8004V11.6004H10.344ZM4.80005 6.80039C5.86091 6.80039 6.87833 7.22182 7.62848 7.97196C8.37862 8.72211 8.80005 9.73953 8.80005 10.8004V11.6004H0.800049V10.8004C0.800049 9.73953 1.22148 8.72211 1.97162 7.97196C2.72177 7.22182 3.73918 6.80039 4.80005 6.80039Z" fill="#60B15A" />
</svg>
    