<svg width="9" height="12" viewBox="0 0 9 12" fill="none" xmlns="http://www.w3.org/2000/svg">
  <path
    d="M6.66431 5.94885C6.76721 5.81899 6.74534 5.63031 6.61548 5.52741L6.26986 5.25356C6.13999 5.15066 5.95129 5.17253 5.8484 5.30241L5.29245 6.00422C5.11591 6.22707 4.75729 6.10224 4.75729 5.81793V0.749218C4.75729 0.583533 4.62298 0.449219 4.45729 0.449219H4.01637C3.85069 0.449219 3.71637 0.583533 3.71637 0.749219V5.81793C3.71637 6.10224 3.35775 6.22707 3.18122 6.00422L2.62526 5.30241C2.52237 5.17253 2.33367 5.15066 2.2038 5.25356L1.85818 5.52741C1.72832 5.63031 1.70646 5.81899 1.80935 5.94885L4.00169 8.71587C4.1218 8.86747 4.35186 8.86747 4.47197 8.71587L6.66431 5.94885Z"
    fill="currentColor" />
  <path
    d="M7.95317 10.5117H0.520459C0.233018 10.5117 0 10.7447 0 11.0322C0 11.3196 0.233018 11.5526 0.52046 11.5526H7.95317C8.24061 11.5526 8.47363 11.3196 8.47363 11.0322C8.47363 10.7447 8.24061 10.5117 7.95317 10.5117Z"
    fill="currentColor" />
</svg>