<svg width="14" height="12" viewBox="0 0 14 12" fill="none" xmlns="http://www.w3.org/2000/svg">
  <path fill-rule="evenodd" clip-rule="evenodd"
    d="M2.5945 0.604701C2.46248 0.477191 2.28566 0.406635 2.10212 0.40823C1.91858 0.409824 1.74301 0.483443 1.61323 0.613228C1.48344 0.743014 1.40982 0.918583 1.40823 1.10212C1.40663 1.28566 1.47719 1.46248 1.6047 1.5945L11.4047 11.3945C11.5367 11.522 11.7135 11.5926 11.8971 11.591C12.0806 11.5894 12.2562 11.5158 12.386 11.386C12.5158 11.2562 12.5894 11.0806 12.591 10.8971C12.5926 10.7135 12.522 10.5367 12.3945 10.4047L11.3634 9.3736C12.4537 8.50428 13.2599 7.32955 13.679 5.9996C12.7872 3.1597 10.1342 1.0996 6.9996 1.0996C5.9023 1.09811 4.82015 1.3557 3.8412 1.8514L2.5952 0.604701H2.5945ZM5.5772 3.5867L6.637 4.6472C6.87436 4.58417 7.12412 4.58458 7.36127 4.64841C7.59842 4.71224 7.81465 4.83724 7.9883 5.0109C8.16196 5.18456 8.28696 5.40078 8.35079 5.63793C8.41462 5.87508 8.41504 6.12484 8.352 6.3622L9.4118 7.422C9.72749 6.88722 9.85644 6.26266 9.77836 5.64657C9.70028 5.03049 9.4196 4.45785 8.98048 4.01873C8.54135 3.57961 7.96871 3.29893 7.35263 3.22085C6.73654 3.14276 6.11199 3.27171 5.5772 3.5874V3.5867Z"
    fill="currentColor" />
  <path
    d="M8.71751 10.6888L6.82471 8.79527C6.14409 8.75263 5.50243 8.46306 5.02015 7.98091C4.53787 7.49876 4.24814 6.85718 4.20531 6.17657L1.63421 3.60547C1.04286 4.30968 0.596357 5.12371 0.320312 6.00087C1.21211 8.84077 3.86581 10.9009 6.99971 10.9009C7.59261 10.9009 8.16801 10.8274 8.71751 10.6888Z"
    fill="currentColor" />
</svg>