<svg width="14" height="10" viewBox="0 0 14 10" fill="none" xmlns="http://www.w3.org/2000/svg">
  <path
    d="M6.99961 6.39961C7.37091 6.39961 7.72701 6.25211 7.98956 5.98956C8.25211 5.72701 8.39961 5.37091 8.39961 4.99961C8.39961 4.62831 8.25211 4.27221 7.98956 4.00966C7.72701 3.74711 7.37091 3.59961 6.99961 3.59961C6.62831 3.59961 6.27221 3.74711 6.00966 4.00966C5.74711 4.27221 5.59961 4.62831 5.59961 4.99961C5.59961 5.37091 5.74711 5.72701 6.00966 5.98956C6.27221 6.25211 6.62831 6.39961 6.99961 6.39961Z"
    fill="currentColor" />
  <path fill-rule="evenodd" clip-rule="evenodd"
    d="M0.320312 4.99961C1.21211 2.15971 3.86511 0.0996094 6.99971 0.0996094C10.1343 0.0996094 12.7873 2.15971 13.6791 4.99961C12.7873 7.83951 10.1343 9.89961 6.99971 9.89961C3.86511 9.89961 1.21211 7.83951 0.320312 4.99961ZM9.79971 4.99961C9.79971 5.74222 9.50471 6.45441 8.97961 6.97951C8.45451 7.50461 7.74232 7.79961 6.99971 7.79961C6.25711 7.79961 5.54492 7.50461 5.01981 6.97951C4.49471 6.45441 4.19971 5.74222 4.19971 4.99961C4.19971 4.257 4.49471 3.54481 5.01981 3.01971C5.54492 2.49461 6.25711 2.19961 6.99971 2.19961C7.74232 2.19961 8.45451 2.49461 8.97961 3.01971C9.50471 3.54481 9.79971 4.257 9.79971 4.99961V4.99961Z"
    fill="currentColor" />
</svg>