<svg width="30" height="30" viewBox="0 0 30 30" fill="none" xmlns="http://www.w3.org/2000/svg">
<path d="M15 30C23.2843 30 30 23.2843 30 15C30 6.71573 23.2843 0 15 0C6.71573 0 0 6.71573 0 15C0 23.2843 6.71573 30 15 30Z" fill="url(#paint0_linear_17_14)"/>
<path fill-rule="evenodd" clip-rule="evenodd" d="M6.78984 14.8417C11.1626 12.9365 14.0785 11.6805 15.5375 11.0737C19.7032 9.34102 20.5687 9.04004 21.1329 9.0301C21.257 9.02792 21.5345 9.05867 21.7142 9.2045C21.8659 9.32763 21.9077 9.49397 21.9277 9.61072C21.9476 9.72746 21.9725 9.99341 21.9527 10.2012C21.727 12.5731 20.7502 18.3289 20.2533 20.9854C20.043 22.1095 19.629 22.4864 19.2282 22.5233C18.3571 22.6034 17.6957 21.9476 16.852 21.3946C15.5318 20.5292 14.786 19.9905 13.5045 19.146C12.0235 18.1701 12.9836 17.6337 13.8276 16.757C14.0484 16.5276 17.8864 13.0367 17.9607 12.72C17.97 12.6804 17.9786 12.5328 17.8909 12.4548C17.8032 12.3769 17.6738 12.4035 17.5804 12.4247C17.4479 12.4548 15.3389 13.8488 11.2533 16.6067C10.6546 17.0177 10.1124 17.218 9.62658 17.2075C9.091 17.196 8.06077 16.9047 7.29489 16.6558C6.35552 16.3504 5.60892 16.189 5.67393 15.6704C5.70779 15.4003 6.07976 15.124 6.78984 14.8417Z" fill="white"/>
<defs>
<linearGradient id="paint0_linear_17_14" x1="15" y1="0" x2="15" y2="29.7775" gradientUnits="userSpaceOnUse">
<stop stop-color="#2AABEE"/>
<stop offset="1" stop-color="#229ED9"/>
</linearGradient>
</defs>
</svg>
