<svg width="26" height="22" viewBox="0 0 26 22" fill="none" xmlns="http://www.w3.org/2000/svg">
<path d="M8.17648 21.5639C17.9878 21.5639 23.3542 13.4352 23.3542 6.38609C23.3542 6.15521 23.3542 5.92537 23.3386 5.69657C24.3826 4.94144 25.2838 4.00645 26 2.93537C25.0265 3.36697 23.9937 3.64989 22.9362 3.77465C24.0498 3.10807 24.8833 2.0595 25.2814 0.824172C24.2343 1.44558 23.0887 1.88348 21.8941 2.11897C21.0898 1.26376 20.0261 0.697467 18.8675 0.507714C17.709 0.317961 16.5202 0.51533 15.4851 1.06928C14.4501 1.62323 13.6264 2.50288 13.1416 3.5721C12.6569 4.64132 12.538 5.84051 12.8034 6.98409C10.6826 6.87771 8.6079 6.32654 6.71391 5.36638C4.81992 4.40621 3.14899 3.0585 1.8096 1.41073C1.12746 2.58506 0.918528 3.97523 1.22536 5.29819C1.53219 6.62115 2.3317 7.77743 3.46112 8.53161C2.61217 8.50674 1.7817 8.27772 1.04 7.86393V7.93153C1.04034 9.16312 1.46667 10.3567 2.24669 11.3098C3.02672 12.2628 4.1124 12.9168 5.3196 13.1607C4.53427 13.3749 3.71028 13.4062 2.91096 13.2522C3.25197 14.312 3.91563 15.2388 4.80918 15.903C5.70272 16.5672 6.78148 16.9356 7.89464 16.9567C6.78864 17.826 5.52209 18.4688 4.16745 18.8482C2.8128 19.2275 1.39665 19.3361 0 19.1677C2.43949 20.7331 5.27792 21.5635 8.17648 21.5597" fill="#1DA1F2"/>
</svg>
