<svg width="29" height="29" viewBox="0 0 29 29" fill="none" xmlns="http://www.w3.org/2000/svg">
<rect x="0.755859" y="0.490234" width="27.5745" height="27.5745" rx="8.04255" fill="#EEF5ED"/>
<path d="M14.3513 4.70898C8.58544 4.70898 3.91016 9.38422 3.91016 15.1502C3.91016 20.9161 8.58544 25.5913 14.3513 25.5913C20.1177 25.5913 24.7925 20.916 24.7925 15.1502C24.7925 9.38432 20.1176 4.70898 14.3513 4.70898ZM16.417 24.496C15.7386 24.6293 14.8947 24.7061 14.2083 24.7193C13.5581 24.7101 12.9106 24.6345 12.2757 24.4938C12.1617 24.4645 12.0479 24.4347 11.9341 24.4046L10.7084 21.1199L11.6946 19.166H17.0082L17.0368 19.22L18.0076 21.1703L16.8221 24.3971C16.6878 24.433 16.5527 24.466 16.417 24.496ZM11.0171 6.17878L13.8995 8.15136V11.0702L10.3356 14.0855L7.85571 12.9555L7.64654 12.8602L6.52552 9.64655C7.63033 8.08018 9.19294 6.85896 11.0171 6.17878ZM22.1603 9.63175L21.0343 12.8687L18.324 14.0929L14.7529 11.0702V8.15136L17.6441 6.17281C19.4694 6.84963 21.0528 8.06788 22.1603 9.63175ZM4.82095 16.0243L7.51939 13.6892L10.0061 14.8236L10.0342 14.8364L11.024 18.7161L9.99831 20.6501L6.49148 20.6042C5.57045 19.281 4.9748 17.7155 4.82095 16.0243ZM18.7044 20.6501L17.6787 18.716L18.6702 14.8299L21.18 13.6863L23.8817 16.0243C23.7278 17.7155 23.1322 19.281 22.2113 20.6042L18.7044 20.6501Z" fill="#60B15A"/>
</svg>
