<svg width="28" height="28" viewBox="0 0 28 28" fill="none" xmlns="http://www.w3.org/2000/svg">
<rect width="27.5745" height="27.5745" rx="8.04255" fill="#60685F" fill-opacity="0.1"/>
<path d="M13.5955 4.21875C7.82958 4.21875 3.1543 8.89399 3.1543 14.6599C3.1543 20.4259 7.82958 25.1011 13.5955 25.1011C19.3618 25.1011 24.0366 20.4258 24.0366 14.6599C24.0366 8.89409 19.3617 4.21875 13.5955 4.21875ZM15.6612 24.0057C14.9828 24.1391 14.1388 24.2159 13.4525 24.2291C12.8023 24.2198 12.1547 24.1442 11.5198 24.0036C11.4059 23.9742 11.292 23.9445 11.1782 23.9144L9.95255 20.6297L10.9387 18.6758H16.2523L16.281 18.7298L17.2518 20.6801L16.0662 23.9069C15.9319 23.9428 15.7969 23.9757 15.6612 24.0057V24.0057ZM10.2612 5.68855L13.1437 7.66112V10.58L9.57978 13.5952L7.09985 12.4653L6.89068 12.3699L5.76966 9.15632C6.87447 7.58994 8.43708 6.36873 10.2612 5.68855ZM21.4045 9.14151L20.2784 12.3784L17.5681 13.6027L13.9971 10.58V7.66112L16.8883 5.68257C18.7135 6.35939 20.2969 7.57764 21.4045 9.14151V9.14151ZM4.06509 15.5341L6.76353 13.199L9.25028 14.3334L9.27834 14.3462L10.2681 18.2258L9.24245 20.1599L5.73563 20.114C4.81459 18.7908 4.21894 17.2253 4.06509 15.5341ZM17.9486 20.1599L16.9228 18.2258L17.9143 14.3397L20.4241 13.1961L23.1258 15.5341C22.972 17.2253 22.3763 18.7908 21.4554 20.1139L17.9486 20.1599Z" fill="#60685F"/>
</svg>
