<svg width="28" height="28" viewBox="0 0 28 28" fill="none" xmlns="http://www.w3.org/2000/svg">
<rect width="27.5745" height="27.5745" rx="8.04255" fill="#EEF5ED"/>
<g clip-path="url(#clip0_5163_36121)">
<path fill-rule="evenodd" clip-rule="evenodd" d="M4.75094 5.06367C4.39955 5.25774 4.09438 5.57954 3.87187 6.0378C3.63964 6.51608 3.48888 7.17715 3.43781 7.96595C3.26881 10.6065 4.1953 14.8648 5.60693 17.5855C8.13108 22.451 11.769 24.3517 13.7132 24.3517C15.6573 24.3517 19.2952 22.451 21.8194 17.5855C23.231 14.8648 24.1575 10.6065 23.9885 7.96595C23.9374 7.17715 23.7867 6.51608 23.5544 6.0378C23.3319 5.57954 23.0268 5.25774 22.6754 5.06367C20.6084 3.9268 17.2039 3.30827 13.7739 3.297C10.344 3.28698 6.89817 3.88173 4.75094 5.06367ZM5.65313 6.70639C7.5815 5.6459 10.6869 5.16263 13.7679 5.17265C16.8489 5.18266 19.9178 5.68596 21.7732 6.70639C21.8559 6.75147 21.879 6.86416 21.9239 6.98311C22.0334 7.2786 22.093 7.65419 22.1209 8.08615C22.2717 10.4576 21.4254 14.2776 20.1585 16.7217C18.8782 19.1895 17.3024 20.8021 15.8823 21.6886C15.0494 22.2082 14.2919 22.4761 13.7132 22.4761C13.1344 22.4761 12.3769 22.2082 11.544 21.6886C10.1239 20.8021 8.54813 19.1895 7.26781 16.7217C6.00087 14.2776 5.1546 10.4576 5.30537 8.08615C5.33334 7.65419 5.39294 7.2786 5.50237 6.98311C5.54735 6.86416 5.57045 6.75147 5.65313 6.70639Z" fill="#60B15A"/>
<path fill-rule="evenodd" clip-rule="evenodd" d="M16.1843 9.16307C15.6218 8.53562 14.7656 8.125 13.8025 8.125C12.064 8.125 10.6992 9.44942 10.6992 11.018C10.6992 12.5867 12.064 13.9111 13.8025 13.9111C14.4569 13.9111 15.0334 14.3382 15.0334 14.9287C15.0334 15.5192 14.4569 15.9464 13.8025 15.9464C13.4028 15.9464 13.0421 15.7882 12.8099 15.5271C12.4666 15.1403 11.8743 15.1056 11.4885 15.4497C11.1023 15.7934 11.0676 16.3865 11.411 16.7733C11.9735 17.4064 12.834 17.8218 13.8025 17.8218C15.5409 17.8218 16.9057 16.4973 16.9057 14.9287C16.9057 13.3601 15.5409 12.0357 13.8025 12.0357C13.148 12.0357 12.5716 11.6086 12.5716 11.018C12.5716 10.4275 13.148 10.0004 13.8025 10.0004C14.2002 10.0004 14.5595 10.1568 14.7916 10.4158C15.1369 10.8008 15.7292 10.8329 16.1135 10.4871C16.4978 10.1412 16.5296 9.54806 16.1843 9.16307Z" fill="#60B15A"/>
<path fill-rule="evenodd" clip-rule="evenodd" d="M12.8652 7.75367V9.05723C12.8652 9.57474 13.2849 9.99449 13.8014 9.99449C14.3179 9.99449 14.7376 9.57474 14.7376 9.05723V7.75367C14.7376 7.23615 14.3179 6.81641 13.8014 6.81641C13.2849 6.81641 12.8652 7.23615 12.8652 7.75367ZM14.7376 18.1822V16.8929C14.7376 16.3754 14.3179 15.9557 13.8014 15.9557C13.2849 15.9557 12.8652 16.3754 12.8652 16.8929V18.1822C12.8652 18.6997 13.2849 19.1194 13.8014 19.1194C14.3179 19.1194 14.7376 18.6997 14.7376 18.1822Z" fill="#60B15A"/>
</g>
<defs>
<clipPath id="clip0_5163_36121">
<rect width="26" height="25" fill="white" transform="translate(1.14062 1.50977)"/>
</clipPath>
</defs>
</svg>
