<svg width="28" height="29" viewBox="0 0 28 29" fill="none" xmlns="http://www.w3.org/2000/svg">
<rect x="0.0644531" y="0.490234" width="27.5745" height="27.5745" rx="8.04255" fill="#60685F" fill-opacity="0.1"/>
<g clip-path="url(#clip0_5155_34016)">
<path fill-rule="evenodd" clip-rule="evenodd" d="M4.81735 5.55391C4.46596 5.74798 4.16079 6.06978 3.93828 6.52803C3.70605 7.00632 3.55529 7.66738 3.50422 8.45618C3.33521 11.0968 4.2617 15.355 5.67333 18.0758C8.19749 22.9413 11.8354 24.842 13.7796 24.842C15.7237 24.842 19.3616 22.9413 21.8858 18.0758C23.2974 15.355 24.2239 11.0968 24.0549 8.45618C24.0038 7.66738 23.8531 7.00632 23.6208 6.52803C23.3983 6.06978 23.0932 5.74798 22.7418 5.55391C20.6748 4.41703 17.2703 3.7985 13.8403 3.78723C10.4104 3.77722 6.96458 4.37196 4.81735 5.55391ZM5.71953 7.19663C7.64791 6.13613 10.7533 5.65287 13.8343 5.66288C16.9153 5.6729 19.9842 6.1762 21.8396 7.19663C21.9223 7.2417 21.9454 7.3544 21.9903 7.47334C22.0998 7.76883 22.1594 8.14443 22.1873 8.57639C22.3381 10.9478 21.4918 14.7679 20.2249 17.2119C18.9446 19.6797 17.3688 21.2924 15.9487 22.1788C15.1158 22.6984 14.3583 22.9663 13.7796 22.9663C13.2008 22.9663 12.4433 22.6984 11.6104 22.1788C10.1903 21.2924 8.61453 19.6797 7.33422 17.2119C6.06727 14.7679 5.22101 10.9478 5.37178 8.57639C5.39974 8.14443 5.45934 7.76883 5.56877 7.47334C5.61376 7.3544 5.63685 7.2417 5.71953 7.19663Z" fill="#60685F"/>
<path fill-rule="evenodd" clip-rule="evenodd" d="M16.2507 9.6533C15.6883 9.02586 14.832 8.61523 13.8689 8.61523C12.1304 8.61523 10.7656 9.93965 10.7656 11.5083C10.7656 13.0769 12.1304 14.4013 13.8689 14.4013C14.5233 14.4013 15.0998 14.8284 15.0998 15.419C15.0998 16.0095 14.5233 16.4366 13.8689 16.4366C13.4692 16.4366 13.1085 16.2784 12.8764 16.0173C12.533 15.6306 11.9407 15.5958 11.5549 15.94C11.1687 16.2837 11.134 16.8768 11.4774 17.2635C12.0399 17.8966 12.9004 18.312 13.8689 18.312C15.6073 18.312 16.9721 16.9876 16.9721 15.419C16.9721 13.8503 15.6073 12.5259 13.8689 12.5259C13.2144 12.5259 12.638 12.0988 12.638 11.5083C12.638 10.9178 13.2144 10.4906 13.8689 10.4906C14.2667 10.4906 14.6259 10.6471 14.858 10.906C15.2033 11.291 15.7956 11.3232 16.1799 10.9773C16.5642 10.6314 16.596 10.0383 16.2507 9.6533Z" fill="#60685F"/>
<path fill-rule="evenodd" clip-rule="evenodd" d="M12.9316 8.2439V9.54746C12.9316 10.065 13.3513 10.4847 13.8678 10.4847C14.3843 10.4847 14.804 10.065 14.804 9.54746V8.2439C14.804 7.72639 14.3843 7.30664 13.8678 7.30664C13.3513 7.30664 12.9316 7.72639 12.9316 8.2439ZM14.804 18.6724V17.3832C14.804 16.8657 14.3843 16.4459 13.8678 16.4459C13.3513 16.4459 12.9316 16.8657 12.9316 17.3832V18.6724C12.9316 19.1899 13.3513 19.6097 13.8678 19.6097C14.3843 19.6097 14.804 19.1899 14.804 18.6724Z" fill="#60685F"/>
</g>
<defs>
<clipPath id="clip0_5155_34016">
<rect width="26" height="25" fill="white" transform="translate(1.20703 2)"/>
</clipPath>
</defs>
</svg>
