<svg width="14" height="14" viewBox="0 0 14 14" fill="none" xmlns="http://www.w3.org/2000/svg">
<path d="M6.99961 8.39961C7.37091 8.39961 7.72701 8.25211 7.98956 7.98956C8.25211 7.72701 8.39961 7.37091 8.39961 6.99961C8.39961 6.62831 8.25211 6.27221 7.98956 6.00966C7.72701 5.74711 7.37091 5.59961 6.99961 5.59961C6.62831 5.59961 6.27221 5.74711 6.00966 6.00966C5.74711 6.27221 5.59961 6.62831 5.59961 6.99961C5.59961 7.37091 5.74711 7.72701 6.00966 7.98956C6.27221 8.25211 6.62831 8.39961 6.99961 8.39961Z" fill="#60B15A"/>
<path fill-rule="evenodd" clip-rule="evenodd" d="M0.320312 6.99961C1.21211 4.15971 3.86511 2.09961 6.99971 2.09961C10.1343 2.09961 12.7873 4.15971 13.6791 6.99961C12.7873 9.83951 10.1343 11.8996 6.99971 11.8996C3.86511 11.8996 1.21211 9.83951 0.320312 6.99961ZM9.79971 6.99961C9.79971 7.74222 9.50471 8.45441 8.97961 8.97951C8.45451 9.50461 7.74232 9.79961 6.99971 9.79961C6.25711 9.79961 5.54492 9.50461 5.01981 8.97951C4.49471 8.45441 4.19971 7.74222 4.19971 6.99961C4.19971 6.257 4.49471 5.54481 5.01981 5.01971C5.54492 4.49461 6.25711 4.19961 6.99971 4.19961C7.74232 4.19961 8.45451 4.49461 8.97961 5.01971C9.50471 5.54481 9.79971 6.257 9.79971 6.99961Z" fill="#60B15A"/>
</svg>
