<svg width="14" height="14" viewBox="0 0 14 14" fill="none" xmlns="http://www.w3.org/2000/svg">
<path fill-rule="evenodd" clip-rule="evenodd" d="M2.5945 1.6047C2.46248 1.47719 2.28566 1.40663 2.10212 1.40823C1.91858 1.40982 1.74301 1.48344 1.61323 1.61323C1.48344 1.74301 1.40982 1.91858 1.40823 2.10212C1.40663 2.28566 1.47719 2.46248 1.6047 2.5945L11.4047 12.3945C11.5367 12.522 11.7135 12.5926 11.8971 12.591C12.0806 12.5894 12.2562 12.5158 12.386 12.386C12.5158 12.2562 12.5894 12.0806 12.591 11.8971C12.5926 11.7135 12.522 11.5367 12.3945 11.4047L11.3634 10.3736C12.4537 9.50428 13.2599 8.32955 13.679 6.9996C12.7872 4.1597 10.1342 2.0996 6.9996 2.0996C5.9023 2.09811 4.82015 2.3557 3.8412 2.8514L2.5952 1.6047H2.5945ZM5.5772 4.5867L6.637 5.6472C6.87436 5.58417 7.12412 5.58458 7.36127 5.64841C7.59842 5.71224 7.81465 5.83724 7.98831 6.0109C8.16196 6.18456 8.28696 6.40078 8.35079 6.63793C8.41462 6.87508 8.41504 7.12484 8.352 7.3622L9.4118 8.422C9.72749 7.88722 9.85644 7.26266 9.77836 6.64657C9.70028 6.03049 9.4196 5.45785 8.98048 5.01873C8.54135 4.57961 7.96871 4.29893 7.35263 4.22085C6.73654 4.14276 6.11199 4.27171 5.5772 4.5874V4.5867Z" fill="#B84545"/>
<path d="M8.71751 11.6888L6.82471 9.79527C6.14409 9.75263 5.50243 9.46306 5.02015 8.98091C4.53787 8.49876 4.24814 7.85718 4.20531 7.17657L1.63421 4.60547C1.04286 5.30968 0.596357 6.12371 0.320312 7.00087C1.21211 9.84077 3.86581 11.9009 6.99971 11.9009C7.59261 11.9009 8.16801 11.8274 8.71751 11.6888Z" fill="#B84545"/>
</svg>
