<svg width="408" height="167" viewBox="0 0 408 167" fill="none" xmlns="http://www.w3.org/2000/svg">
<path d="M384.341 139.293L338.577 91.5898H62.4403L21.3301 139.293H384.341Z" fill="#F9F9F9" stroke="#E6E6E6" stroke-width="1.55133"/>
<path d="M302.897 115.247L280.015 91.9766H143.498L126.434 115.247H302.897Z" fill="#F7F7F7" stroke="#DAE3E9" stroke-width="1.55133"/>
<path d="M139.232 35.3535H274.198" stroke="#EBEBEB" stroke-width="0.387833"/>
<path d="M138.844 45.0488H271.87" stroke="#EBEBEB" stroke-width="0.387833"/>
<path d="M140.008 55.5215H272.647" stroke="#EBEBEB" stroke-width="0.387833"/>
<path d="M140.395 64.0527H271.482" stroke="#EBEBEB" stroke-width="0.387833"/>
<path d="M141.172 75.6875H270.708" stroke="#EBEBEB" stroke-width="0.387833"/>
<path d="M141.947 82.6699H270.708" stroke="#E3E3E3" stroke-width="2.327"/>
<path d="M136.904 15.5742H276.136M136.904 25.6579H273.809" stroke="#EBEBEB" stroke-width="0.387833"/>
<path d="M128.76 5.87891H283.117" stroke="#DCDCDC" stroke-width="0.387833"/>
<path d="M122.943 81.8942L141.171 71.8105" stroke="#DCDCDC" stroke-width="0.387833"/>
<path d="M288.936 81.8942L270.707 71.8105" stroke="#DCDCDC" stroke-width="0.387833"/>
<path d="M122.555 90.0382L141.946 78.791" stroke="#DCDCDC" stroke-width="0.387833"/>
<path d="M289.322 90.0382L269.931 78.791" stroke="#DCDCDC" stroke-width="0.387833"/>
<path d="M122.555 74.5242L140.783 64.0527" stroke="#DCDCDC" stroke-width="0.387833"/>
<path d="M289.322 74.5242L271.094 64.0527" stroke="#DCDCDC" stroke-width="0.387833"/>
<path d="M122.943 65.9927L140.008 56.2969" stroke="#DCDCDC" stroke-width="0.387833"/>
<path d="M288.936 65.9927L271.871 56.2969" stroke="#DCDCDC" stroke-width="0.387833"/>
<path d="M139.231 48.1523L122.555 57.4603" stroke="#DCDCDC" stroke-width="0.387833"/>
<path d="M272.645 48.1523L289.322 57.4603" stroke="#DCDCDC" stroke-width="0.387833"/>
<path d="M138.457 33.0273L122.943 41.5597" stroke="#DCDCDC" stroke-width="0.387833"/>
<path d="M273.422 33.0273L288.936 41.5597" stroke="#DCDCDC" stroke-width="0.387833"/>
<path d="M122.943 49.3147L138.457 40.3945" stroke="#DCDCDC" stroke-width="0.387833"/>
<path d="M288.936 49.3147L273.422 40.3945" stroke="#DCDCDC" stroke-width="0.387833"/>
<path d="M137.292 25.2695L122.555 33.0262" stroke="#DCDCDC" stroke-width="0.387833"/>
<path d="M274.585 25.2695L289.322 33.0262" stroke="#DCDCDC" stroke-width="0.387833"/>
<path d="M123.719 16.3496L135.354 10.9199M136.13 18.2887L122.943 25.2697" stroke="#DCDCDC" stroke-width="0.387833"/>
<path d="M288.16 16.3496L276.525 10.9199M275.749 18.2887L288.936 25.2697" stroke="#DCDCDC" stroke-width="0.387833"/>
<path d="M127.597 2C131.605 3.55133 135.819 8.67072 136.13 12.0837C136.44 15.4966 140.137 60.8213 141.947 83.057L122.943 91.2015" stroke="#E3E3E3" stroke-width="2.327"/>
<path d="M285.057 2C281.05 3.55133 276.06 9.05856 275.749 12.4715C275.439 15.8844 271.742 61.2091 269.932 83.4449L288.936 91.2015" stroke="#E3E3E3" stroke-width="2.327"/>
<path d="M122.555 91.9772C122.555 64.1825 122.555 7.97262 122.555 5.49049C122.555 2.38783 125.657 2 129.536 2C133.414 2 280.403 2 284.669 2C288.935 2 288.935 4.327 288.935 8.98099C288.935 12.7042 288.935 65.0875 288.935 91.2015" stroke="#E3E3E3" stroke-width="2.327"/>
<line x1="146.795" y1="5.87891" x2="146.795" y2="81.8941" stroke="#EBEBEB" stroke-width="0.387833"/>
<line x1="155.327" y1="5.87891" x2="155.327" y2="82.6698" stroke="#EBEBEB" stroke-width="0.387833"/>
<line x1="164.635" y1="5.87891" x2="164.635" y2="82.6698" stroke="#EBEBEB" stroke-width="0.387833"/>
<line x1="173.944" y1="5.87891" x2="173.944" y2="82.6698" stroke="#EBEBEB" stroke-width="0.387833"/>
<line x1="183.251" y1="5.87891" x2="183.251" y2="82.6698" stroke="#EBEBEB" stroke-width="0.387833"/>
<line x1="192.559" y1="5.87891" x2="192.559" y2="82.6698" stroke="#EBEBEB" stroke-width="0.387833"/>
<line x1="201.868" y1="5.87891" x2="201.868" y2="82.6698" stroke="#EBEBEB" stroke-width="0.387833"/>
<line x1="211.174" y1="5.87891" x2="211.174" y2="82.6698" stroke="#EBEBEB" stroke-width="0.387833"/>
<line x1="220.483" y1="5.87891" x2="220.483" y2="82.6698" stroke="#EBEBEB" stroke-width="0.387833"/>
<line x1="229.792" y1="5.87891" x2="229.792" y2="82.6698" stroke="#EBEBEB" stroke-width="0.387833"/>
<line x1="239.098" y1="5.87891" x2="239.098" y2="82.6698" stroke="#EBEBEB" stroke-width="0.387833"/>
<line x1="248.407" y1="5.87891" x2="248.407" y2="82.6698" stroke="#EBEBEB" stroke-width="0.387833"/>
<line x1="257.715" y1="5.87891" x2="257.715" y2="82.6698" stroke="#EBEBEB" stroke-width="0.387833"/>
<line x1="267.022" y1="5.87891" x2="267.022" y2="82.6698" stroke="#EBEBEB" stroke-width="0.387833"/>
<path d="M0 91.2012H408" stroke="#EDEDED" stroke-width="1.55133"/>
<path d="M280.015 139.293C280.015 153.858 245.635 165.666 203.224 165.666C160.814 165.666 126.434 153.858 126.434 139.293" stroke="#E6E6E6" stroke-width="0.775665"/>
<path d="M113.636 113.695C107.853 113.695 103.164 118.384 103.164 124.167C103.164 129.949 107.853 134.638 113.636 134.638C119.419 134.638 124.107 129.949 124.107 124.167C124.107 118.384 119.419 113.695 113.636 113.695ZM115.707 133.54C115.027 133.673 114.18 133.751 113.492 133.764C112.84 133.754 112.191 133.679 111.554 133.538C111.44 133.508 111.325 133.478 111.211 133.448L109.982 130.154L110.971 128.194H116.3L116.329 128.248L117.302 130.204L116.113 133.441C115.979 133.477 115.843 133.51 115.707 133.54ZM110.292 115.169L113.182 117.148V120.075L109.608 123.099L107.121 121.966L106.911 121.87L105.787 118.647C106.895 117.076 108.462 115.852 110.292 115.169ZM121.467 118.632L120.338 121.879L117.62 123.106L114.038 120.075V117.148L116.938 115.163C118.768 115.842 120.356 117.064 121.467 118.632ZM104.077 125.043L106.784 122.702L109.278 123.839L109.306 123.852L110.299 127.743L109.27 129.683L105.753 129.637C104.829 128.31 104.232 126.74 104.077 125.043ZM118.001 129.683L116.973 127.743L117.967 123.846L120.484 122.699L123.194 125.043C123.039 126.74 122.442 128.31 121.518 129.637L118.001 129.683Z" fill="#ACB3CD"/>
</svg>
