<svg width="28" height="28" viewBox="0 0 28 28" fill="none" xmlns="http://www.w3.org/2000/svg">
<rect width="27.5745" height="27.5745" rx="8.04255" fill="#EEF5ED"/>
<g clip-path="url(#clip0_5163_36129)">
<path d="M18.5778 17.1826H11.0478C10.3626 17.178 9.69884 16.954 9.16341 16.5467C8.62799 16.1394 8.25196 15.5724 8.09581 14.9369L6.89581 10.2912C6.7854 9.85982 6.77974 9.41015 6.87926 8.97639C6.97877 8.54262 7.18084 8.13618 7.47009 7.78798C7.75934 7.43977 8.12816 7.15897 8.5485 6.96694C8.96884 6.7749 9.42962 6.67669 9.89581 6.67976H19.7958C20.262 6.67669 20.7228 6.7749 21.1431 6.96694C21.5634 7.15897 21.9323 7.43977 22.2215 7.78798C22.5108 8.13618 22.7128 8.54262 22.8124 8.97639C22.9119 9.41015 22.9062 9.85982 22.7958 10.2912L21.5958 14.9483C21.4338 15.5917 21.0467 16.1634 20.4982 16.5695C19.9497 16.9756 19.2725 17.1918 18.5778 17.1826V17.1826ZM9.85981 8.10833C9.62265 8.10902 9.38872 8.1608 9.17556 8.25981C8.96239 8.35881 8.77551 8.50247 8.62891 8.68001C8.48231 8.85756 8.37979 9.0644 8.32903 9.28503C8.27827 9.50567 8.28059 9.73438 8.33581 9.95404L9.53581 14.6112C9.61708 14.9375 9.81192 15.2281 10.0886 15.4356C10.3653 15.6431 10.7076 15.7554 11.0598 15.754H18.5778C18.93 15.7554 19.2723 15.6431 19.549 15.4356C19.8257 15.2281 20.0205 14.9375 20.1018 14.6112L21.3018 9.95404C21.3582 9.73429 21.3614 9.50519 21.3112 9.28409C21.2609 9.06298 21.1584 8.85567 21.0116 8.67784C20.8648 8.50001 20.6774 8.35632 20.4636 8.25765C20.2499 8.15898 20.0153 8.10792 19.7778 8.10833H9.85981Z" fill="#60B15A"/>
<path d="M7.77138 11.5095C7.60003 11.5076 7.43454 11.4498 7.30245 11.3459C7.17036 11.2419 7.07964 11.098 7.04538 10.9381L5.97138 6.49808C5.8722 6.09361 5.63183 5.73317 5.28958 5.47574C4.94734 5.2183 4.52349 5.07911 4.08738 5.08094H3.10938C2.91046 5.08094 2.7197 5.00568 2.57904 4.87173C2.43839 4.73777 2.35938 4.55609 2.35938 4.36665C2.35938 4.17721 2.43839 3.99553 2.57904 3.86157C2.7197 3.72762 2.91046 3.65236 3.10938 3.65236H4.08738C4.86246 3.64978 5.61555 3.89759 6.22365 4.3553C6.83175 4.81301 7.25892 5.45357 7.43538 6.17236L8.50338 10.6124C8.52649 10.7036 8.53036 10.7982 8.51476 10.8909C8.49915 10.9835 8.46439 11.0723 8.41248 11.152C8.36057 11.2317 8.29255 11.3009 8.21236 11.3554C8.13218 11.4099 8.04143 11.4487 7.94538 11.4695C7.889 11.4886 7.83068 11.502 7.77138 11.5095V11.5095ZM11.1614 23.3666C10.6867 23.3666 10.2227 23.2326 9.82801 22.9814C9.43333 22.7303 9.12572 22.3733 8.94407 21.9556C8.76242 21.538 8.71489 21.0784 8.80749 20.635C8.9001 20.1916 9.12867 19.7844 9.46432 19.4647C9.79997 19.145 10.2276 18.9273 10.6932 18.8391C11.1587 18.7509 11.6413 18.7962 12.0798 18.9692C12.5184 19.1422 12.8932 19.4352 13.1569 19.8111C13.4206 20.1869 13.5614 20.6289 13.5614 21.0809C13.5614 21.6871 13.3085 22.2685 12.8584 22.6972C12.4083 23.1258 11.7979 23.3666 11.1614 23.3666ZM11.1614 20.2009C10.981 20.2009 10.8047 20.2519 10.6547 20.3473C10.5047 20.4428 10.3878 20.5784 10.3188 20.7371C10.2498 20.8958 10.2317 21.0705 10.2669 21.239C10.3021 21.4074 10.389 21.5622 10.5165 21.6837C10.644 21.8052 10.8065 21.8879 10.9835 21.9214C11.1604 21.9549 11.3437 21.9377 11.5104 21.872C11.677 21.8062 11.8195 21.6949 11.9197 21.5521C12.0199 21.4092 12.0734 21.2413 12.0734 21.0695C12.0734 20.8391 11.9773 20.6182 11.8063 20.4553C11.6352 20.2924 11.4033 20.2009 11.1614 20.2009V20.2009ZM19.4534 23.3666C18.9787 23.3666 18.5147 23.2326 18.12 22.9814C17.7253 22.7303 17.4177 22.3733 17.2361 21.9556C17.0544 21.538 17.0069 21.0784 17.0995 20.635C17.1921 20.1916 17.4207 19.7844 17.7563 19.4647C18.092 19.145 18.5196 18.9273 18.9852 18.8391C19.4507 18.7509 19.9333 18.7962 20.3718 18.9692C20.8104 19.1422 21.1852 19.4352 21.4489 19.8111C21.7126 20.1869 21.8534 20.6289 21.8534 21.0809C21.8534 21.6871 21.6005 22.2685 21.1504 22.6972C20.7003 23.1258 20.0899 23.3666 19.4534 23.3666ZM19.4534 20.2009C19.2733 20.2021 19.0975 20.254 18.9483 20.3501C18.7992 20.4462 18.6832 20.5823 18.6151 20.7411C18.547 20.8999 18.5298 21.0743 18.5656 21.2424C18.6015 21.4105 18.6888 21.5648 18.8166 21.6857C18.9444 21.8066 19.1069 21.8887 19.2837 21.9218C19.4604 21.9548 19.6435 21.9373 19.8098 21.8714C19.9761 21.8055 20.1181 21.6942 20.2181 21.5515C20.318 21.4088 20.3714 21.241 20.3714 21.0695C20.3714 20.955 20.3476 20.8415 20.3014 20.7358C20.2552 20.63 20.1875 20.534 20.1021 20.4533C20.0168 20.3726 19.9156 20.3087 19.8042 20.2654C19.6929 20.2221 19.5736 20.2002 19.4534 20.2009V20.2009Z" fill="#60B15A"/>
<path d="M19.455 20.2035H9.459C8.83999 20.2035 8.24632 19.9693 7.80861 19.5525C7.3709 19.1356 7.125 18.5702 7.125 17.9807C7.125 17.3911 7.3709 16.8257 7.80861 16.4089C8.24632 15.992 8.83999 15.7578 9.459 15.7578H11.049C11.2479 15.7578 11.4387 15.8331 11.5793 15.967C11.72 16.101 11.799 16.2827 11.799 16.4721C11.799 16.6615 11.72 16.8432 11.5793 16.9772C11.4387 17.1111 11.2479 17.1864 11.049 17.1864H9.459C9.23781 17.1864 9.02568 17.2701 8.86927 17.419C8.71287 17.568 8.625 17.77 8.625 17.9807C8.625 18.1913 8.71287 18.3934 8.86927 18.5423C9.02568 18.6913 9.23781 18.775 9.459 18.775H19.455C19.6539 18.775 19.8447 18.8502 19.9853 18.9842C20.126 19.1181 20.205 19.2998 20.205 19.4892C20.205 19.6787 20.126 19.8604 19.9853 19.9943C19.8447 20.1283 19.6539 20.2035 19.455 20.2035V20.2035Z" fill="#60B15A"/>
</g>
<defs>
<clipPath id="clip0_5163_36129">
<rect width="21" height="20" fill="white" transform="translate(2.0957 3.50977)"/>
</clipPath>
</defs>
</svg>
