<svg width="29" height="29" viewBox="0 0 29 29" fill="none" xmlns="http://www.w3.org/2000/svg">
<rect x="0.46875" y="0.490234" width="27.5745" height="27.5745" rx="8.04255" fill="#60685F" fill-opacity="0.1"/>
<g clip-path="url(#clip0_5155_34026)">
<path d="M19.0466 17.6728H11.5166C10.8313 17.6682 10.1676 17.4442 9.63216 17.0369C9.09674 16.6296 8.72071 16.0626 8.56456 15.4271L7.36456 10.7814C7.25415 10.3501 7.24849 9.90039 7.34801 9.46662C7.44752 9.03286 7.64959 8.62642 7.93884 8.27821C8.22809 7.93001 8.59691 7.64921 9.01725 7.45717C9.43759 7.26514 9.89837 7.16692 10.3646 7.16999H20.2646C20.7307 7.16692 21.1915 7.26514 21.6119 7.45717C22.0322 7.64921 22.401 7.93001 22.6903 8.27821C22.9795 8.62642 23.1816 9.03286 23.2811 9.46662C23.3806 9.90039 23.375 10.3501 23.2646 10.7814L22.0646 15.4386C21.9025 16.0819 21.5154 16.6537 20.9669 17.0597C20.4185 17.4658 19.7412 17.682 19.0466 17.6728ZM10.3286 8.59856C10.0914 8.59925 9.85747 8.65104 9.64431 8.75004C9.43114 8.84905 9.24426 8.9927 9.09766 9.17025C8.95106 9.3478 8.84854 9.55463 8.79778 9.77527C8.74702 9.9959 8.74934 10.2246 8.80456 10.4443L10.0046 15.1014C10.0858 15.4278 10.2807 15.7184 10.5574 15.9259C10.8341 16.1334 11.1764 16.2456 11.5286 16.2443H19.0466C19.3987 16.2456 19.741 16.1334 20.0177 15.9259C20.2944 15.7184 20.4893 15.4278 20.5706 15.1014L21.7706 10.4443C21.827 10.2245 21.8302 9.99542 21.7799 9.77432C21.7296 9.55322 21.6272 9.3459 21.4804 9.16807C21.3335 8.99024 21.1461 8.84655 20.9324 8.74788C20.7186 8.64922 20.4841 8.59815 20.2466 8.59856H10.3286Z" fill="#60685F"/>
<path d="M8.24013 11.9997C8.06878 11.9978 7.90329 11.9401 7.7712 11.8361C7.63911 11.7321 7.54839 11.5882 7.51413 11.4283L6.44013 6.98831C6.34095 6.58385 6.10058 6.22341 5.75833 5.96597C5.41609 5.70854 4.99224 5.56934 4.55613 5.57117H3.57813C3.37921 5.57117 3.18845 5.49591 3.04779 5.36196C2.90714 5.22801 2.82812 5.04632 2.82812 4.85688C2.82812 4.66744 2.90714 4.48576 3.04779 4.35181C3.18845 4.21785 3.37921 4.1426 3.57813 4.1426H4.55613C5.33121 4.14002 6.0843 4.38782 6.6924 4.84553C7.3005 5.30324 7.72767 5.94381 7.90413 6.6626L8.97213 11.1026C8.99524 11.1938 8.99911 11.2885 8.98351 11.3811C8.9679 11.4737 8.93314 11.5625 8.88123 11.6422C8.82932 11.722 8.7613 11.7911 8.68111 11.8456C8.60093 11.9001 8.51018 11.9389 8.41413 11.9597C8.35775 11.9788 8.29943 11.9922 8.24013 11.9997ZM11.6301 23.8569C11.1555 23.8569 10.6914 23.7228 10.2968 23.4717C9.90208 23.2205 9.59447 22.8635 9.41282 22.4459C9.23117 22.0282 9.18364 21.5686 9.27624 21.1252C9.36885 20.6819 9.59742 20.2746 9.93307 19.9549C10.2687 19.6353 10.6964 19.4176 11.1619 19.3294C11.6275 19.2412 12.11 19.2864 12.5486 19.4594C12.9871 19.6324 13.3619 19.9254 13.6257 20.3013C13.8894 20.6772 14.0301 21.1191 14.0301 21.5712C14.0301 22.1774 13.7773 22.7588 13.3272 23.1874C12.8771 23.6161 12.2666 23.8569 11.6301 23.8569ZM11.6301 20.6912C11.4498 20.6912 11.2734 20.7421 11.1234 20.8376C10.9735 20.933 10.8566 21.0686 10.7875 21.2274C10.7185 21.3861 10.7005 21.5607 10.7357 21.7292C10.7708 21.8977 10.8577 22.0524 10.9852 22.1739C11.1128 22.2954 11.2753 22.3781 11.4522 22.4116C11.6291 22.4451 11.8125 22.4279 11.9791 22.3622C12.1458 22.2965 12.2882 22.1851 12.3884 22.0423C12.4886 21.8995 12.5421 21.7315 12.5421 21.5597C12.5421 21.3294 12.446 21.1085 12.275 20.9456C12.104 20.7827 11.872 20.6912 11.6301 20.6912ZM19.9221 23.8569C19.4475 23.8569 18.9834 23.7228 18.5888 23.4717C18.1941 23.2205 17.8865 22.8635 17.7048 22.4459C17.5232 22.0282 17.4756 21.5686 17.5682 21.1252C17.6608 20.6819 17.8894 20.2746 18.2251 19.9549C18.5607 19.6353 18.9884 19.4176 19.4539 19.3294C19.9195 19.2412 20.402 19.2864 20.8406 19.4594C21.2791 19.6324 21.6539 19.9254 21.9177 20.3013C22.1814 20.6772 22.3221 21.1191 22.3221 21.5712C22.3221 22.1774 22.0693 22.7588 21.6192 23.1874C21.1691 23.6161 20.5586 23.8569 19.9221 23.8569ZM19.9221 20.6912C19.742 20.6923 19.5663 20.7442 19.4171 20.8403C19.2679 20.9364 19.1519 21.0725 19.0838 21.2313C19.0157 21.3901 18.9985 21.5646 19.0344 21.7327C19.0703 21.9008 19.1576 22.055 19.2854 22.1759C19.4131 22.2968 19.5757 22.379 19.7524 22.412C19.9291 22.4451 20.1122 22.4275 20.2785 22.3616C20.4448 22.2957 20.5869 22.1844 20.6868 22.0417C20.7868 21.899 20.8401 21.7313 20.8401 21.5597C20.8401 21.4452 20.8163 21.3318 20.7701 21.226C20.7239 21.1203 20.6562 21.0243 20.5709 20.9435C20.4856 20.8628 20.3843 20.799 20.273 20.7556C20.1616 20.7123 20.0424 20.6904 19.9221 20.6912Z" fill="#60685F"/>
<path d="M19.9238 20.6938H9.92775C9.30874 20.6938 8.71507 20.4596 8.27736 20.0427C7.83965 19.6258 7.59375 19.0604 7.59375 18.4709C7.59375 17.8814 7.83965 17.316 8.27736 16.8991C8.71507 16.4822 9.30874 16.248 9.92775 16.248H11.5178C11.7167 16.248 11.9074 16.3233 12.0481 16.4573C12.1887 16.5912 12.2678 16.7729 12.2678 16.9623C12.2678 17.1518 12.1887 17.3335 12.0481 17.4674C11.9074 17.6014 11.7167 17.6766 11.5178 17.6766H9.92775C9.70656 17.6766 9.49443 17.7603 9.33802 17.9093C9.18162 18.0582 9.09375 18.2602 9.09375 18.4709C9.09375 18.6816 9.18162 18.8836 9.33802 19.0325C9.49443 19.1815 9.70656 19.2652 9.92775 19.2652H19.9238C20.1227 19.2652 20.3134 19.3404 20.4541 19.4744C20.5947 19.6084 20.6738 19.79 20.6738 19.9795C20.6738 20.1689 20.5947 20.3506 20.4541 20.4846C20.3134 20.6185 20.1227 20.6938 19.9238 20.6938Z" fill="#60685F"/>
</g>
<defs>
<clipPath id="clip0_5155_34026">
<rect width="21" height="20" fill="white" transform="translate(2.56445 4)"/>
</clipPath>
</defs>
</svg>
