<svg width="29" height="29" viewBox="0 0 29 29" fill="none" xmlns="http://www.w3.org/2000/svg">
<rect x="0.873047" y="0.490234" width="27.5745" height="27.5745" rx="8.04255" fill="#60685F" fill-opacity="0.1"/>
<path d="M14.2541 14.9283C16.8755 14.9283 18.9777 12.8001 18.9777 10.2047C18.9777 7.60927 16.8755 5.45508 14.2541 5.45508C11.6327 5.45508 9.53044 7.58332 9.53044 10.1787C9.53044 12.7741 11.6327 14.9283 14.2541 14.9283ZM14.2541 6.70088C16.1747 6.70088 17.7319 8.25813 17.7319 10.1787C17.7319 12.0993 16.1747 13.6566 14.2541 13.6566C12.3335 13.6566 10.7762 12.1253 10.7762 10.2047C10.7762 8.28408 12.3335 6.70088 14.2541 6.70088ZM6.05259 22.3253H22.5075C22.8449 22.3253 23.1304 22.0398 23.1304 21.7024C23.1304 18.4321 20.4571 15.7589 17.1869 15.7589H11.3732C8.10296 15.7589 5.42969 18.4321 5.42969 21.7024C5.42969 22.0398 5.71518 22.3253 6.05259 22.3253ZM11.3732 17.0047H17.1869C19.5747 17.0047 21.5212 18.7695 21.8327 21.0795H6.72739C7.03884 18.7695 8.9854 17.0047 11.3732 17.0047Z" fill="#60685F"/>
</svg>
